<svg xmlns="http://www.w3.org/2000/svg" width="1563" height="1563" xmlns:v="https://vecta.io/nano"><path d="M0 0h1563v1563H0V0z" fill="#fefcf5"/><path d="M324.445 489.797l2.138-.016c17.019-.094 33.929.291 50.913 1.405 26.607 1.733 53.224 2.779 79.869 3.694l17.802.631 21.57.768 59.523 2.192 4.724.181 52.562 2.164 2.299.103 23.497 1.079 38.798 1.494 40.637 1.808c22.735 1.26 45.442 2.107 68.21 2.408 26.209.354 26.209.354 38.7 2.666l2.045.344c2.713.507 4.903 1.031 7.193 2.605 2.109 3.29 1.793 6.945 1.074 10.676-2.483 2.702-4.952 3.974-8.187 5.688-3.944 3.243-4.087 6.403-4.812 11.313-.272 3.061-.325 6.088-.301 9.16l.012 2.594c.152 9.376 1.326 18.585 2.687 27.852l1.205 8.646.791 5.557.351 2.582c.694 4.762.694 4.762 2.846 9.002 2.318 4.289 1.693 8.737 1.562 13.522l-.092 6.651-.063 3.5c-.333 19.669-.282 38.643 4.002 57.934l3.313.363c4.524.781 6.043 1.918 8.688 5.637.063 3.063.063 3.063-1 6l-2.035 1.664c-2.821 3.354-2.559 6.462-2.465 10.648l.032 2.665c.26 9.976 1.245 19.909 2.218 29.835l.237 2.508c.963 10.007 2.457 19.493 5.217 29.171 1.598 7.044.818 10.942-2.704 17.134-10.092 20.315-3.692 52.212 2.5 73.375l1.125 3.137c.856 2.802 1.046 4.956.875 7.863l3.035-1.059 4.027-1.379 1.99-.697c4.324-1.47 8.408-2.352 12.947-2.865l-.875-3.805C869.43 851.697 869.43 851.697 870 843c5.742-2.314 11.266-3.841 17.344-4.973l2.661-.51 8.495-1.58 2.938-.542c14.491-2.654 28.809-4.991 43.562-5.396l3.344-.108c29.626-.824 58.677 1.977 87.656 8.108l3.441.7c21.24 4.32 40.93 10.381 60.743 19.188l2.913 1.269 2.578 1.15c2.631.785 3.805.733 6.324-.307 1.806-1.75 3.428-3.477 5.063-5.375l2.961-3.305 1.511-1.69c12.514-13.915 27.153-24.586 43.466-33.63l2.511-1.406c23.213-12.895 47.634-21.795 73.614-27.219l2.211-.462c17.144-3.558 33.414-5.067 50.914-5.163l2.177-.017c26.931-.151 26.931-.151 34.573 5.267 5.244 5.357 8.588 11.948 12.25 18.438l4.047 7.09 1.951 3.421 6.252 10.551c4.022 6.627 7.886 13.343 11.75 20.063l19.286 32.967 6.651 11.283 1.229 2.091 5.861 9.976 13.415 22.717 20.675 35.17 12.195 20.859 1.083 1.848 16.421 27.828 1.492 2.515 1.291 2.17c3.215 5.626 3.215 5.626 2.776 8.263L1469 1026c-8.426 1.522-16.444 2.222-25 2l16.375 32.313 1.122 2.177 15.124 28.999 5.227 9.992 15.465 29.082L1503 1141l1.203 2.202 3.047 5.735 1.641 3.09c1.322 3.543 1.446 6.218 1.109 9.973-2 3-2 3-5.758 3.809l-5.367.629-3.209.372c-12.493 1.383-25.027 2.348-37.555 3.358l-63.599 5.565-81.767 7.076-5.104.402-2.402.189-21.205 1.961c-6.023.598-11.979.895-18.033.639l-.781 2.219c-3.282 7.49-9.275 12.389-16.531 15.809-6.781 2.454-12.937 3.297-20.094 3.344l-2.676.027-5.587.027-8.386.112c-14.311.129-29.059-1.081-39.945-11.537l-1-1c-2.238.03-4.474.146-6.707.289l-2.243.143-35.746 2.779-9.814.796-38.26 3.469-42.946 3.91-26.566 2.267-11.692 1.004-8.928.767-11.892 1.021-14.757 1.267-5.867.503-33.06 2.93-9.154.838-8.535.802c-9.652.895-19.131 1.47-28.833 1.216-5.213-9.707-7.463-19.576-9.375-30.375l-.647-3.567-3.166-17.781-1.187-6.715-.615-3.478-5.322-28.147-17.548-94.564L833 1006c-4.123 10.884-8.009 21.832-11.687 32.875l-1.115 3.343-4.994 15.661c-8.575 28.047-17.742 56.109-29.203 83.121l-1.27 2.998-3.668 8.44-1.072 2.442-1.018 2.241-.867 1.92c-1.531 2.713-2.852 4.768-5.106 6.959-2.785.495-4.948.655-7.73.594l-2.399.004-8.058-.098-5.876-.056c-72.344-.893-144.871-6.6-216.948-12.553l-26.063-2.024-3.685-.273-13.92-1.02c-10.474-.756-20.905-1.576-31.325-2.883-7.458-.914-14.931-1.31-22.432-1.691-13.335-.694-26.637-1.676-39.948-2.719l-111.864-7.469-2.36-.128-49.722-2.144-6.253-.171-19.17-.423-6.706-.161-3.044-.016c-4.564-.133-6.782-.218-10.477-3.075L183 1127l-1.542-1.982-1.29-1.917-1.468-2.177c-19.167-29.143-32.457-62.965-25.763-98.499a166.76 166.76 0 0 1 1.727-7.451c1.027-3.999 1.778-7.03.336-10.975-1.336-1.99-1.336-1.99-3.062-3.875C134.629 978.498 128.895 949.094 131 922c1.001-6.616 2.809-13.092 6-19l-2.168-.699c-13.695-6.29-21.234-23.029-26.508-36.207-3.484-10.145-4.829-19.961-4.762-30.656l-.061-3.42c.007-12.396 3.685-24.871 12.416-34.029l4.086-3.867c2.203-2.341 3.727-4.738 5.371-7.496 3.741-6.186 9.014-13.32 15.625-16.625l-2.196-.044-10.054-.268-3.453-.068c-11.073-.346-22.996-1.506-31.297-9.619-2.154-3.174-3.629-6.426-5-10l-.93-2.398c-3.295-9.194-3.347-18.494-3.383-28.164l-.009-2.099c-.01-10.82.708-21.426 2.134-32.151l.501-3.879c1.261-8.697 1.261-8.697 2.968-11.148 2.257-1.523 3.677-1.505 6.387-1.453l2.705.029 2.814.076 2.85.041L112 669l-.999-1.978c-3.367-6.974-5.309-13.609-6.688-21.21l-.628-3.34L102 633l-.411-2.287C97.938 609.879 96.575 583.306 109 565c6.795-8.442 18.779-10.646 28.695-13.738l27.805-9.07 8.116-2.713 23.657-7.922 8.901-2.985 5.994-2.02c6.968-2.335 13.957-4.497 21.031-6.484 29.427-8.192 29.427-8.192 58.175-18.443l2.888-1.151c5.485-2.282 10.453-4.987 15.435-8.227 4.675-2.533 9.54-2.419 14.748-2.451z" fill="#af7c09"/><path d="M1293.625 788.688l2.305-.011A306.36 306.36 0 0 1 1311 789l3.987.186c8.704.78 8.704.78 12.01 3.393 1.603 2.057 2.799 4.109 4.002 6.421l2.762 4.469 2.926 5.031 3.418 5.844 1.873 3.207 10.287 17.372 6.165 10.378 1.203 2.025 25.972 44.059L1399.5 915l16.104 27.384L1429.5 966l15.375 26.125 1.076 1.836 1.051 1.792 1.035 1.766 3.001 5.137 4.025 6.771 1.944 3.251 1.747 2.89C1460 1018 1460 1018 1460 1021l-3.969.078c-31.664.873-63.074 8.063-92.031 20.922l-4.961 2.152A640.18 640.18 0 0 0 1344 1051l-2.516 1.179c-38.026 17.992-73.337 44.899-98.484 78.821l-2 2.504-1.687 2.121-1.387 1.727c-1.252 1.915-1.252 1.915-.926 5.648 2.694-.064 4.453-.484 6.438-2.357 1.602-1.902 3.121-3.85 4.625-5.831l3.441-4.371 1.754-2.242c2.675-3.379 5.444-6.672 8.242-9.95l1.453-1.731c5.837-6.836 10.653-9.363 19.172-11.644l2.688-.762c10-2.768 19.636-4.424 30.023-4.414l3.03-.013 6.318-.002 9.445-.046c23.358-.079 45.429 4.402 68.226 9.103 18.994 3.902 37.469 6.674 56.895 6.384l3.629-.027L1471 1115c2.908 5.686 3.386 10.106 3.188 16.438l-.041 2.506L1474 1140l-1.785.151-43.202 3.657-20.893 1.769-20.191 1.712-7.675.648c-11.815.993-23.586 1.995-35.326 3.673-3.888.518-7.742.733-11.659.855-7.841.336-15.633.976-23.445 1.727l-3.484.334-14.256 1.393c-33.607 3.306-33.607 3.306-46.039-.206-5.534-1.295-11.134-1.288-16.795-1.4l-3.594-.104L1217 1154c-3.107-6.086-6.068-12.188-8.687-18.5l-.893-2.066c-1.543-3.711-2.651-7.246-3.373-11.203-1.11-6.023-3.074-11.652-5.109-17.418l-1.312-3.758-17.984-50.01-14.33-39.67-4.909-13.619-1.417-3.931-11.39-31.548-11.665-32.362-7.856-21.735-4.871-13.512-2.275-6.273-3.082-8.553-.931-2.516c-2.509-7.112-2.509-7.112-.917-11.328 1.82-2.395 1.82-2.395 4.125-4.812 2.844-3.023 5.611-6.047 8.25-9.25 4.333-4.961 9.439-8.908 14.625-12.937l2.848-2.254c7.682-5.945 15.722-10.96 24.152-15.746l1.923-1.109c17.785-10.18 37.204-17.899 57.077-22.891l2.468-.635c20.643-5.247 40.889-7.628 62.157-7.677zm-351.91 49.144l3.418-.01 7.169-.007 10.697-.039c20.285-.051 40.516.787 60.502 4.475l3.624.648c22.42 4.122 43.519 9.943 64.564 18.664l3.48 1.428 3.281 1.388 2.948 1.237c4.708 2.504 6.963 5.491 8.731 10.465l1.119 3.093 1.175 3.358 1.263 3.521 2.676 7.519 4.236 11.889 5.021 14.06 10.674 29.54 4.826 13.256.961 2.642 31.152 86.246 11.685 32.292 3.562 9.789 2.289 6.265 3.149 8.634.954 2.587.858 2.368.751 2.053c.52 1.807.52 1.807.52 4.807-4.386-1.386-8.621-3.03-12.876-4.767-14.001-5.716-27.941-10.463-42.722-13.702l-7.679-1.75c-22.005-5.023-44.25-8.826-66.859-9.055l-3.458-.038c-44.473-.397-88.36 2.997-130.7 17.69-2.956.679-4.812.436-7.706-.379l-15.004-79.631-4.933-26.557-.496-2.668-7.439-39.818-1.129-6.021-5.793-30.816-10.268-55.553-.618-3.456c-.904-5.24-1.553-10.164-1.319-15.482 5.461-2.202 10.569-3.663 16.375-4.57l2.33-.384 7.295-1.171 4.891-.801L922 839l3.791-.571c5.294-.638 10.598-.591 15.924-.597zm-802.568-32.688l2.989.387 6.802.691 3.854.393c8.119.777 16.272 1.15 24.414 1.603l5.525.315 14.216.804 14.183.806 11.201.637 2.799.159 28.281 1.556 47.691 3.13 63.734 4.245 15.863.967 3.14.192 6.213.38 9.157.559 77.859 5.126 6.71.474 54.694 3.915 2.589.188 5.194.378C653.533 840.276 653.533 840.276 761 845c.106 6.761-.045 13.388-.712 20.116-1.308 13.362-1.486 26.657-1.476 40.072l-.002 2.786c.001 11.051.273 22.01 1.19 33.026-58.699 1.267-118.146-6.229-176.527-11.782l-2.356-.224-4.706-.448-52.973-4.796-4.104-.36-15.675-1.37-19.282-1.708-72.815-5.985-37.843-2.971-3.826-.301-51.236-4.128-2.956-.244-27.224-2.265-12.058-1.006-2.286-.19-34.821-2.577c-6.515-.428-13.005-.963-19.498-1.643-8.435-.858-16.873-1.364-25.338-1.817-11.196-.607-22.383-1.276-33.537-2.433l-2.985-.258c-9.094-1.041-15.982-5.677-22.202-12.285C123.731 867.049 117.743 847.202 119 828c1.197-6.708 3.796-12.629 8-18l1.959-2.651c3.837-2.964 5.529-2.694 10.189-2.204z" fill="#fefcf4"/><path d="M135.576 580.679c10.859.062 21.617.89 32.432 1.807 25.54 2.165 51.076 3.475 76.68 4.577l2.955.128 59.124 2.434 16.873.667 4.225.167 103.129 4.942 100.242 4.75 7.452.307 3.433.142c6.646.282 13.267.668 19.899 1.189 6.631.472 13.281.61 19.924.818l3.373.113 2.951.092c3.206.163 6.386.407 9.585.676 7.283.572 14.561.789 21.861.959l7.188.177 15.285.377 17.697.44 6.974.168 22.935.861 2.268.113c3.728.208 7.3.563 10.938 1.418l-.875 3.938-.551 2.496-1.117 4.852-.52 2.215-.473 1.969c-4.803 26.154.483 51.721 10.715 75.859.878 2.86 1.039 3.973-.18 6.672-1.607 1.892-3.378 3.493-5.199 5.18-1.691 1.709-2.663 3.265-3.863 5.32-2.937 2.5-2.937 2.5-5.79 2.589l-3.448-.32-3.817-.347c-6.016-.655-12.01-1.428-18.007-2.235-25.754-3.354-51.655-5.326-77.527-7.516l-2.023-.171-21.877-1.838-3.734-.313-6.936-.576c-4.334-.364-8.656-.732-12.968-1.303-4.306-.532-8.589-.812-12.92-1.049l-5.551-.321-2.985-.171c-55.8-3.227-111.493-7.845-167.171-12.698l-24.113-2.075-4.842-.411-6.899-.582-17.907-1.724c-3.263-.42-6.479-.667-9.763-.835l-3.659-.201-3.938-.217c-14.826-.847-29.58-2.225-44.347-3.779-7.854-.815-15.668-1.496-23.559-1.807-15.652-.651-31.246-2.404-46.833-3.915l-12.995-1.247L132 671l-3.859-9.152-1.099-2.605c-5.345-12.684-5.345-12.684-7.042-18.243l-1.125-3.68c-2.623-9.5-3.289-18.794-3.375-28.633l-.056-3.502c.131-18.399 2.32-24.465 20.131-24.507z" fill="#fefcf5"/><path d="M173 1011c13.498-.195 26.902.391 40.375 1.188l3.369.196c26.901 1.579 53.736 3.879 80.574 6.287l10.984.98 101.001 9.604 69.117 6.239c20.273 1.543 40.503 3.458 60.717 5.632l51.101 5.019 29.799 2.887c47.819 4.969 95.919 8.203 143.961 9.969-.566 4.89-1.269 9.639-2.34 14.449l-.783 3.572-1.617 7.273c-2.752 12.557-4.587 24.436-4.466 37.326l.02 6.027c.033 7.513.444 14.879 1.186 22.352-21.374.389-42.662-.739-64.002-1.796l-11.516-.557-43.364-2.178-2.237-.121c-5.332-.297-10.634-.739-15.945-1.284-8.576-.825-17.149-1.393-25.75-1.875l-46.437-3.25-3.931-.305-17.544-1.366-65.221-5.04-23.481-1.81-14.97-1.154-6.954-.537-41.181-3.028c-6.35-.444-12.674-.986-18.999-1.698-14.458-1.542-29.003-2.119-43.518-2.872l-9.928-.523-53.07-2.668-7.809-.385c-7.794-.38-15.524-.581-23.327-.399-20.791.39-20.791.39-25.648-3.766-2.444-2.83-3.958-5.883-5.333-9.341-.852-2.088-1.852-4.002-2.948-5.971-14.322-26.089-18.796-53.947-11.887-83.074.638-1.347 1.299-2.685 2-4z" fill="#fefcf4"/><path d="M152 909l29.196 2.186 46.367 3.252a1425.05 1425.05 0 0 1 53.651 4.205c8.669.838 17.311 1.533 26.01 1.958 5.568.289 11.096.79 16.64 1.372 9.226.968 18.454 1.668 27.709 2.289l41.99 3.301 2.066.193 6.032.565 18.84 1.617 2.892.227 6.563.515 117.009 10.318c7.962.839 15.921 1.435 23.911 1.939 10.102.64 20.145 1.54 30.206 2.622C653.892 951.233 706.943 954.692 760 957l-2.499 14.491c-1.693 8.931-1.976 17.764-2.001 26.822l-.014 2.383c-.029 13.11 1.609 24.974 5.963 37.424C762 1040 762 1040 762 1043c-17.077.264-33.996-.473-51.033-1.615l-6.19-.407c-32.652-2.128-65.224-4.921-97.766-8.338L527 1025l-3.246-.3-53.621-4.809L390 1012.5l-2.303-.228-45.92-4.655c-40.218-4.233-80.513-7.607-120.873-10.174l-6.013-.39c-9.262-.61-18.47-1.156-27.755-.998-18.329.239-18.329.239-22.566-3.477-2.095-2.816-3.569-5.383-4.82-8.656-.778-1.993-1.699-3.841-2.692-5.734-3.665-7.113-6.411-14.343-8.059-22.187l-.617-2.641c-2.67-13.094-3.234-28.741 1.617-41.359l2-3z" fill="#fefcf5"/><path d="M103 686c64.771-1.704 130.063 6.164 194.369 13.067l81.868 8.047 8.507.773c21.012 1.914 42.007 3.581 63.077 4.705 8.481.46 16.933 1.173 25.393 1.912l18.314 1.434 3.532.26 7.31.537 27.365 2.016 6.791.5L563 721l3.032.228L619 725.922l9.349.896c20.621 1.954 41.142 4.266 61.652 7.183l-1.43 4.77-.804 2.683-1.891 6.235c-5.206 19.708-3.427 44.382 4.355 63.211.769 2.1.769 2.1.769 5.1l-2.629-.332c-9.486-1.159-18.983-2.135-28.496-3.043l-90.174-9.602-31.374-3.64-48.689-5.638-42.869-4.931-22.05-2.505-5.406-.615-67.871-8.214-35.734-4.299-35.27-4.118-3.291-.397-3.276-.395-6.488-.782-3.213-.387-19.428-2.308-2.351-.275-10.524-1.225-17.441-2.219c-11.975-1.615-24.017-2.659-36.043-3.818l-17.735-1.721-3.906-.38-27.704-2.784-3.621-.372L108 750c-4.514-11.809-8.456-23.224-8.5-36l-.018-2.22c.189-8.684 1.999-17.251 3.518-25.78zm223.746-180.363l2.288-.004 7.403.055 5.154.028c14.12.114 28.124.95 42.201 2.046 11.196.835 22.419 1.183 33.641 1.45l2.303.055 2.356.056 4.845.115 2.451.058c13.261.32 26.492.91 39.736 1.639 13.379.733 26.751 1.201 40.146 1.542l20.855.824c8.474.533 16.952.761 25.438 1l24.938 1c6.058.397 12.103.614 18.173.773l52.407 2.064 6.36.302 34.769 1.663c37.911 1.841 75.849 2.75 113.792 3.698-3.035 3.064-6.028 5.938-9.449 8.566l-2.54 1.951c-12.53 9.494-25.161 18.48-38.714 26.463l-1.788 1.053-8.77 5.097c-9.828 5.704-19.026 12.127-27.427 19.807l-2.449 2.215c-1.932 1.719-1.932 1.719-2.863 3.848l-6.187-.437-5.49-.388-5.148-.417c-7.592-.635-15.125-.918-22.741-.969l-7.263-.08-3.815-.04c-20.732-.234-41.409-.747-62.106-2.044l-3.213-.201-13.117-.824-37.232-1.913-9.689-.444-2.083-.096-2.139-.098-4.432-.203-46.188-2.169-35.28-1.678-2.12-.101-102.145-4.607-48.75-2.324-2.47-.137-23.684-1.348-10.682-.617-2.112-.12c-11.074-.621-22.144-.975-33.232-1.235-15.691-.371-31.282-1.318-46.93-2.574l-7.312-.564L149 566c2.458-2.458 4.44-2.99 7.734-4.104l3.659-1.246 4.002-1.341 4.155-1.406 8.779-2.958 10.971-3.704c22.227-7.532 44.516-14.909 67.137-21.177 31.803-8.13 31.803-8.13 60.789-22.646 3.541-1.809 6.637-1.83 10.52-1.78z" fill="#fefcf4"/><path d="M876 880c6.976 31.972 12.614 64.234 18.422 96.434L903 1022c12.638 65.339 12.638 65.339 17 96 2.482.916 3.608 1.16 6.099.145l2.299-1.332c6.166-3.264 12.505-5.03 19.227-6.812l1.919-.516c32.911-8.837 66.343-13.726 100.456-13.672l2.317.003c43.009.113 86.398 8.119 126.683 23.185l2.899 1.053c16.406 6.113 16.406 6.113 20.539 14.884A157.53 157.53 0 0 1 1205 1142l2.438 5.625c1.318 3.231 1.563 4.728 1.563 8.375l-1.81.44-8.503 2.123-2.842.689c-4.779 1.214-9.404 2.518-13.951 4.433-13.613 5.666-26.643 6.945-41.27 7.94l-7.523.583-11.594.897-35.862 3.195-51.366 4.503-33.748 3.002-40.302 3.451-42.351 3.881c-5.668.605-11.178 1.001-16.879.863-.136-6.864.053-13.707.375-20.562l.094-2.417c.299-5.787.299-5.787 2.531-8.02 2.299-.4 4.617-.694 6.938-.937l4.387-.512 2.326-.271c10.268-1.222 20.325-2.751 30.233-5.776l2.56-.776c12.199-3.771 24.179-8.197 36.182-12.541l14.289-5.145 3.529-1.269 24.787-8.758 3.205-1.12c19.861-6.874 39.079-9.33 60.002-9.333l2.821-.007c19.193 0 39.47 1.034 57.741 7.445v1l-1.988.076-8.887.362-3.129.119-2.988.127-2.761.111c-2.281.071-2.281.071-4.247 1.205v4l2.497.012c41.164.358 41.164.358 59.48 9.972 2.003 1.006 3.836 1.56 6.023 2.016.122-2.341.122-2.341-1-5-4.801-4.274-11.122-6.34-17-8.684-2.828-1.241-5.282-2.649-7.875-4.316-30.774-18.991-82.777-18.277-117.125-11l-3.957.738c-20.654 4.114-40.648 12.718-60.348 19.996l-28.017 9.971-4.531 1.569c-13.11 4.551-25.742 7.951-39.584 9.413l-3.467.393c-4.724.522-9.338.996-14.096.92-3.09-12.435-5.336-25.035-7.687-37.625l-1.333-7.105-3.349-17.897-2.324-12.399-7.959-43.315-.399-2.274-1.784-10.291c-1.332-7.693-2.808-15.346-4.36-22.997l-6.504-33.906-.49-2.649-2.991-16.225-4.042-21.916-1.392-7.561-.861-4.667-.408-2.21-2.776-14.115c-.672-3.648-.46-7.157-.341-10.849 16.895-9.094 16.895-9.094 25-7z" fill="#fdfbf0"/><path d="M1425 1031c2 2.02 3.153 3.541 4.563 5.938l1.249 1.997L1435 1046l1.591 2.745c8.637 15.011 16.888 30.268 24.988 45.576l2.74 5.058c2.769 5.136 2.769 5.136 2.277 7.841L1466 1109c-22.003.342-42.014-2.104-63.551-6.344-31.013-6.374-31.013-6.374-62.449-9.656l-2.77-.133c-13.44-.545-26.239.528-39.498 2.797l-3.279.558-2.901.524c-2.51.25-4.176.039-6.552-.746 32.506-31.294 78.956-49.789 121.5-62l3.166-.919c10.594-2.944 10.594-2.944 15.334-2.081z" fill="#fefcf3"/><path d="M816 629c2.219 13.873 2.219 13.873-1.327 18.87-3.546 3.521-7.648 6.265-11.845 8.952-2.196 1.415-4.229 2.981-6.266 4.616l-2.078 1.609c-19.717 15.333-19.717 15.333-37.914 32.383-1.776 1.776-3.654 3.383-5.57 5.008-6.955 6.017-12.448 13.272-18 20.563 6.016-3.705 11.223-7.864 16.41-12.652 3.456-3.133 7.068-6.049 10.695-8.98l7.431-6.254c6.79-5.829 13.821-11.286 20.956-16.684l9.453-7.297 2.464-1.932 4.703-3.708 2.157-1.692 1.894-1.495c1.872-1.331 3.758-2.335 5.837-3.306 1.183 4.584 1.842 9.314 1 14-2.15 2.329-3.637 3.569-6.25 5.188l-2.018 1.362-4.391 2.91c-4.117 2.71-8.124 5.577-12.153 8.416l-5.117 3.57C761.891 706.818 761.891 706.818 743 726c19.955-9.245 37.902-22.165 56.129-34.363l1.798-1.203c4.461-2.996 8.849-6.087 13.198-9.243C816 680 816 680 818 680l1 7-3.086 2.168-41.039 29.707-2.043 1.549c-8.475 5.864-8.475 5.864-14.832 13.576 17.653-8.013 33.671-19.13 49.391-30.381 4.418-3.152 8.844-6.017 13.609-8.619.927 2.757 1.37 4.176 1 7-2.232 3.259-5.087 5.789-8 8.438l-4.562 4.309-2.28 2.146c-2.637 2.578-5.038 5.304-7.433 8.106-16.187 18.796-34.265 33.944-54.71 47.854-14.478 9.891-27.754 20.58-40.014 33.149-1.926-2.888-2.672-4.882-3.562-8.187l-.754-2.73c-5.169-23.307-2.264-46.887 10.124-67.25 2.898-4.452 6.412-8.13 10.192-11.832l2.848-2.953c5.473-5.653 11.131-10.855 17.293-15.762 3.231-2.582 6.394-5.235 9.547-7.91l1.681-1.426 10.593-9.147 3.933-3.435c9.462-8.298 18.185-17.375 27.043-26.305l10.027-10.09 2.311-2.336 2.146-2.156 1.88-1.896C814.143 629 814.143 629 816 629z" fill="#fefaee"/><path d="M806 546c.441 3.184.441 3.184 0 7a38.01 38.01 0 0 1-7.062 5.063l-2.266 1.378-4.966 2.965-11.52 6.955-6.004 3.651c-9.597 5.825-18.865 11.856-27.744 18.739l-1.809 1.395c-3.001 2.371-5.523 4.648-7.629 7.855 16.029-8.28 31.719-17.067 47.227-26.285l1.862-1.106 9.115-5.441 3.336-1.992 2.975-1.784C804 563 804 563 807 562c1.158 3.473 1.069 6.361 1 10l-1.626.759C764.571 589.153 764.571 589.153 732 616c18.103-7.393 35.462-16.133 52.856-25.034l7.309-3.718 6.801-3.475 3.07-1.55 2.695-1.378C807 580 807 580 810 581c.736 3.213.851 5.798 0 9-3.113 3.468-6.994 5.696-11 8l-1.771 1.045c-10.12 5.902-20.792 10.376-31.601 14.85-6.668 2.783-13.182 5.718-19.566 9.104l-2.076 1.096c-3.048 1.661-5.727 3.236-7.986 5.904 4.83-.759 9.253-2.426 13.824-4.098l2.607-.947 5.474-2 8.182-2.969c8.728-3.175 17.367-6.49 25.869-10.232l2.2-.961c5.12-2.304 9.65-5.087 14.093-8.542C810 599 810 599 812 599c.795 4.218.954 7.796 0 12-3.036 3.81-6.41 6.635-10.26 9.628-6.552 5.169-12.473 10.977-18.333 16.904l-2.397 2.408-7.509 7.56-9.906 9.969-2.251 2.276c-4.612 4.633-9.373 9.01-14.342 13.255l-3.816 3.316-3.746 3.246-1.881 1.631-3.709 3.206-3.8 3.339-1.887 1.665-1.695 1.511C725 692 725 692 723 692c-9.25-26.134-14.711-55.233-4-82 8.95-18.019 27.55-26.991 44.401-36.331 13.666-7.59 26.452-16.104 38.513-26.079C804 546 804 546 806 546zm33 360h7c1.683 4.655 2.726 9.304 3.594 14.164l.447 2.438.958 5.256 2.646 14.435.569 3.091 6.321 33.179 8.623 46.049 3.917 21.512.557 2.974 2.78 14.776 1.015 5.41.482 2.534c.58 3.103 1.092 6.016 1.092 9.181l-6 1c.809 10.002 2.499 19.856 4.125 29.75l.466 2.844c5.736 35.414 5.736 35.414 13.034 70.531l.514 2.349c1.177 4.702 2.785 6.912 6.861 9.526-1.527 3.436-3.599 6.119-6 9l3.438-2.937 1.934-1.652c.899-.778 1.788-1.57 2.629-2.41 4.436-.688 8.911-1.092 13.375-1.562l3.754-.42c7.323-.783 14.507-1.214 21.871-1.018-3.912 3.39-8.14 5.945-12.598 8.535-2.418 1.406-2.418 1.406-4.508 3.137-2.646 1.855-4.746 1.543-7.895 1.328 1.527-3.054 4.036-3.66 7.063-5.125l3.348-1.633L927 1201c-5.567-.206-10.461.35-15.898 1.563C909 1203 909 1203 907 1203l-3 1 .188 2.375L904 1209c-3.228 2.152-4.284 2.201-8 2 1.449-3.38 3.373-5.459 6-8l-2.117 1.715-2.758 2.223-2.742 2.215c-3.462 2.685-5.186 2.966-9.508 2.91l-2.609-.033L880 1212c-4.199-11.844-6.258-24.047-8.5-36.375l-1.145-6.176-5.48-30.707-4.375-23.242c-1.629-7.981-3.139-15.969-4.5-24a693.03 693.03 0 0 0-4.187-22.437l-7.5-38.937-.601-3.209-1.724-9.221-.517-2.769L840 1007l-.555-2.981-.546-2.957-.495-2.672c-1.436-8.49.997-13.492 5.596-20.39.497-2.899.497-2.899.688-6.062l.262-3.223c.26-2.683.26-2.683-.949-4.715-.221-1.543-.394-3.094-.541-4.646l-.284-2.923-.297-3.169-.646-6.611-1-10.448-.978-10.066-.291-3.151-.293-2.952-.247-2.586c-.348-2.539-.348-2.539-1.52-5.118-.903-2.33-.903-2.33-.028-4.642L839 906z" fill="#fefbef"/><path d="M173.739 772.201l2.261.174 7 .624 2.149.199 15.023 1.578 4.816.53 50.863 5.965 12.099 1.461 18.615 2.248 22.237 2.676 23.396 2.826L545 815v1c-9.371.16-18.495-.301-27.812-1.25-19.753-1.912-39.565-3.012-59.373-4.182l-10.155-.603-2.023-.12-27.012-1.841L388.402 806l-2.159-.125-17.51-1-15.269-.875-2.159-.125L324.129 802c-10.098-.815-20.201-1.431-30.316-1.977l-2.294-.124-2.311-.125-4.677-.253-2.368-.128-43.621-2.611-5.135-.32L143 790c3.5-4.327 6.819-7.608 11.5-10.687l1.684-1.143L161 775l2.214-1.641c3.626-1.769 6.625-1.525 10.526-1.158z" fill="#fefcf2"/><path d="M826 841c2.404 2.404 2.948 4.394 3.277 7.75-.46 3.734-2.729 5.821-5.125 8.605-6.683 8.211-11.533 18.162-16.527 27.457l-1.263 2.314c-2.881 5.454-4.785 10.916-6.362 16.874 7.828-5.737 11.745-14.616 16.23-23.016l1.727-3.229 3.387-6.439c2.738-5.174 5.164-9.515 9.656-13.315 1.281 3.843 1.804 7.038 1 11-1.525 2.878-3.272 5.498-5.113 8.184-3.454 5.156-6.579 10.707-7.887 16.816 5.131-2.448 7.646-6.16 10.813-10.687l1.521-2.127L835 876l1 2c-1.599 4.251-3.703 8.292-5.687 12.375l-1.646 3.484-1.615 3.352-1.479 3.072c-1.59 2.749-3.153 4.669-5.572 6.717h-2c-.965 2.895-1.126 4.94-1.25 7.957-.563 6.6-2.92 11.807-5.75 17.73l-3.012 6.621-1.525 3.371c-5.742 13.031-10.387 26.433-14.156 40.155-2.071 7.497-4.389 14.899-6.807 22.291l-1.078 3.376c-2.42 7.311-5.505 13.869-9.422 20.499-4.954-9.229-4.403-19.921-4.375-30.125l.002-2.268c.045-13.507 1.274-26.427 4.373-39.607l.633-2.71c3.333-13.745 8.417-26.49 14.367-39.29l.958-2.06c11.258-24.19 22.989-48.136 35.042-71.94z" fill="#fefbee"/><path d="M827 748c3.069 3.069 3.18 5.942 3.48 10.191-1.058 8.385-6.24 15.648-10.48 22.809l-3.518 6.122-2.986 5.093c-1.259 2.344-2.039 4.188-2.496 6.785 6.72-4.993 11.137-11.064 15.801-17.891 1.64-2.319 3.099-4.233 5.199-6.109 2.291 3.58 2.65 6.879 2 11-1.481 4.39-3.359 8.586-5.25 12.813l-1.652 3.761-4.279 9.603-2.292 5.123c-6.695 14.964-13.926 29.634-21.298 44.272l-13.667 27.945L775 911h-1c-.356-17.102-.134-34.146.955-51.22l.31-5.401c.536-10.012.957-17.515 7.735-25.379a73.13 73.13 0 0 0 2.063-3.465l1.938-3.473c7.889-14.159 15.597-28.424 23.023-42.832l1.01-1.96 4.816-9.4c3.477-6.785 7.12-13.397 11.15-19.87z" fill="#fefbef"/><path d="M820 726l1 2-3.875 7.688-1.251 2.321c-2.956 5.436-6.064 10.765-9.288 16.045-3.289 5.398-6.411 10.883-9.524 16.384-3.631 6.409-7.357 12.724-11.312 18.938-7.874 12.467-13.849 24.353-17.75 38.625-4.94.795-9.763 1.184-14.77 1.238l-2.185.024-4.551.032-4.599.062c-17.867.343-17.867.343-24.896-4.357-2.309-2.57-3.014-3.357-2.937-6.875 5.001-16.669 27.75-27.069 41.597-35.297 10.906-6.495 20.845-13.403 30.34-21.828l1.82-1.603c5.899-5.227 11.573-10.55 16.641-16.604 1.599-1.863 3.286-3.575 5.039-5.293 3.716-3.649 7.118-7.542 10.5-11.5z" fill="#fefbf1"/><path d="M821 947c1.932 2.897 2.439 4.356 3.07 7.676l.527 2.76.527 2.877.551 2.842c1.281 6.835 2.178 12.489-.512 19.1l-1.212 3.046-1.327 3.262c-3.898 9.848-7.562 19.734-11 29.75l-1.224 3.551c-2.19 6.41-4.249 12.846-6.222 19.325l-7.45 23.237-1.937 5.976c-5.991 18.543-12.262 36.991-19.792 54.974l-1.191 2.879L771 1135h-1c-.8-23.495.458-45.112 6-68l.712-3.014c3.004-12.337 8.025-22.943 14.193-33.997 6.853-12.444 11.098-26.159 14.845-39.801 2.448-8.891 5.388-17.575 8.5-26.25l1.323-3.697c3.415-9.426 3.415-9.426 5.427-13.241z" fill="#fefaee"/><path d="M1408.813 1151.813l3.52.082 2.668.105c-1.558 3.583-3.726 6.212-6.312 9.125l-2.301 2.633c-5.046 4.74-10.653 4.732-17.262 5.242l-2.978.25-6.168.508-13.167 1.116-2.708.23-17.786 1.638-11.436 1.103-5.686.559c-11.11 1.107-22.025 1.885-33.195 1.595l4.219-4.914a195.22 195.22 0 0 0 3.563-4.297l1.781-2.164 1.629-2.023c2.215-1.961 3.91-2.255 6.809-2.602-1.875 4.75-1.875 4.75-3 7l1.469-1.531c6.157-5.967 6.157-5.967 11.031-5.906l3.5.438-1.242 1.426-1.633 1.887-1.617 1.863c-1.672 1.959-1.672 1.959-3.508 4.824l2.336-2.152 3.039-2.785 1.539-1.42c4.352-3.98 6.198-4.771 12.086-4.643l-1.242 1.426-1.633 1.887-1.617 1.863c-1.672 1.959-1.672 1.959-3.508 4.824 3.362 0 3.795-.343 6.285-2.371l1.857-1.49 1.92-1.576 3.785-3.059 1.688-1.381c3.145-2.412 5.583-2.208 9.465-2.123l-11 11c3.029-1.514 5.432-3.82 8-6 5.011-4.255 7.411-6.134 14.125-6.062l3.32.027 2.555.035c-3.804 3.919-7.816 7.491-12 11 4.784-2.944 8.704-6.402 12.754-10.293 4.496-3.417 9.626-2.837 15.059-2.77l2.1.014 5.088.049-7 7 1.793-1.207 2.395-1.605 2.355-1.582L1397 1155l2.375-1.687c3.326-1.663 5.74-1.612 9.438-1.5z" fill="#fdf9e5"/><path d="M1185 1170l-.289 1.898-.336 2.477-.352 2.461L1184 1179c3.006 3.006 5.824 2.596 10 3l-1.562 1.188c-1.652 1.749-1.652 1.749-1.687 4.25 1.74 3.567 3.788 4.224 7.37 5.727 5.782 1.678 11.722 1.425 17.693 1.336l2.061-.011c10.444-.064 20.389-1.107 30.548-3.614C1252 1190 1252 1190 1255 1190c-2.025 4.939-5.295 6.01-10 8-16.767 6.637-43.018 5.003-59.625-1.25-3.515-1.575-5.858-2.877-8.125-6-2.474-3.024-2.908-3.18-6.562-3.625L1167 1187c1.151-3.453 2.321-4.381 5.063-6.687l2.223-1.887L1176 1177l-8.75 6.688-2.422 1.887L1163 1187l-2-1c13.419-16 13.419-16 24-16z" fill="#fcf6e0"/><path d="M887 1173c2.561 4.332 3.277 9.278 4.236 14.156 1.102 4.903 2.52 7.15 6.764 9.844-1.527 3.436-3.599 6.119-6 9l3.438-2.937 1.934-1.652c.899-.778 1.788-1.57 2.629-2.41 4.436-.688 8.911-1.092 13.375-1.562l3.754-.42c7.323-.783 14.507-1.214 21.871-1.018-3.912 3.39-8.14 5.945-12.598 8.535-2.418 1.406-2.418 1.406-4.508 3.137-2.646 1.855-4.746 1.543-7.895 1.328 1.527-3.054 4.036-3.66 7.063-5.125l3.348-1.633L927 1201c-5.567-.206-10.461.35-15.898 1.563C909 1203 909 1203 907 1203l-3 1 .188 2.375L904 1209c-3.228 2.152-4.284 2.201-8 2 1.449-3.38 3.373-5.459 6-8l-2.117 1.715-2.758 2.223-2.742 2.215c-3.462 2.685-5.186 2.966-9.508 2.91l-2.758-.027L880 1212l-2.062-6.375-1.16-3.586C876 1199 876 1199 877 1197l2 1v-3l3-1c1.219-2.504 1.219-2.504 2-5l4 1 1-9h-2v-8z" fill="#fbf3d1"/><path d="M1474 1104c3.262 2.756 5.008 6.373 6.977 10.082l1.123 2.096 2.335 4.39 3.581 6.676 2.273 4.275 1.083 1.999c1.563 2.982 2.629 5.486 3.173 8.824L1495 1145l3 2c-.38 2.392-.656 3.68-2.455 5.356l-6.107 3.831-2.096 1.365c-6.694 4.161-12.493 4.608-20.342 4.51l-2.875-.027L1462 1162v-2c1.652-1.262 1.652-1.262 3.938-2.687 4.296-2.753 8.261-5.77 12.215-8.992C1480 1147 1480 1147 1482 1147l-.477-2.492c-.473-3.172-.691-6.269-.814-9.471-.403-10.3-1.642-19.866-6.709-29.036v-2z" fill="#fcf7e4"/><path d="M1408.813 1151.813l3.52.082 2.668.105c-1.558 3.583-3.726 6.212-6.312 9.125l-2.301 2.633c-3.698 3.474-7.395 4.44-12.371 4.875l-2.836.254-2.93.238-2.883.262c-5.812.502-11.535.697-17.367.613l-1-3 6.875-5 1.973-1.445c4.926-3.555 4.926-3.555 7.152-3.555l1-2c3.565-1.371 7.234-1.072 11-1l-7 7 1.793-1.207 2.395-1.605 2.355-1.582L1397 1155l2.375-1.687c3.326-1.663 5.74-1.612 9.438-1.5z" fill="#fdfaeb"/><path d="M1460 1148c-3.521 3.612-7.183 6.962-11.062 10.188l-1.564 1.326c-5.366 4.477-9.034 5.788-15.982 6.119l-2.202.126-6.938.366-4.715.262L1406 1167c1.894-4.099 4.615-7.054 7.75-10.25l1.555-1.68c2.805-2.861 3.971-3.994 8.086-4.43l2.609.359-2.25 2.188c-2.445 2.501-4.591 5.068-6.75 7.813l2.816-2.406 3.746-3.094 1.846-1.59c3.42-2.787 5.019-3.861 9.557-4.254l3.035.344c-2.873 3.511-5.761 6.816-9 10l2.887-2.406 3.801-3.094 1.896-1.59c4.754-3.833 4.754-3.833 8.373-4.254l2.043.344c-3.804 3.919-7.816 7.491-12 11 3.241-1.62 6.07-3.882 9-6 8.496-6.141 8.496-6.141 15-6z" fill="#fcf5dc"/><path d="M1126 1105c22.06 2.552 43.751 9.471 63.938 18.625l2.328 1.016c5.257 2.516 7.354 5.026 9.735 10.359v2h-3l-1 5-4-1h3c.122-2.341.122-2.341-1-5-4.801-4.274-11.122-6.34-17-8.684-2.828-1.241-5.282-2.649-7.875-4.316-18.223-11.245-41.312-12.606-62.125-14v-1l18-1-1-2z" fill="#fcf7e1"/><path d="M805 562h2c1.158 3.473 1.069 6.361 1 10l-1.626.759C789.195 580.803 772.256 589.201 756 599l-2-4-5 1c2.339-2.585 4.76-4.128 7.813-5.793l2.973-1.638 3.215-1.757c9.758-5.394 19.413-10.933 29-16.625l1.811-1.072c5.914-3.129 5.914-3.129 11.189-7.115z" fill="#fcf6e1"/><path d="M1058.188 1184.813l2.813.188c-2.634 5.268-6.059 9.769-11 13-5.57 1.414-11.091 1.713-16.812 2l-4.525.324c-7.885.554-15.757.83-23.662.676 1.733-3.779 4.022-6.097 7-9l2-3c3.125-.187 3.125-.187 6 0l-.937 1.813c-1.165 2.277-1.165 2.277-2.062 5.188l1.391-1.496 1.859-1.941 1.828-1.934c2.022-1.714 3.335-2.222 5.922-2.629a56.54 56.54 0 0 1-4 7l1.68-1.531 2.195-1.969 2.18-1.969C1032 1188 1032 1188 1034 1188a56.54 56.54 0 0 1-4 7l2.313-2.312L1035 1190l1.5-1.812c2.145-1.698 3.85-1.402 6.5-1.187l-1 1.875c-1.142 2.035-1.142 2.035-1 4.125l6-6 3 1-5 6 3.313-2.812 1.863-1.582c1.837-1.556 1.837-1.556 3.355-3.293 1.469-1.312 1.469-1.312 4.656-1.5z" fill="#fcf7e0"/><path d="M1257.422 1163.609l3.105.039 3.223.102 3.27.055 7.98.195c-6.906 14.015-6.906 14.015-11.168 16.02-2.207.543-2.207.543-5.832.98.763-3.483 2.154-5.951 4-9v-2l-1.512 2.738c-5.545 9.359-5.545 9.359-10.559 11.688-3.305.713-6.576 1.159-9.93 1.574l-5.875 1.688c-7.043 1.813-13.901 1.579-21.125 1.313v-2l2.567-.32 9.494-1.225 4.097-.521 5.913-.767 3.586-.46c3.736-.791 7.569-1.934 10.343-4.708.14-3.09.103-5.64-.75-8.625-.25-2.375-.25-2.375 1.396-4.499 2.861-2.279 4.165-2.347 7.776-2.267z" fill="#fcf6e2"/><path d="M1002 1190c-1.485 3.534-3.47 5.641-6.312 8.188l-2.301 2.105c-2.54 1.817-4.315 2.343-7.387 2.707l-1-2-2 3c-1.875.293-1.875.293-4 .188l-2.125-.082L975 1204h-2-6l2.375-2.312c2.698-2.596 2.698-2.596 4.625-5.687-6.227 2.169-11.31 4.609-16.406 8.828C956 1206 956 1206 954 1206c2.55-6.171 8.653-9.646 14.25-12.875 4.168-1.705 8.178-2.242 12.656-2.441l2.754-.127 2.84-.119 2.84-.131c4.225-.189 8.43-.329 12.66-.307z" fill="#b0831e"/><path d="M941.688 1171.938l3.318.014L953 1172v1l-15 2 5.668.113 7.52.199 3.717.068c8.362.243 16.024 1.423 24.096 3.619v1l-21.088 2.563-7.173.873-10.314 1.251-3.236.398-3.032.364-2.658.323c-2.515.229-4.976.268-7.499.228l1-2c2.317-.594 2.317-.594 5.348-1.07l3.271-.527 3.443-.527 3.455-.551L949 1180l-17-1v-3l-15-1 1-2c7.693-1.54 15.879-1.125 23.688-1.062z" fill="#b79852"/><path d="M169 583c6.231-.088 12.252.247 18.445.879 17.457 1.633 34.988 2.191 52.5 2.934l11.849.512L364 592v1l-20.123.055-6.841.021-9.852.022-3.072.016A99.79 99.79 0 0 1 309 592c-3.254-.18-6.507-.231-9.766-.281l-2.773-.056-11.675-.215-8.552-.167-2.67-.041-2.479-.051-2.177-.038C267 591 267 591 264 590c-2.962-.143-5.904-.234-8.867-.281l-2.642-.056-8.366-.163-10.992-.219-2.545-.041c-4.009-.085-7.656-.413-11.588-1.24-2.386-.134-4.775-.224-7.164-.281l-2.042-.056-8.598-.215-6.298-.167-3.792-.092C188 587 188 587 185 586l-8.187-1.062-2.271-.275L169 584v-1z" fill="#fdf8da"/><path d="M887 1173c2.405 3.904 2.853 8.115 3.563 12.563.912 5.788.912 5.788 2.438 11.438h-5l5 2-1.5 2.25c-1.819 2.813-1.819 2.813-1.5 6.75h2v3c-2.525 1.262-4.312 1.099-7.125 1.063l-2.758-.027L880 1212l-2.062-6.375-1.16-3.586C876 1199 876 1199 877 1197l2 1v-3l3-1c1.219-2.504 1.219-2.504 2-5l4 1 1-9h-2v-8z" fill="#fcf6de"/><path d="M806 546c.441 3.184.441 3.184 0 7a37.96 37.96 0 0 1-7.062 5.063l-2.262 1.374-4.962 2.96-8.612 5.213L756 584v-3l-4-1 2.009-1.079c17.265-9.324 33.276-19.405 48.459-31.847C804 546 804 546 806 546z" fill="#fcf5d9"/><path d="M488 937c13.299-.362 26.274.615 39.494 2.022l17.01 1.747 3.346.339c8.127.814 16.247 1.465 24.4 1.954 12.928.785 25.782 2.11 38.659 3.468l4.899.516 2.399.253L648 950v1l-11.937.063-3.443.025-3.271.01-3.031.016C624 951 624 951 623 950c-1.378-.144-2.764-.227-4.148-.281l-2.547-.113-2.68-.105-5.211-.219-2.345-.092C604 949 604 949 601 948c-1.379-.162-2.763-.282-4.148-.373l-2.518-.172-2.708-.174-2.791-.19L580 946.5l-11.625-.781-2.708-.174-2.518-.172-2.213-.146C559 945 559 945 556 944a100 100 0 0 0-4.852-.281l-2.828-.113-5.914-.211-2.82-.113-2.592-.092C535 943 535 943 534 942c-1.463-.145-2.933-.227-4.402-.281l-2.697-.113-2.838-.105-5.527-.219-2.488-.092C514 941 514 941 512 940a86.79 86.79 0 0 0-4.684-.246l-2.811-.1-5.875-.172-2.814-.104-2.58-.076C491 939 491 939 488 937z" fill="#faf3d2"/><path d="M451 805c11.596.682 23.091 1.968 34.625 3.313l8.728 1.004 5.906.68 29.491 3.316 4.682.519L545 815v1c-9.371.16-18.495-.301-27.812-1.25-18.238-1.77-36.525-2.834-54.812-3.937l-2.27-.137L432 809v-1l23-1-4-2z" fill="#fbf5d6"/><path d="M275 798c10.763-.133 21.511.045 32.269.373l4.204.124 5.988.187 3.525.111c3.014.205 3.014.205 4.965.708 3.111.756 6.173.705 9.369.779l2.121.056 8.956.215 6.548.167 3.954.092C360 801 360 801 362 802c4.026.494 8.08.718 12.125 1l3.71.265c11.364.767 22.731 1.141 34.116 1.393l3.935.096 3.507.073C422 805 422 805 423 806c1.515.232 3.038.412 4.563.563l2.504.254L432 807v1c-13.671.366-27.221-.57-40.852-1.514l-18.691-1.216-52.014-3.566c-15.126-1.198-30.291-1.908-45.443-2.704v-1z" fill="#f5ebc4"/><path d="M976 1178h4l-1 4 17 1v1l-18.237 1.654-6.179.562c-12.854 1.175-25.69 2.178-38.584 2.784l2-2-6-1v-1l3.776-.443 13.894-1.638 6.009-.707 8.646-1.02 2.706-.316c4.03-.48 8.005-.985 11.97-1.876v-1z" fill="#fef9e1"/><path d="M639 502l61 .438 2.436.06 6.877.187 3.926.111 9.725.976c3.499.394 6.999.445 10.517.511l2.351.056 9.85.215 7.237.167 2.232.041c3.74.09 7.199.452 10.85 1.24a138.73 138.73 0 0 0 5.301.316l2.959.127 3.053.119 3.111.131L788 507v1c-23.663.495-47.168-.499-70.793-1.786l-54.394-2.402-3.679-.129L639 503v-1z" fill="#f4e8c0"/><path d="M1313 1113l-6.211 2.066-5.953 2.023-3.211 1.098-3.023 1.043c-2.602.77-2.602.77-5.602.77v2l18-1-2 2h-4v2c-2.706 1.692-5.066 2.215-8.187 2.563-3.594.012-3.594.012-4.812 1.438a153.02 153.02 0 0 1-6.562.063l-3.629-.027L1275 1129v-3h-3v-2c34.01-13.632 34.01-13.632 41-11z" fill="#f8f0cf"/><path d="M1365 1039l-2.237.851c-37.51 14.334-72.771 31.592-100.763 61.149l-2-1c9.446-9.807 18.945-19.026 30-27l1.662-1.223c18.564-13.536 39.787-23.094 61.338-30.777l2.547-.94 2.422-.864 2.139-.773C1362 1038 1362 1038 1365 1039z" fill="#ae8f48"/><path d="M1301.5 1161.438l3.5.563c-1.625 3.888-4.168 6.604-7 9.688l-2.687 2.949c-2.766 2.827-3.417 3.334-7.352 3.461l-3.586-.035-3.602-.027L1278 1178c2.135-3.941 4.392-7.747 6.938-11.437l1.402-2.059c1.66-1.504 1.66-1.504 4.352-1.727l2.309.223-4 8 1.469-1.969c6.157-7.672 6.157-7.672 11.031-7.594z" fill="#fcf6df"/><path d="M826 841c2.404 2.404 2.948 4.394 3.277 7.75-.46 3.734-2.729 5.821-5.125 8.605-6.683 8.211-11.533 18.162-16.527 27.457l-1.263 2.314c-2.881 5.454-4.785 10.916-6.362 16.874l-3-2c1.407-4.543 3.218-8.771 5.309-13.031l.979-2.016 3.15-6.453 2.164-4.443L826 841z" fill="#fcf5d9"/><path d="M565 603l12.688-.062 3.572-.025 3.564-.01 3.221-.016 9.838.588c7.273.584 14.539.8 21.831.971l7.188.177 15.285.377 17.697.44 6.974.168c10.394.256 20.762.763 31.141 1.393v1c-18.014.085-36.024-.137-54.036-.372l-12.861-.154-9.975-.126-4.749-.056-6.58-.086-3.772-.047C603 607 603 607 600 606c-2.656-.153-5.291-.257-7.949-.316l-2.341-.063-7.397-.183-5.018-.131L565 605v-2z" fill="#f9f1ce"/><path d="M337 506c14.309-.303 28.44.481 42.711 1.492 17.753 1.257 35.525 1.717 53.314 2.115 10.674.249 21.318.738 31.975 1.392v1c-19.257.114-38.498.032-57.75-.437l-2.602-.06-7.382-.187-2.18-.051c-3.415-.099-6.755-.318-10.142-.77-3.798-.477-7.478-.667-11.303-.742l-4.133-.1-6.37-.131c-8.861-.172-17.422-.75-26.138-2.523v-1z" fill="#f6ecc7"/><path d="M605 837c8.851-.143 17.625.421 26.449 1.023l4.824.32 10.173.679 26.172 1.731 2.583.169L731 844v1l-16.815.055-5.718.021-8.229.022-2.573.016c-4.057 0-7.689-.245-11.665-1.113-2.228-.133-4.46-.223-6.691-.281l-3.861-.113-6.03-.158-5.859-.167-3.522-.092c-2.55-.159-4.587-.57-7.037-1.189a163.91 163.91 0 0 0-6.191-.281l-3.611-.113-7.531-.211-3.607-.113-3.303-.092C626 841 626 841 623 840c-1.406-.21-2.817-.385-4.23-.535l-2.432-.264-2.525-.264-2.561-.275L605 838v-1z" fill="#fcf5d5"/><path d="M1349 1150v1c-5.081.808-10.089 1.198-15.23 1.402-8.006.372-15.968 1.024-23.945 1.789l-3.482.334-14.258 1.394c-33.607 3.306-33.607 3.306-46.039-.206-5.534-1.295-11.134-1.288-16.795-1.4l-3.594-.104L1217 1154l-1-2 13.617.372 4.636.125 6.65.186 2.105.051c4.878.152 4.878.152 5.992 1.266 1.515.232 3.038.412 4.563.563l2.504.254 1.934.184v2l1.622-.418c5.784-1.399 11.317-1.953 17.253-2.145l4.992-.191 2.191-.073c2.159-.118 2.159-.118 4.942-1.174 1.846-.082 3.695-.107 5.543-.098l3.252.01 3.393.025 3.428.014 8.385.049v-2l12.375-.5 3.504-.145c6.712-.265 13.404-.425 20.121-.355z" fill="#fbf4d3"/><path d="M1076.125 1027.75l3.413-.027c6.72.024 12.935.664 19.462 2.277v1l-2.68-.032c-21.22-.3-21.22-.3-42.382 1.032-20.555 2.149-41.478.811-61.937-2v-1l9.5-.062 2.688-.025c4.673-.017 9.143.2 13.766.854 4.086.466 8.189.424 12.297.421l2.925.002c6.234-.045 12.325-.456 18.512-1.189 8.153-.951 16.23-1.223 24.438-1.25z" fill="#b49755"/><path d="M969 897c6.93.544 13.503 1.978 20.255 3.579 22.541 5.337 38.807 5.304 60.964-1.579 6.579-1.966 12.908-2.817 19.781-2l3 2-2.402-.027c-12.203.31-23.351 3.751-34.973 7.287-14.55 4.104-29.371 1.788-43.701-1.995l-7.435-1.89-4.77-1.211-2.225-.565c-3.279-.869-5.643-1.698-8.494-3.599z" fill="#ae8f48"/><path d="M818 680l1 7-8.062 5.75-2.279 1.633C804.225 697.53 799.77 700.39 795 703l-2-7 9.717-6.836 3.306-2.328 4.751-3.336 2.888-2.031C816 680 816 680 818 680z" fill="#fcf6e1"/><path d="M1365 1037l3 1c-1 3-1 3-2.692 3.992l-2.226.883-2.521 1.031-2.748 1.094c-9.085 3.739-17.867 7.899-26.614 12.369l-2.636 1.346-2.309 1.191c-2.378 1.154-4.79 2.14-7.254 3.094v-3l-3-1c12.521-5.943 25.032-11.838 38-16.75l2.675-1.014c6.034-2.236 6.034-2.236 8.325-2.236v-2z" fill="#fbf3d5"/><path d="M1497 1146l1 4-8 5.438-2.254 1.564c-6.946 4.62-12.428 5.165-20.746 5.061l-2.875-.027L1462 1162v-2c1.863-1.508 1.863-1.508 4.313-3.125l2.426-1.633C1471 1154 1471 1154 1474 1154c-2.111 3.166-3.735 4.196-7 6h8l.207-1.777c1.906-5.342 9.419-8.419 14.105-11.16 2.784-1.101 4.724-1.324 7.688-1.062z" fill="#fdf8e1"/><path d="M1353 979c-3.667 2.445-7.433 3.381-11.625 4.563-8.061 2.326-15.895 5.059-23.75 8-12.459 4.62-25.051 7.65-38.098 10.086-7.199 1.492-12.939 4.536-19.187 8.304-5.067 3.048-5.067 3.048-8.34 3.048l4.25-3.125 2.391-1.758c8.833-5.567 17.114-8.89 27.359-10.742 15.534-3.111 30.269-8.237 45.214-13.399 15.817-5.447 15.817-5.447 21.786-4.976z" fill="#ac8d46"/><path d="M549 704c20.233-.227 40.318.314 60.324 3.535 4.497.569 8.961.735 13.488.902 6.089.26 11.876.654 17.816 2.094 4.118.814 8.302.923 12.488 1.125 2.821.336 4.422 1.02 6.883 2.344-13.925-.633-27.788-1.793-41.67-3.042l-18.881-1.681-3.756-.334-32.255-2.756-2.308-.191L549 705v-1z" fill="#f2e6bd"/><path d="M1319 1060c-.031 2.195-.031 2.195-1 5-2.291 1.972-4.877 3.389-7.5 4.875l-4.383 2.609-2.146 1.283c-3.339 2.087-6.357 4.528-9.37 7.053C1293 1082 1293 1082 1291 1082c-.84-2.353-1.156-3.573-.287-5.957 1.546-2.455 3.034-3.469 5.498-4.989l2.523-1.574 2.641-1.605 2.617-1.629C1314.086 1060 1314.086 1060 1319 1060z" fill="#fdf8e5"/><path d="M1298 871v1l-1.737.256c-11.825 1.811-21.262 3.882-31.263 10.744l-6.937 4.125-1.787 1.032c-4.795 2.704-9.687 4.691-14.849 6.57-9.639 3.583-19.019 7.6-27.605 13.305L1212 909l-2-1c11.359-8.005 23.273-13.336 36.246-18.223 6.402-2.478 11.969-5.689 17.754-9.34 11.341-7.099 20.446-10.224 34-9.437z" fill="#ae8f49"/><path d="M1126 1105c5.742.639 11.304 1.603 16.938 2.875l2.382.532c5.356 1.223 10.522 2.683 15.68 4.593l-3 1v2l4 1-2 1-5.73-2.167c-3.698-1.356-7.475-2.132-11.333-2.895l-2.558-.513c-10.369-1.96-20.863-2.721-31.38-3.425v-1l18-1-1-2z" fill="#f9f0d1"/><path d="M1002 1209c-3.407 2.271-5.103 2.335-9.125 2.563-3.754-.099-3.754-.099-6.875 1.438l-4.988.281-3.08.113-3.244.105-6.301.219-2.837.092c-2.32.172-4.309.603-6.55 1.189l-8.437.5c-5.54.215-5.54.215-11.016.996-3.925.776-7.869.882-11.859 1.066l-2.653.129c-8.016.361-16.011.41-24.034.309v-1l59.11-5.171 10.005-.862 11.393-.978 3.459-.303c5.703-.482 11.31-.795 17.033-.686z" fill="#f6ebc5"/><path d="M1312 1100l-2 2h-3l1 3c-7.396 2.886-14.938 5.279-22.5 7.688l-3.937 1.26L1272 1117v-2l7.313-3 2.092-.867c3.011-1.222 5.315-2.133 8.596-2.133v-2h2v-2l-10 1c3.912-2.608 7.63-3.186 12.188-4.125l2.502-.551c5.213-1.093 9.986-1.508 15.311-1.324z" fill="#f7efce"/><path d="M1326 917l2 1-3.875 2.375-2.18 1.336c-6.838 2.993-14.392 3.512-21.75 4.277-9.831 1.04-18.476 2.108-27.196 7.012l-2.437 1.34c-3.835 2.219-7.531 4.636-11.227 7.078l-1.922 1.261-3.769 2.514c-1.51.997-3.074 1.91-4.645 2.808l-2-1c19.528-14.117 34.764-22.786 59.18-24.786 6.547-.593 11.937-1.68 17.905-4.489L1326 917z" fill="#ae8e48"/><path d="M989 956c13.09-.35 25.923.125 38.938 1.5 14.616 1.524 27.767 2.827 42.172-.941 2.796-.54 4.256-.524 6.891.441l-5.562 1.938-3.129 1.09c-15.387 4.523-32.22 1.488-47.82-.227-7.092-.776-14.19-1.412-21.301-1.988l-3.127-.253L989 957v-1z" fill="#b0914a"/><path d="M989 1192c-3.36 4.11-6.603 7.946-11 11h-2a56.54 56.54 0 0 1 4-7l-1.574 1.496-2.113 1.941-2.074 1.934c-2.461 1.791-4.246 2.257-7.238 2.629l2.375-2.312c2.698-2.596 2.698-2.596 4.625-5.687-6.227 2.169-11.31 4.609-16.406 8.828C956 1206 956 1206 954 1206c1.464-3.592 3.351-5.324 6.438-7.625l2.371-1.789c7.773-5.625 16.851-4.768 26.191-4.586z" fill="#fbf2cd"/><path d="M357 1123l11.798-.055 5.985-.033 3.799-.01 3.507-.016C385 1123 385 1123 388 1124l5.219.281 3.074.113 3.207.105 6.281.219 2.814.092C411 1125 411 1125 414 1126l5.254.465 3.088.236 6.453.461 3.084.24 2.83.203C437 1128 437 1128 439 1130c-15.114-.621-30.187-1.595-45.271-2.729l-10.944-.81-7.027-.523-3.27-.24c-5.201-.394-10.336-.875-15.488-1.698v-1z" fill="#f3e8c1"/><path d="M1474 1147c-3.002 3.174-6.198 5.713-9.75 8.25l-2.984 2.141L1459 1159l3-1c-1 3-1 3-2.937 4.125-4.303 1.229-8.611 1.547-13.062 1.875 2.257-5.599 7.348-8.451 12-12l1.898-1.629c4.631-3.816 8.392-3.954 14.102-3.371z" fill="#fcf4d6"/><path d="M1299 1108c-1 3-1 3-3 4l10 1c-3.79 1.895-7.034 2.858-11.125 3.875-5.538 1.41-10.768 3.104-16.02 5.391-1.855.734-1.855.734-3.855.734v-2h3l1-4-3-2 10.375-3.5 2.984-1.012 2.852-.957 2.634-.889C1297 1108 1297 1108 1299 1108z" fill="#fdf9e6"/><path d="M1083.813 1182.625l2.188.375c-7.269 11.308-7.269 11.308-11.187 12.875-4.273.19-8.536.2-12.812.125 7.812-9.315 7.812-9.315 11-12 2.313.188 2.313.188 4 1l-1 4 2.188-3c2.422-2.948 2.422-2.948 5.625-3.375z" fill="#fef9e5"/><path d="M1245 1193h4v2h-3l-1 3c-5.107.841-10.063 1.147-15.242 1.133l-2.327.003a1605.36 1605.36 0 0 1-4.846-.005 1530.26 1530.26 0 0 0-7.339.006l-4.738-.004-2.179.006c-10.619-.048-10.619-.048-15.329-1.139l-1-2c4.171-.834 7.734-1.021 11.969-.562 6.234.614 12.46.891 18.719 1.125l3.318.131 7.994.307v-2l2.152-.184 2.785-.254 2.777-.246c2.247-.077 2.247-.077 3.285-1.316z" fill="#fefcf5"/><path d="M313 772l27 1v2h17v2l3.191.184 9.063.535 8.898.5c6.833.388 13.231 1.049 19.848 2.781l5.063 1.125L407 783c-3.529 1.165-6.361.89-10.024.427l-3.698-.456-4.008-.517-4.175-.521-11.043-1.397-10.944-1.379-12.832-1.614L313 773v-1z" fill="#f1e3b6"/><path d="M1239 1174l2 2c-3.026 2.017-4.34 2.383-7.832 2.852l-2.902.391-3.078.382-3.123.4c-7.738.937-15.268 1.34-23.064.975 3.303-3.303 7.786-3.614 12.25-4.625l2.999-.68c7.549-1.621 15.026-2.849 22.751-1.695z" fill="#fcf8e1"/><path d="M984 955l16.76-.11 5.697-.041 8.207-.044 2.558-.031c4.667-.001 8.387.431 12.778 2.227v1l-3.445-.219c-9.539-.582-18.996-.891-28.555-.781l2.367.168 10.695.77 3.725.264c5.775.42 11.498.856 17.213 1.799v1l-9.25.063-2.645.025-2.559.01-2.349.016c-2.205-.114-4.062-.58-6.198-1.114-1.805-.144-3.613-.246-5.422-.316l-3.105-.127-3.223-.119-3.27-.131L986 959l-2-4z" fill="#fbf4d3"/><path d="M1426 1151l-2.25 2.188c-2.443 2.498-4.618 5.049-6.75 7.813l2.75-1.437c2.514-1.209 4.546-2.042 7.25-2.562v2h-2l-.375 2.438L1424 1164c-3.165 1.583-6.646 1.657-10.125 2.063l-2.285.275-5.59.662c1.66-4.169 4.661-7.101 7.75-10.25l1.555-1.68c3.482-3.552 5.492-4.787 10.695-4.07z" fill="#fef9e1"/><path d="M467 581l17.493-.11 5.929-.041c10.646-.092 20.908.117 31.456 1.639 8.476 1.148 17.086 1.269 25.623 1.637l5.707.262L567 585v1c-12.303.125-24.531-.252-36.816-.875l-5.51-.269-14.317-.71-14.683-.724L467 582v-1z" fill="#f8eec8"/><path d="M216 760l11.938.438 3.443.119 3.271.127 3.031.111C240 761 240 761 241 762l9.834.518 2.115.104 1.917.076c2.134.303 2.134.303 5.001 1.292 3.213 1.037 5.946 1.379 9.309 1.574l3.51.227 3.627.211c7.771.456 15.135 1.057 22.688 3v1c-8.35.197-16.369-.348-24.641-1.461l-3.533-.456-11.076-1.458-7.379-.961-14.088-1.843L216 761v-1z" fill="#f9f0cc"/><path d="M573 586c13.404-.132 26.789.067 40.188.438l2.276.06c7.653.203 15.259.494 22.88 1.264 5.104.458 10.224.61 15.344.801l3.318.131L665 589v1c-30.773.515-61.299-.949-92-3v-1z" fill="#f7ebc3"/><path d="M1388 1154l-1.937.313-2.062.688-1 3-5 2-4.687 3.625c-4.098 3.375-4.098 3.375-6.312 3.375l1 3-11 1 1-5 3 1c2.723-1.784 2.723-1.784 5.5-4.25l2.906-2.453 4.301-4.051c3.494-3.367 9.794-2.322 14.293-2.246z" fill="#fcf6db"/><path d="M1267 1164h8c-6.347 13.753-6.347 13.753-11.168 16.02-2.207.543-2.207.543-5.832.98.554-2.5 1.091-4.151 2.438-6.375 1.668-2.801 2.622-5.513 3.563-8.625h3v-2z" fill="#fcf8e4"/><path d="M941.688 1171.938l3.318.014L953 1172v1l-15 2c2.64 2.64 3.979 2.302 7.664 2.414l3.398.117 3.563.094 3.586.117L965 1178v1c-7.286 1.034-14.224.947-21.562.563l-3.346-.158L932 1179v-3l-15-1 1-2c7.693-1.54 15.879-1.125 23.688-1.062z" fill="#c2a562"/><path d="M257 999l7.313-.062 2.033-.025c4.952-.023 9.795.353 14.721.836 6.239.535 12.506.655 18.763.857l3.111.113 2.803.092C308 1001 308 1001 310 1002c1.373.15 2.753.248 4.133.316l2.441.127 2.551.119 2.574.131L328 1003v2h6v1c-13.233-.424-26.334-1.459-39.501-2.836-12.483-1.297-24.982-2.273-37.499-3.164v-1z" fill="#f6ebc5"/><path d="M467 827c8.511-.199 16.937.427 25.414 1.094l4.396.336 11.471.888 11.746.905L543 832v1l-11.75.063-3.367.025-3.242.01-2.983.016c-2.416-.103-4.331-.524-6.657-1.114-1.977-.135-3.957-.224-5.937-.281l-3.461-.113L502 831.5l-7.062-.219-3.16-.092c-2.422-.165-4.447-.569-6.777-1.189-1.367-.139-2.737-.244-4.109-.316l-2.285-.127-2.355-.119-2.402-.131L468 829l-1-2z" fill="#fcf4d4"/><path d="M652 951c15.277.664 30.519 1.609 45.771 2.698L738 956v1c-15.844.29-31.613-.131-47.437-.875l-2.69-.119c-17.409-.782-17.409-.782-25.697-2.547-3.368-.71-6.758-1.072-10.176-1.459v-1z" fill="#f9f0cb"/><path d="M883 1109l2 1 1.367 6.176.74 3.921.768 4.215 1.195 6.397.794 4.264 2.417 12.218.567 2.7 1.034 4.778c1.087 5.194 1.254 10.022 1.118 15.331-2.269-3.403-2.874-6.46-3.621-10.395l-.438-2.231-1.378-7.187-.472-2.453c-2.475-12.859-4.585-25.723-6.09-38.735z" fill="#ecd590"/><path d="M976 1178h4l-1 4 17 1v1l-14.197 1.282-4.824.437-6.956.625-2.16.199c-3.968.35-7.88.523-11.864.457 2.587-2.587 3.969-2.342 7.563-2.562 3.532.065 3.532.065 6.438-1.437h-16v-1l22-3v-1z" fill="#fbf4d6"/><path d="M1282.375 1162.563l2.625.438c-.553 4.155-2.853 6.55-5.5 9.688l-2.469 2.949C1275 1178 1275 1178 1274 1179c-2 .041-4 .043-6 0 8-15.611 8-15.611 14.375-16.437z" fill="#fcf6dd"/><path d="M103 686h37v1h-36l-.437 9.25L102 728c-2.489-4.417-2.332-8.156-2.312-13.125l-.049-2.379c-.007-9.212 1.79-17.07 3.361-26.496z" fill="#f5eac4"/><path d="M1185 1170l-.375 4.438-.211 2.496L1184 1179l-2 1-1-7-.687 2.25c-1.557 3.261-3.398 4.679-6.312 6.75l-2-1 4-5-2.012 1.898-2.676 2.477-2.637 2.461c-2.539 2.054-4.596 3.154-7.676 4.164 3.85-7.701 10.066-13.128 17.922-16.406C1181 1170 1181 1170 1185 1170z" fill="#f9f0cb"/><path d="M357 490c13.072-.126 26.122.052 39.188.438l2.131.06c20.067.569 20.067.569 24.681 1.503l1 2c-14.21.292-28.323-.617-42.5-1.5l-7.152-.434L357 491v-1z" fill="#f9efcc"/><path d="M86 686h1l-.219 2.375c-.717 9.244-.918 18.48-.958 27.748l-.031 4.205c-.079 8.742.423 17.09 2.208 25.672l-3-1c-2.223-8.201-2.277-16.319-2.206-24.744l.02-6.838c.038-11.122.038-11.122 1.186-13.418.316-3.373.511-6.747.719-10.129C85 687 85 687 86 686z" fill="#f9f1cf"/><path d="M1117 1180c-1.426 3.157-3.163 5.58-5.437 8.188l-1.809 2.105C1108 1192 1108 1192 1105 1193l4-9-2.082 2.188-2.73 2.813-2.707 2.813C1099 1194 1099 1194 1096 1194c1.964-5.673 5.217-9.415 10-13 3.662-1.223 7.163-1 11-1z" fill="#f9f0cb"/><path d="M1089 1182h2l-1 2.375c-1.119 2.468-1.119 2.468-1 4.625l1.207-1.531 1.605-1.969 1.582-1.969C1095 1182 1095 1182 1098 1182a33.37 33.37 0 0 1-7 12c-3.473 1.158-6.361 1.069-10 1 .612-3.654 2.166-5.86 4.438-8.75l1.871-2.422L1089 1182z" fill="#f5eac4"/><path d="M1438 1150a64.33 64.33 0 0 1-11 11l1 3h11v1c-9.011.633-17.96 1.172-27 1v-1l2.117-.184 2.758-.254 2.742-.246c2.394-.186 2.394-.186 4.383-1.316.652-2.025.652-2.025 1-4h2v-2l-2.375 1.563L1422 1160l-2-1 5.063-4.5 2.848-2.531c3.665-2.335 5.825-2.352 10.09-1.969z" fill="#fef8df"/><path d="M578 944c5.574-.081 10.966.196 16.504.805l2.404.253 5.055.538 13.107 1.381 2.599.272L648 950v1l-11.937.063-3.443.025-3.271.01-3.031.016C624 951 624 951 623 950c-1.378-.144-2.764-.227-4.148-.281l-2.547-.113-2.68-.105-5.211-.219-2.345-.092C604 949 604 949 601 948a92.62 92.62 0 0 0-4.055-.5l-2.363-.25-2.457-.25c-9.698-.996-9.698-.996-14.125-2v-1z" fill="#f1e3b7"/><path d="M1255 1190c-1.451 3.825-3.382 5.191-7 7h-2v-2h3v-2l-1.875 1c-4.387 1.404-8.557 1.16-13.125 1v2l-11.875.125-3.418.051-3.262.02-3.015.032C1210 1197 1210 1197 1208 1195l1.886-.028c13.1-.245 25.503-1.217 38.29-4.132 3.824-.84 3.824-.84 6.824-.84z" fill="#f3e6bd"/><path d="M726 505l14.679-.055 4.99-.021 7.186-.022 2.242-.016c3.782 0 7.217.298 10.903 1.113a138.73 138.73 0 0 0 5.301.316l2.959.127 3.053.119 3.111.131L788 507v1c-34.667.19-34.667.19-46.75-.437l-2.298-.119c-4.366-.261-8.636-.771-12.952-1.444v-1z" fill="#eddfb4"/><path d="M231 1133c14.835-.348 29.632.682 44.438 1.5l8.033.434L303 1136v1l-14.624.055-4.97.021-7.164.022-2.226.016c-4.128 0-7.96-.387-12.016-1.113l-7.367-.535-2.059-.13-6.448-.397-4.398-.275L231 1134v-1z" fill="#faf1ce"/><path d="M1032 1188h2a56.54 56.54 0 0 1-4 7l2 1-1 2h8v1l-10.812 1-3.045.289A186.4 186.4 0 0 1 1005 1201l2-4h2v2l5.938-.375 3.34-.211L1021 1198l1-2 6-4 2.25-2.25 1.75-1.75z" fill="#f6ebc2"/><path d="M1262 833l2 1c-36.971 22.741-36.971 22.741-47.153 20.533L1215 854l1.946-.743c13.115-5.043 25.889-10.371 38.322-16.939l2.603-1.36 2.279-1.219L1262 833z" fill="#ae8f49"/><path d="M940 1171h17v3l3.648.367 4.727.508 2.406.238c5.992.66 5.992.66 8.219 2.887l-3.961-.465c-7.536-.754-15.098-.892-22.664-1.098l-4.488-.131L934 1176c3.333-1.782 6.245-2.488 10-3l-4-2z" fill="#f5ebca"/><path d="M183 792c11.528-.12 23.039.015 34.563.375l3.526.094c7.135.245 13.929 1.031 20.911 2.531v1c-12.901.251-25.64-.539-38.5-1.5l-5.996-.434L183 793v-1z" fill="#f2e6bc"/><path d="M468 698c20.864-.28 41.398.556 62 4v1c-20.727-.6-41.343-2.275-62-4v-1z" fill="#f4e7bc"/><path d="M303 590c13.383-.162 26.697.348 40.063 1l6.127.289L364 592v1l-19.794.11-6.718.041c-23.874.181-23.874.181-34.489-2.151v-1z" fill="#f5eac4"/><path d="M674 936c41.126-.591 41.126-.591 61 3v1c-13.807.216-27.425-.431-41.187-1.5l-5.811-.434L674 937v-1z" fill="#f4e9c0"/><path d="M1492 1146l2 1-3.027 1.898-3.91 2.477-1.998 1.25c-3.61 2.12-3.61 2.12-6.064 5.375l4 2c-7.093 1.723-13.71 2.249-21 2v-2c1.863-1.508 1.863-1.508 4.313-3.125l2.426-1.633C1471 1154 1471 1154 1474 1154c-2.111 3.166-3.735 4.196-7 6h8l.207-1.777c1.899-5.322 9.474-8.628 14.293-11.223l2.5-1z" fill="#f2e3b5"/><path d="M964 1194c-1.634 1.708-2.869 2.935-5 4l-4.062-.312c-5.855-.095-9.549 2.691-13.937 6.313l-1.508 1.762L938 1207c-2.187-.312-2.187-.312-4-1l1.609-1.391 2.141-1.859 2.23-1.93c2.112-1.829 2.112-1.829 4.082-4.195 5.026-4.215 13.689-2.727 19.938-2.625z" fill="#fcf3d1"/><path d="M928 1196h11c-3.912 3.39-8.14 5.945-12.598 8.535-2.418 1.406-2.418 1.406-4.508 3.137-2.646 1.855-4.746 1.543-7.895 1.328 1.527-3.054 4.036-3.66 7.063-5.125l3.348-1.633L927 1201l-7-1v-2h8v-2z" fill="#f2e5b9"/><path d="M1158.563 1175.438l3.438.563c-1.462 3.37-3.338 5.607-5.937 8.188l-2.09 2.105C1152 1188 1152 1188 1149 1189l4-8-1.68 1.75-2.195 2.25-2.18 2.25C1145 1189 1145 1189 1143 1189c2.697-6.188 8.305-13.627 15.563-13.562z" fill="#faeec4"/><path d="M613 1049c7.556-.177 14.871.531 22.375 1.375 14.188 1.539 28.387 2.666 42.625 3.625v1c-10.478.112-20.889-.12-31.349-.745l-6.731-.369-4.361-.254-3.897-.222c-3.741-.42-7.072-1.297-10.662-2.411-2.668-.454-5.306-.716-8-1v-1z" fill="#f9f0cc"/><path d="M354 689l7.313-.062 2.033-.025c4.957-.023 9.803.356 14.734.841 6.146.52 12.322.61 18.487.765l3.082.104 2.755.076c2.815.329 5.022 1.142 7.596 2.303v1c-18.736-.587-37.344-2.253-56-4v-1z" fill="#f4e9c1"/><path d="M739 523c22.348-.192 44.663.368 67 1l-4 4-1-3-1.817.007-18.886.048-7.029.021-10.158.022-3.127.016c-7.04.001-13.977-.427-20.983-1.113v-1z" fill="#fbf3ce"/><path d="M1022.59 1088.805l3.938.009 10.303.049 10.538.04L1068 1089v1l-3.874.06-14.571.257-6.242.104c-14.524.225-28.865 1.06-43.313 2.578 5.696-5.696 15.175-4.256 22.59-4.195z" fill="#e6d6a8"/><path d="M842 717h2c.886 3.082 1.172 5.932 1.281 9.133l.113 2.941.211 6.125.113 2.934.092 2.684c.058 2.228.058 2.228 1.189 4.183l.316 5.445.127 3.262.119 3.418.131 3.441L848 769h-1c-1.644-11.268-3.148-22.534-4.187-33.875l-.253-2.713A149.53 149.53 0 0 1 842 717z" fill="#faf2d0"/><path d="M225 915c20.109.455 39.997 2.004 60 4v1l-16.071-.372-5.468-.125-7.856-.186-2.472-.051c-3.275-.086-6.006-.223-9.134-1.266-3.155-.226-6.303-.393-9.463-.518-3.711-.195-6.299-.704-9.537-2.482z" fill="#f1e4b9"/><path d="M495 810a893.88 893.88 0 0 1 50 5v1c-9.895.187-19.621-.256-29.473-1.117l-6.949-.553-4.437-.381-2.089-.152c-1.925-.181-1.925-.181-5.051-.797l-2-3z" fill="#f6e7ae"/><path d="M952.438 1175.688l3.544.004c8.047.09 15.351.701 23.018 3.309v1h-14v-2h-29c5.521-2.761 10.347-2.34 16.438-2.312z" fill="#ae8832"/><path d="M1072 1115l17.218-.165 5.826-.062c13.938-.184 27.214.872 40.956 3.226v1l-7.375.063-2.117.025c-5.281.025-5.281.025-7.508-1.088-1.51-.146-3.026-.236-4.542-.297l-2.851-.121-3.084-.117-3.153-.13-9.996-.397-6.766-.275L1072 1116v-1z" fill="#f8ebc0"/><path d="M757 1026c1.575 2.952 2.668 5.858 3.625 9.063l.789 2.598C762 1040 762 1040 762 1043c-13.709.119-27.322-.044-41-1v-1h39l-1-7h-2v-8z" fill="#f1e4b9"/><path d="M568 1028c28.072-.309 28.072-.309 35 2 1.48.146 2.964.247 4.449.316l2.568.127 2.67.119 2.705.131L622 1031v2c-11.541.387-22.849-.815-34.312-2l-5.748-.578L568 1029v-1z" fill="#f5eac4"/><path d="M431 915c11.123-.131 22.172.191 33.278.8l7.732.402 4.947.264 2.32.117c3.116.176 5.746.426 8.723 1.418v2l-37.5-2.562-5.707-.42L431 916v-1z" fill="#f3e7be"/><path d="M389 798c7.054-.154 13.821.436 20.816 1.313l3.324.404L423.563 801l7.104.867L448 804v1l-7.187.063-2.041.025c-3.752.018-7.115-.315-10.771-1.088l-9.824-.605c-5.073-.291-5.073-.291-6.176-1.395-2.351-.187-4.707-.324-7.062-.437-5.537-.304-10.627-.937-15.937-2.562v-1z" fill="#fcf5d4"/><path d="M1333 1158h14c-4.566 4.871-9.75 8.892-15 13l-4-2 9-9-4-2z" fill="#ad8323"/><path d="M259 696c6.81-.122 13.395.34 20.16 1.094l3.123.336 9.78 1.07 6.67.723L315 701v1c-7.038.122-14.037-.042-21.062-.437l-2.236-.119c-3.103-.187-5.737-.456-8.701-1.444-3.497-.229-6.987-.392-10.488-.518-4.808-.225-8.932-.986-13.512-2.482v-1z" fill="#fef8d9"/><path d="M1310 1114v2l-7 2 5 1-1 5h-6l4-2h-16v-2l7.25-2.437 2.066-.697c8.554-2.865 8.554-2.865 11.684-2.865z" fill="#faf3d4"/><path d="M187 1131l18.25.8 6.197.271 8.952.395 2.76.117c5.973.271 11.898.763 17.841 1.418v1l-13.135.055-4.47.021-6.419.022-3.904.016C210 1135 210 1135 208 1134a90.83 90.83 0 0 0-4.789-.316l-2.852-.127-2.984-.119-3.008-.131L187 1133v-2z" fill="#fdf9de"/><path d="M960.875 829.938l4.145.014L975 830v1h-27v2l-33 1v-1l7.125-.937 1.957-.264c12.249-1.575 24.454-1.94 36.793-1.861z" fill="#c39e4d"/><path d="M330 791c6.917-.15 13.525.416 20.379 1.313l3.19.404 9.994 1.284 6.814.867L387 797v1c-23.134.433-23.134.433-28-2-3.634-.317-7.268-.512-10.91-.719C345 795 345 795 344 794c-2.347-.397-4.703-.744-7.062-1.062l-3.91-.535L330 792v-1z" fill="#faf2cf"/><path d="M1465 1103l2 2c-.375 2.125-.375 2.125-1 4-13.826.215-27.331.282-41-2v-1l40 1v-4z" fill="#efe0b2"/><path d="M407 823c18.394.491 36.665 1.404 55 3v1l-13.08.055-4.449.021-6.397.022-3.888.016C431 827 431 827 428 826c-1.625-.213-3.255-.387-4.887-.535l-2.842-.264-2.959-.264-2.994-.275L407 824v-1z" fill="#f8edc8"/><path d="M900 970c1.512 2.912 2.428 5.462 3.063 8.688.415 2.94.415 2.94 1.938 5.313l.719 7.75c.043 2.217.043 2.217 1.281 3.25l.719 7.75c.043 2.217.043 2.217 1.281 3.25l.563 8.563.131 2.443L910 1023h-1l-3.363-17.822-1.144-6.052-1.646-8.743-.515-2.694c-1.094-5.879-1.83-11.731-2.333-17.689z" fill="#faf1ce"/><path d="M896 1135l2 1c.598 2.031.598 2.031 1.063 4.5.396 3.038.396 3.038 1.938 5.5v7l2.567-.275 9.494-1.006 4.097-.437 5.913-.625 3.586-.381c3.134-.258 6.201-.326 9.343-.275v1l-12.97 1.709-4.408.582-6.352.834-3.856.508c-2.846.306-5.556.444-8.413.367-3.26-13.633-3.26-13.633-4-20z" fill="#f5e9be"/><path d="M1194 1127c3.687.997 4.794 1.658 6.813 5 1.188 3 1.188 3 1.188 5h-3l-1 5-4-1h3c.122-2.341.122-2.341-1-5-4.119-3.461-8.833-5.579-14-7 3.325-1.108 5.622-.845 9 0v2l3-2v-2z" fill="#f8f0d1"/><path d="M168 993h30v2h16v1c-15.351.183-30.662-.384-46-1v-2z" fill="#fcf5d6"/><path d="M414 694c10.338-.117 20.666-.01 31 .313l3.201.068 2.986.108 2.668.079C456 695 456 695 458 698c-14.713-.577-29.341-1.617-44-3v-1z" fill="#f1e4bb"/><path d="M902 1163h1v27l6.688-.5c7.11-.502 14.184-.608 21.313-.5v1l-10.5 1-2.977.289c-5.537.517-10.962.817-16.523.711-.192-9.695.404-19.329 1-29z" fill="#f3e5b8"/><path d="M1381 1157l2 1-2.082 1.645-2.73 2.168-2.707 2.145c-1.951 1.607-3.743 3.213-5.48 5.043l3.813-1c8.268-1.699 16.792-1.155 25.188-1v1l-10.437 1-2.951.289c-5.902.553-11.684.809-17.611.711l-1-3 14-10z" fill="#f7efcc"/><path d="M1091.438 1141.625l2.492-.004c5.8.109 5.8.109 8.07 2.379l-2.12.152-9.692.723-3.334.238c-6.241.479-12.292 1.214-18.423 2.489-2.519.412-4.883.466-7.431.398 8.481-5.654 20.5-6.373 30.438-6.375z" fill="#b69549"/><path d="M336 924c10.92-.216 21.577.426 32.438 1.5l4.564.434L384 927v1l-17.133-.317-5.822-.104-8.393-.164-2.608-.035c-5.033-.122-9.267-.773-14.044-2.379v-1z" fill="#f1e5bd"/><path d="M186 774c6.463-.114 12.657.29 19.066 1.094l2.786.336 8.71 1.07 5.947.723L237 779v1c-8.679.162-17.364-.087-26-1l-1-1c-3.464-.239-6.921-.395-10.391-.518A49.01 49.01 0 0 1 186 775v-1z" fill="#fcf5d4"/><path d="M101 581h1l-.212 1.752c-.769 6.887-.979 13.696-.975 20.623l-.002 3.408c.063 10.16.916 20.144 2.189 30.217-4.121-6.182-4.3-12.269-4.266-19.477l-.006-2.692.011-5.602-.013-8.558.008-5.461-.012-2.573c.034-4.329.263-7.695 2.278-11.638z" fill="#faf0ca"/><path d="M168 560l-5 3c3.703 2.327 7.133 2.362 11.438 2.563 4.293.209 8.371.46 12.563 1.438v1l-38-2c2.73-2.73 5.913-3.511 9.5-4.687l2.09-.721c5.162-1.716 5.162-1.716 7.41-.592z" fill="#f6eabf"/><path d="M1147 1178l-3.445 3.422-3.234 3.469c-4.588 5.016-4.588 5.016-8.758 5.547L1129 1190l4.359-5.109 4.078-4.828c3.324-2.675 5.406-2.47 9.563-2.062z" fill="#fdf7db"/><path d="M1313 1113c-7.38 2.497-14.805 4.831-22.25 7.125l-3.508 1.09-3.383 1.043-3.048.942c-2.593.738-5.161 1.314-7.812 1.8 1.267-2.535 2.082-2.611 4.691-3.586l2.342-.877 2.53-.912 2.574-.936c21.397-7.606 21.397-7.606 27.863-5.689z" fill="#b29451"/><path d="M526 1041c8.203-.186 16.259.45 24.414 1.227l6.641.619c6.664.619 13.308 1.301 19.945 2.154v1c-10.046.157-19.981-.328-30-1v-2l-3.832.07-4.98.055-2.525.051-2.432.02-2.238.032C529 1043 529 1043 526 1041z" fill="#faf3d0"/><path d="M811 871c1.118 1.738 1.118 1.738 2 4-.643 2.04-.643 2.04-1.887 4.195l-1.346 2.422-1.455 2.508c-3.716 6.486-6.46 12.613-8.312 19.875l-3-2c1.319-4.198 2.902-8.096 4.82-12.055l1.621-3.359 1.684-3.461 1.707-3.531L811 871z" fill="#f7ecbf"/><path d="M435 932c9.926-.247 19.743.682 29.625 1.5l5.355.434L483 935v1l-7.875.563-2.262.17c-5.637.381-5.637.381-7.863-.732l-8.937-.437c-7.161-.312-14.059-.941-21.062-2.562v-1z" fill="#faf2d0"/><path d="M643 810c28.715-.344 28.715-.344 40 3l6 1 1-3 1 5-2.629-.332c-15.094-1.844-30.233-3.236-45.371-4.668v-1z" fill="#f4e8bd"/><path d="M820 726l1 2-3.437 6.625-1.025 1.852L814 741l-2-2c-3.487 2.79-6.502 5.252-9 9l-3-1 2.598-2.562c6.021-5.965 11.98-11.911 17.402-18.437z" fill="#fdf7da"/><path d="M1402 1152h13c-1.853 3.705-3.662 6.168-6.375 9.25l-2.336 2.703C1404 1166 1404 1166 1400 1166c2.748-4.275 5.693-8.141 9-12l-7-1v-1z" fill="#b7964d"/><path d="M1308 1105c-7.396 2.886-14.938 5.279-22.5 7.688l-3.937 1.26L1272 1117v-2c29.861-11.697 29.861-11.697 36-10z" fill="#b39652"/><path d="M1473 1122h1v18c-24.915 2.383-24.915 2.383-36 2v-1l1.898-.184 2.477-.254 2.461-.246c2.207-.207 2.207-.207 4.164-1.316 1.813-.085 3.63-.107 5.445-.098l3.262.01 3.418.025 3.441.014 8.434.049v-17z" fill="#f7edc8"/><path d="M1088.199 1120.902l3.662.01 3.826.025 3.861.014 9.451.049v1l-14.294 1.227-4.847.416L1062 1126c3.622-2.951 5.864-3.422 10.563-3.625 5.384-.257 10.244-1.498 15.637-1.473z" fill="#fefbe1"/><path d="M378 1027c17.062.638 34.015 2.328 51 4v1a417.44 417.44 0 0 1-34-1v-2l-2.449.035-3.238.027-3.199.035c-2.837-.089-5.357-.448-8.113-1.098v-1z" fill="#f8eec6"/><path d="M1002 1190c-1.485 3.534-3.47 5.641-6.312 8.188l-2.301 2.105c-2.54 1.817-4.315 2.343-7.387 2.707 1.525-3.556 3.625-5.985 6.313-8.75l2.301-2.422c2.746-2.103 4.014-2.234 7.387-1.828z" fill="#faf0cc"/><path d="M519 1023l8.188-.062 2.33-.025c4.005-.017 7.554.267 11.482 1.088 3.738.275 7.485.39 11.23.518 4.903.218 9.103.946 13.77 2.482v1c-15.713-.739-31.353-2.433-47-4v-1z" fill="#f6ebc4"/><path d="M326 1022a149.58 149.58 0 0 1 18.41.875l2.585.269 8.068.856 5.514.578L374 1026v1l-9.437.063-2.721.025-2.588.01-2.396.016C355 1027 355 1027 354 1026c-3.835-.24-7.664-.395-11.504-.518-5.722-.237-10.936-1.098-16.496-2.482v-1z" fill="#fbf4d3"/><path d="M199 810c9.791-.171 19.487.367 29.25 1l4.605.289L244 812v1l-13.922.11-4.722.041c-9.003.097-17.542-.012-26.356-2.151v-1z" fill="#fcf5d5"/><path d="M1246 1185c-11.223 2.88-21.388 4.617-33 4v-2l12.17-1.819 4.138-.623 5.958-.878 3.618-.54c3.156-.142 4.521.146 7.116 1.86z" fill="#f2dfa4"/><path d="M1473 1148l1 2 2 1-5.75 4.5-1.633 1.301c-3.252 2.499-4.371 3.199-8.617 3.199l-2-1 4.688-3.812 2.637-2.145c2.476-1.89 4.974-3.5 7.676-5.043z" fill="#ad8221"/><path d="M969 897c7.944.707 15.639 2.228 23.438 3.875l3.873.777 3.686.777 3.349.695C1006 904 1006 904 1008 907c-7.626-.7-14.899-2.568-22.312-4.437l-3.861-.947-3.689-.924-3.353-.838C972 899 972 899 969 897z" fill="#af8f46"/><path d="M732 845h29l-1 11h-1v-9h-27v-2z" fill="#fdf7d9"/><path d="M299 684l12.653.372 4.304.125 6.188.186 3.761.111C329 685 329 685 332 686l4.23.535 2.432.264 2.525.264 2.561.275L350 688v1c-17.112-.454-34.003-2-51-4v-1z" fill="#f7ecc4"/><path d="M118 587c1.074 3.596.727 6.426.266 10.137-.99 10.668-.212 20.991 1.395 31.535.305 2.99.152 4.536-.66 7.328-2.545-9.231-3.442-17.756-3.312-27.312l-.01-3.666c.038-6.348.43-11.952 2.322-18.021z" fill="#f5ebc3"/><path d="M393 928c13.685.775 27.34 1.877 41 3v1c-9.278.091-18.546.146-27.812-.375l-3.77-.211c-3.378-.409-6.242-1.218-9.418-2.414v-1z" fill="#efe2b5"/><path d="M1499.188 1152c2.604 1.437 2.962 3.237 3.813 6-1 1-1 1-4.16 1.098l-3.902-.035-3.91-.027L1488 1159c6.841-7 6.841-7 11.188-7z" fill="#fbf2cd"/><path d="M1275 1095l2 1c-6.473 7.835-13.778 14.868-21 22l-3-1 22-22z" fill="#ad801c"/><path d="M313 772l27 1v2h17v2c-9.534.372-18.759-.785-28.187-2l-4.619-.578L313 773v-1z" fill="#f7edc8"/><path d="M1312 1132c-4.565 3.044-9.682 3.884-14.969 5.197l-5.872 1.501-3.748.939-3.433.866c-2.81.469-4.34.462-6.977-.503 25.46-8.269 25.46-8.269 35-8z" fill="#b1934e"/><path d="M835 876l1 2c-.896 2.338-.896 2.338-2.309 5.227l-1.514 3.125-1.615 3.273-1.604 3.297L825 901c-1-3-1-3-1-7l-5 1 2.137-1.516c3.519-3.053 5.996-6.449 8.676-10.234l1.521-2.113L835 876zm-9 15l-1 2h2l-1-2z" fill="#fdf6d7"/><path d="M416 784l12.688.313 3.572.068c8.234.248 15.789 1.472 23.74 3.619v1c-13.476-.482-26.667-2.004-40-4v-1z" fill="#f4eac2"/><path d="M131 666h2v3c7.699.957 15.34 1.304 23.092 1.518 4.993.183 9.226.539 13.908 2.482v1c-12.707-.633-25.343-1.72-38-3l-1-5z" fill="#f7eec8"/><path d="M920 1080l2 1c.598 2.031.598 2.031 1.063 4.5.396 3.038.396 3.038 1.938 5.5l.5 5.813c.24 3.515.515 6.798 1.5 10.188l2.484-.691 3.266-.871 3.234-.879c2.859-.53 4.332-.542 7.016.441l-6.187 2.063-3.48 1.16C930 1109 930 1109 925 1108l-5-28z" fill="#faf2ce"/><path d="M984 955l16.76-.11 5.697-.041 8.207-.044 2.558-.031c4.667-.001 8.387.431 12.778 2.227v1l-2.988-.219c-14.002-.939-27.984-.883-42.012-.781l-1-2z" fill="#f0e4bd"/><path d="M392 805l12.762-.055 4.345-.021 6.233-.022 3.793-.016C422 805 422 805 423 806l4.563.563 2.504.254L432 807v1c-13.439.325-26.631-.667-40-2v-1z" fill="#faf3d3"/><path d="M503 794c9.04-.172 17.989.367 27 1v2l3.688-.062c3.232-.006 6.162.275 9.313 1.063v1c-13.476-.482-26.667-2.004-40-4v-1z" fill="#f5e9bf"/><path d="M255 765c34.466 1.534 34.466 1.534 44 4v1c-9.754.337-19.113-.709-28.75-2l-4.461-.578L255 766v-1z" fill="#f3e6bd"/><path d="M1448 1149c-3.768 3.882-7.628 7.795-12 11h-2l-1 2c-3 0-3 0-5-1l7.188-6 2.041-1.734c6.237-5.111 6.237-5.111 10.771-4.266z" fill="#fbf3d4"/><path d="M604 930c8.944-.112 17.874-.025 26.813.313l2.622.068 2.46.108 2.183.079c2.411.542 3.35 1.575 4.923 3.432-13.035-.657-26.009-1.755-39-3v-1z" fill="#f7ecc7"/><path d="M223 898l15.906.317 5.406.104 7.79.164 2.425.035c4.522.118 8.213.681 12.473 2.379v1l-13.602-.715-10.422-.539-4.727-.246-2.197-.107c-4.41-.234-8.697-.709-13.053-1.393v-1z" fill="#f5eac2"/><path d="M616 709c16.99-.355 16.99-.355 24.523 1.496 4.154.845 8.366.956 12.594 1.16 2.78.331 4.503.918 6.883 2.344-14.762-.553-29.344-2.19-44-4v-1z" fill="#fbf4d1"/><path d="M1288 999v1l-2.5.375c-11.343 2.025-22.454 6.278-31.5 13.625l-2-1c23.051-17.237 23.051-17.237 36-14z" fill="#b29555"/><path d="M1457 1015c1.5 1.313 1.5 1.313 3 3v3l-27 1c4.5-3.375 4.5-3.375 8.766-3.293l2.695.029 2.789.076 2.836.041 6.914.146v-4z" fill="#f9f1ce"/><path d="M976 1196c-4.711 4.576-8.397 7.964-15 9l-3-1c12.861-10.569 12.861-10.569 18-8z" fill="#b1841e"/><path d="M1307 1121c-2.393 2.393-3.742 2.577-7.016 3.289l-3.043.664-3.191.672-3.145.695c-4.928 1.057-9.533 2.012-14.605 1.68 2.883-2.883 6.327-3.204 10.188-4.062l2.252-.525c6.146-1.406 12.227-2.604 18.561-2.412z" fill="#b2944f"/><path d="M775 865h1c.17 13.026-.357 25.991-1 39h2v-2l2 1-4 8h-1l-.055-12.903-.021-4.369c-.057-9.633.233-19.124 1.075-28.728z" fill="#f8edc3"/><path d="M1299 1108c-1 3-1 3-3 4l10 1c-4.477 2.238-7.064 2.687-12 3l-3-2c-2.286-.241-2.286-.241-4.687-.125l-2.449.055-1.863.07c3.033-2.022 5.613-2.993 9.063-4.125l3.223-1.07C1297 1108 1297 1108 1299 1108z" fill="#faf3d4"/><path d="M748 622v2h6c-2.552 2.552-5.018 3.371-8.375 4.688l-3.461 1.387c-3.046.891-4.286 1.095-7.164-.074l3.25-2.875 1.828-1.617c2.51-1.969 4.674-3.508 7.922-3.508z" fill="#ad8121"/><path d="M1388 1154l-1.937.313-2.062.688-1 3-5 2-6 4-1-3c2.897-5.571 2.897-5.571 6.25-6.875 3.593-.163 7.153-.186 10.75-.125z" fill="#fbf6df"/><path d="M1349 1150v1c-5.483.883-10.892 1.262-16.437 1.5-4.641.2-9.24.417-13.848 1.027-2.97.378-5.732.582-8.715.535l-2.312-.027L1306 1154v-1h7v-2l12.375-.5 3.504-.145c6.712-.265 13.404-.425 20.121-.355z" fill="#f2e6bb"/><path d="M1069 1184c-1.53 3.606-3.687 5.986-6.437 8.75l-2.371 2.422C1058 1197 1058 1197 1055 1197c1.43-3.183 3.19-5.579 5.5-8.187l1.844-2.105c2.351-2.423 3.228-2.707 6.656-2.707z" fill="#faf0c9"/><path d="M1127 1179c-2.125 4.419-4.417 8.596-8 12-2.855.971-4.934 1-8 1 3.124-3.225 6.363-6.294 9.688-9.312l2.324-2.113C1125 1179 1125 1179 1127 1179z" fill="#f4e7b9"/><path d="M286 920l13.563.438 3.869.119 3.76.127 3.444.111c3.497.213 6.905.665 10.365 1.205v1h-27v-2h-8v-1z" fill="#f5eac4"/><path d="M145 787l1 2 2.431-.048 10.882-.14 3.826-.076 3.662-.029 3.38-.048c2.819.341 2.819.341 4.707 1.859L176 792l-33-2 2-3z" fill="#faf1ce"/><path d="M632 728c7.63-.196 14.994.57 22.563 1.5l3.635.434L667 731v1c-6.783.116-13.54-.002-20.312-.375l-3.926-.211c-3.848-.424-7.087-1.245-10.762-2.414v-1z" fill="#f8efca"/><path d="M432 712l12.438.438 3.529.119c6.394.234 12.686.636 19.033 1.443v1l-13.562.125-3.869.051c-6.224.032-11.718.059-17.568-2.176v-1z" fill="#f5eac3"/><path d="M1338 1159l-2.812 3.375-1.582 1.898C1332 1166 1332 1166 1329 1168l-1-3-6 5-2-1 4.875-4.437 2.742-2.496c3.645-3.161 5.625-3.17 10.383-3.066z" fill="#fdf5d7"/><path d="M897 996c3.135 5.475 3.607 11.871 4.688 18l.721 3.891.666 3.734.612 3.414c.288 2.722.203 4.407-.686 6.961-1.906-3.212-2.223-5.539-2.125-9.25l.055-2.703.07-2.047h-2c-2.296-14.597-2.296-14.597-2-22z" fill="#f7edc8"/><path d="M457 789l9.938-.062 2.865-.025 2.725-.01 2.523-.016C477 789 477 789 478 790l8.063 1.563 2.299.42L494 793c-3.908 1.406-7.595.753-11.609.223l-2.202-.273-6.938-.887-4.715-.592L457 790v-1z" fill="#efe2b6"/><path d="M387 594c11.389-.11 22.646.05 34 1v1c-11.801 1.256-22.28 1.057-34-1v-1z" fill="#f7edc8"/><path d="M939 1158c-7.592 3.029-14.434 3.53-22.562 3.688l-3.635.104L904 1162c3.354-1.961 6.315-2.456 10.156-2.887l3.598-.404 3.746-.396 3.746-.432c10.052-1.097 10.052-1.097 13.754.119z" fill="#f3e7be"/><path d="M832 1005l2 1 .625 6.563.227 3.629L835 1019h-2l-1-7-.812 3.188c-1.055 3.388-2.235 5.883-4.187 8.813-1-2-1-2-.563-3.788l.778-2.126.83-2.305.893-2.406.881-2.43L832 1005z" fill="#f4e9c1"/><path d="M745 606l-1 3 2 2-5.312 2.5-2.988 1.406C735 616 735 616 732 616c1.452-3.629 3.24-5.154 6.5-7.25l2.406-1.578C743 606 743 606 745 606z" fill="#ae7e14"/><path d="M1073.852 1106.902l2.346.004 7.428.031 5.031.014L1101 1107v1l-2.399.076-10.788.362-3.775.119-3.643.127-3.348.111c-2.776.187-5.332.62-8.046 1.205l-4.812.063-2.395-.027L1060 1110c4.94-2.47 8.304-3.136 13.852-3.098z" fill="#f9eecb"/><path d="M1328 1164h1l-1 7h2v2h-13l3-1v-2l6-4 2-2z" fill="#fefcf2"/><path d="M864 1130c3.369 3.543 3.655 7.205 4.063 11.875.466 4.971 1.346 9.384 2.938 14.125.195 2.773.195 2.773.125 5.375l-.055 2.648L871 1166c-1.876-3.3-2.602-6.399-3.289-10.121l-.664-3.584-.672-3.732-.695-3.721c-1.827-9.988-1.827-9.988-1.68-14.842z" fill="#fbf2cf"/><path d="M1073 1029v1l-8.5 1-2.398.289c-6.757.775-13.425 1.38-20.102-.289v-1c10.338-1.156 20.616-1.098 31-1z" fill="#ad8b40"/><path d="M758 934h1l1 7-10.25.125-2.934.051-2.832.02-2.603.032C739 941 739 941 735 939h23v-5z" fill="#fdf7d7"/><path d="M824 571c2.432 4.864 3.281 8.339 3.719 13.785.048 2.186.048 2.186 1.281 3.215.073 2.697.092 5.367.063 8.063l-.014 2.299L829 604h-1l-1.709-11.688-.869-5.919-.547-3.779-.508-3.475A56.07 56.07 0 0 1 824 571z" fill="#fcf6d7"/><path d="M1433 1029c3.669 1.223 3.916 2.1 5.734 5.402l1.488 2.697 1.527 2.838 1.574 2.826L1447 1050l-1 2-6.5-9.812-1.879-2.814-1.777-2.705-1.65-2.491C1433 1032 1433 1032 1433 1029z" fill="#f3de9d"/><path d="M1007.563 1189.938l2.438.063c-1.503 3.668-3.637 5.689-6.625 8.25l-2.477 2.141L999 1202l-3-1 2.875-2.187c2.816-2.326 4.043-4.271 5.125-7.812 1-1 1-1 3.563-1.062z" fill="#fdf6d6"/><path d="M1166 1176c2.117.406 2.117.406 4 1l-1.531 1.461-1.969 1.914-1.969 1.898c-1.752 1.591-1.752 1.591-1.531 3.727l1 2h-4v-2l-4 1 6-7 2.125-2.5 1.875-1.5z" fill="#c39e47"/><path d="M1134 1179c-1.382 3.1-2.986 5.283-5.375 7.688l-1.773 1.824c-1.978 1.59-3.373 2.079-5.852 2.488 1.347-2.934 2.886-5.251 5-7.687l1.563-1.824c2.215-2.293 3.197-2.488 6.438-2.488z" fill="#f8edc4"/><path d="M1309 1063l2 1-4 4 2 1v-2l3 1-10 7-1-2h2l-1-3-2-1 9-6z" fill="#fbf4d7"/><path d="M464 1035c6.95-.135 13.719.243 20.625 1l2.754.289L494 1037v1l-5.875.563-3.305.316C482 1039 482 1039 480 1038a288.56 288.56 0 0 0-9.678-.518c-1.779-.091-3.552-.28-5.322-.482l-1-2z" fill="#faf2ce"/><path d="M805 992c2.451 6.675-.969 15.881-3.5 22.25-1.5 2.75-1.5 2.75-4.5 4.75 2.37-9.096 5.157-18.044 8-27z" fill="#f5ebc5"/><path d="M616 948l10.375.438 2.926.119A276.04 276.04 0 0 1 648 950v1l-11.937.063-3.443.025-3.271.01-3.031.016C624 951 624 951 623 950a235.65 235.65 0 0 0-7-1v-1z" fill="#f8eeca"/><path d="M1314 1160l-3 7 2 1-2 2h-3l-1-3-4 1 2.875-3.437 1.617-1.934c2.235-2.415 3.168-2.629 6.508-2.629z" fill="#f7edc9"/><path d="M1496.234 1146.348l1.766.652c-.246 1.859-.246 1.859-1 4-1.848 1.266-1.848 1.266-4.062 2.25l-2.223 1.016-1.715.734v-3l-2-1 3.25-2.562 1.828-1.441c1.922-.996 1.922-.996 4.156-.648z" fill="#fbf4d6"/><path d="M743 957h17l-3 17h-1l1-15-14-1v-1z" fill="#f4e6b8"/><path d="M749 590l-2 4 2 2-4.875 2.5-2.742 1.406C739 601 739 601 737 601c1.439-3.387 3.221-5.359 6-7.75l2.125-1.859C747 590 747 590 749 590z" fill="#ad8324"/><path d="M889 1198l4 2-7 8-4-2 7-8z" fill="#ad8325"/><path d="M1010 1190l4 1c-2.869 3.506-5.732 6.853-9 10h10v1h-11v-2l-2-1 1.496-1.461 1.941-1.914 1.934-1.898c1.708-1.644 1.708-1.644 2.629-3.727z" fill="#aa832b"/><path d="M365 1009l10.063-.125 2.857-.051c5.445-.038 9.935.363 15.08 2.176v1c-18.82-.964-18.82-.964-28-2v-1z" fill="#f1e5bc"/><path d="M843 980l1 2-2 5-2 6 1 2 .063 6.125-.027 3.32L841 1007h-1c-1.998-9.865-3.408-17.095 2-26l1-1z" fill="#f8eecb"/><path d="M368 575l7.438-.062 2.143-.025L383 575l1 1 8.063.563 2.299.131L400 577v1c-27.098.268-27.098.268-32-3z" fill="#faf4d5"/><path d="M980.863 1190.902l2.686.01 2.764.025 2.822.014L996 1191l-5 5v-2l-4 1 1-2h-17v-1c3.351-.754 6.431-1.12 9.863-1.098z" fill="#b8913b"/><path d="M1457 1147h4l1 3-1.345 1.07-6.03 4.805-2.117 1.684-2.031 1.621-1.873 1.492c-1.722 1.384-1.722 1.384-3.604 3.329l-1-3 15-12-2-2z" fill="#b18f43"/><path d="M109 663c3 3.75 3 3.75 3 6H92v-2h16l1-4z" fill="#f9f0ce"/><path d="M1132 1178l7 1c-6.742 8.202-6.742 8.202-10 10l-3-1 1.496-1.461 1.941-1.914 1.934-1.898c1.708-1.644 1.708-1.644 2.629-3.727l-2-1z" fill="#a97f1f"/><path d="M1217 1178l5 1v1c-6.968 1.327-13.93 1.088-21 1 2.365-2.365 3.64-2.549 6.875-3.187l2.617-.543c2.538-.273 4.1-.031 6.508.73z" fill="#f8ecbf"/><path d="M214 677l9.938-.125 2.807-.051c6.075-.043 11.374.644 17.256 2.176v1c-6.95.135-13.719-.243-20.625-1l-2.754-.289L214 678v-1z" fill="#fdf7da"/><path d="M1343 1164v3h-2l-1 5-5-1c.915-5.305 2.534-7 8-7z" fill="#fcf8e7"/><path d="M1420 1150c6.625-.25 6.625-.25 10 2l-14 11c0-3 0-3 1.969-5.043l2.531-2.145 2.531-2.168L1425 1152l-5-1v-1z" fill="#b08e41"/><path d="M1467 1027c-3.021 3.021-6.564 2.467-10.625 2.625l-2.43.117-5.945.258-1 3h-2l-1-5 10.375-1.062 2.984-.314 2.852-.283 2.634-.27c2.155-.07 2.155-.07 4.155.93z" fill="#faf1cd"/><path d="M1440 1159l2 1-1 4h-13v-2l5-2v2l3.375-1.562L1440 1159z" fill="#fefbea"/><path d="M1137 1119c5.605.421 10.721.916 16 3v1h-16v-4z" fill="#f9e9b9"/><path d="M259 696c6.602-.107 13.001.288 19.563 1l2.768.289L288 698v1l-10.562.125-3.002.051c-5.563.037-10.184-.305-15.436-2.176v-1z" fill="#f9f0ce"/><path d="M1427 1157v2h-2l-.375 2.438L1424 1164c-2.709 1.354-5.009 1.065-8 1 6.054-8 6.054-8 11-8z" fill="#fefcf3"/><path d="M519 1039l8.563-.125 2.424-.051c5.079-.041 9.202.535 14.014 2.176v1l-8.562-.437-2.424-.119c-4.727-.251-9.338-.697-14.014-1.443v-1z" fill="#b48c31"/><path d="M125 787l1 2c-3.814 6.035-7.785 12.067-13 17h-2c1.388-3.083 3.03-5.328 5.313-7.812 3.197-3.565 5.976-7.243 8.688-11.187z" fill="#af8526"/><path d="M842 717h2c1.15 4.09 1.111 8.032 1.063 12.25l-.014 2.258L845 737c-1.976-2.963-2.264-3.68-2.414-7.012l-.117-2.295-.094-2.381-.117-2.416L842 717z" fill="#f3e8c2"/><path d="M966 1194l2 1v3c-1.793 1.535-1.793 1.535-4.187 3.063l-2.355 1.535c-2.429 1.386-4.839 2.43-7.457 3.402 1.473-3.645 3.429-5.369 6.563-7.687l2.441-1.824L965 1195l1-1z" fill="#f9edc1"/><path d="M1414 1151l5 1-13 15-2-2c2.103-2.726 4.191-5.183 6.688-7.562 2.197-2.316 2.968-3.339 3.313-6.437z" fill="#b08d3d"/><path d="M1474 1153l3 1-2 6-9 1c2.625-3.875 2.625-3.875 6-5l2-3z" fill="#fefcf0"/><path d="M1365 1037l3 1-1 3c-2.941 1.387-2.941 1.387-6.562 2.688l-3.629 1.324-2.809.988v-2l-2-1 5.375-2 3.023-1.125C1363 1039 1363 1039 1365 1039v-2z" fill="#f5ebc4"/><path d="M889 914h2l.621 3.465.816 4.473.408 2.287c.397 3.695.397 3.695 2.154 6.775l.063 6.063-.027 3.348L895 943h-1l-2.5-13.375-.723-3.852-.684-3.672-.635-3.396C889 916 889 916 889 914z" fill="#f7ecc6"/><path d="M831 775l2 1c2.775 8.325-.488 14.362-4 22-1.097-3.29-.8-4.713 0-8h2l1-10h-3l2-5z" fill="#fbf2cf"/><path d="M769 722l2 1-6 6 2 2c-5.625 3-5.625 3-9 3 1.503-3.668 3.637-5.689 6.625-8.25l2.477-2.141L769 722z" fill="#ad8427"/><path d="M1299 1161h7l1 3-12 13-2-1 2.371-2.555 3.066-3.32 1.564-1.684c2.819-2.989 2.819-2.989 4.998-6.441h-6v-1z" fill="#b29043"/><path d="M885 1190c1 3 1 3 .223 4.824L882 1200h-4l-1 4-1-7 3 1v-3l3-1c1.685-1.997 1.685-1.997 3-4z" fill="#f1e5bd"/><path d="M1275 1164l3 1-3.812 5.25-2.145 2.953L1270 1176l-1.594 2.344c-1.406 1.656-1.406 1.656-4.094 1.906L1262 1180l1.703-.555c3.404-2.142 4.986-5.18 7.047-8.57l1.246-1.996L1275 1164z" fill="#b08f43"/><path d="M1425 1160l2 1 1 3h11v1c-9.011.633-17.96 1.172-27 1v-1l2.117-.184 2.758-.254 2.742-.246c2.394-.186 2.394-.186 4.383-1.316l1-3z" fill="#f2e4b8"/><path d="M1018 1098l-1.937.938c-1.999.897-1.999.897-3.062 2.063l-8.062.063-2.299-.014L997 1101c6.498-3.529 13.783-3.15 21-3z" fill="#f8eecc"/><path d="M1308.285 1090.902l2.777.035 2.785.027 2.152.035v2l-23 3 1-2 5.5-1.062c3.162-.493 5.855-1.91 8.785-2.035z" fill="#f7edc8"/><path d="M867 1019h1l2.063 9.75.604 2.789.557 2.695.524 2.476c.265 2.392-.013 4.015-.746 6.29v-2h-2l-.184-2.152-.254-2.785-.246-2.777c-.077-2.247-.077-2.247-1.316-3.285l-.062-5.562.027-3.066L867 1019z" fill="#fbf2d0"/><path d="M242 536c-4.171 3.165-8.309 3.725-13.344 4.523-2.828.437-2.828.437-6.094 1.664-2.804.889-3.829.631-6.562-.187l10.75-3.562 3.078-1.037 2.969-.967 2.729-.905c2.592-.554 4.002-.399 6.474.471z" fill="#f3e5b8"/><path d="M946 1199l2 1v4c-2.25 1.875-2.25 1.875-5 3l-4-2 7-6z" fill="#c9ab60"/><path d="M1017.188 1188.75l2.813.25-.875 1.688L1016 1198h-2v-4l-3-1c1.823-3.241 2.362-3.95 6.188-4.25z" fill="#faf3d3"/><path d="M971 1182l-2 3c-2.627.221-5.009.282-7.625.188l-2.141-.041L954 1185c4.178-4.178 11.402-3.098 17-3z" fill="#fefcf5"/><path d="M891 1150c4.13 6.195 4.301 12.785 4 20-3.898-5.848-4.3-13.106-4-20z" fill="#faf0bd"/><path d="M1492 1146l2 1-8.375 5.563-2.406 1.615-2.305 1.514-2.126 1.412-1.788.896-2-1 5.125-3.812 2.883-2.145c2.924-1.996 5.736-3.654 8.992-5.043z" fill="#ae904b"/><path d="M1086 1144v1l-9.687 1.5-2.764.434-2.686.41-2.46.381c-2.489.285-4.901.322-7.404.275 7.505-5.004 16.324-5.593 25-4z" fill="#ad8e4b"/><path d="M1301 1125c-2.706 1.692-5.066 2.215-8.187 2.563-3.594.012-3.594.012-4.812 1.438l-5.062.063-2.785-.027L1278 1129c3.621-2.115 7.434-2.886 11.5-3.687l2.012-.432c3.438-.69 6.159-1.146 9.488.119z" fill="#fdf7d8"/><path d="M918 1173l9.875.313 2.84.068 2.715.107 2.507.079C938 1174 938 1174 940 1177c-7.75.125-7.75.125-10-1-2.204-.23-4.414-.411-6.625-.562l-3.602-.254L917 1175l1-2z" fill="#e8d9ae"/><path d="M1290.625 1162.875l2.375.125c-1.443 3.366-3.333 5.51-6 8l-1-2-2 1c2.554-6.931 2.554-6.931 6.625-7.125z" fill="#faf2d0"/><path d="M848 769c4.126 4.501 4.865 9.944 5.25 15.813C853 788 853 788 851 791h-2l.5-1.562c1.216-5.926.222-10.734-1.5-16.437v-4z" fill="#fcf4d2"/><path d="M782 661l1 3-2.187 1.625c-2.177 1.838-3.615 3.301-5.312 5.5-2.485 2.858-3.923 3.853-7.5 4.875 4.408-5.29 9.076-10.188 14-15z" fill="#fffae0"/><path d="M1002 1190l2 2c-1.355 4.877-3.717 6.486-8 9v-2l-2-1 1.496-1.242 1.941-1.633 1.934-1.617c1.737-1.43 1.737-1.43 2.629-3.508z" fill="#ad8427"/><path d="M1098 1182c-1.239 3.432-2.503 6.303-5 9h-3c.354-3.186.83-4.791 2.875-7.312C1095 1182 1095 1182 1098 1182z" fill="#fcf4d3"/><path d="M1495 1151l2 2-8 5 10 1v1h-12l-1-3 9-6z" fill="#bb9a52"/><path d="M867 976h2l.184 1.934.254 2.504.246 2.496c.106 2.053.106 2.053 1.316 3.066l.063 6.063-.027 3.348L871 998h-1l-1.5-7.625-.434-2.16c-.797-4.136-1.227-7.979-1.066-12.215z" fill="#faf2d0"/><path d="M821 947c1.946 2.919 2.515 4.576 3.188 7.938l.543 2.59C825 960 825 960 824 964l-3-10-3 2 3-9z" fill="#f8edc4"/><path d="M669 732c7.027.503 14.019 1.042 21 2l-1 3-1-2-2.887.07-3.801.055-3.762.07c-3.363-.185-5.549-.738-8.551-2.195v-1z" fill="#fcf6d5"/><path d="M903 1202c.981 3.053.981 4.947 0 8l-7 1c1.555-3.817 4.036-6.192 7-9z" fill="#f5e8bc"/><path d="M1082 1182h7l-2.812 4.25-1.582 2.391L1080 1195l-3-1 8-10-3-2z" fill="#ae8a3a"/><path d="M1413 1152h2c-1.574 3.641-3.81 6.298-6.437 9.25l-2.371 2.703C1404 1166 1404 1166 1401 1166l1.609-1.793c4.503-5.033 4.503-5.033 8.766-10.27L1413 1152z" fill="#f8e8ae"/><path d="M1448 1149l3 2-6.25 4.375-1.777 1.25c-2.903 2.022-5.742 3.92-8.973 5.375v-2c1.285-1.237 1.285-1.237 3.063-2.602l1.914-1.484 2.023-1.539 2.023-1.562L1448 1149z" fill="#ae8e46"/><path d="M879 1044c2 1 2 1 3.086 3.508 1.09 4.163 1.365 8.084 1.539 12.367l.117 2.375.258 5.75h-1l-4-24z" fill="#f6eac0"/><path d="M168 1045l.938 1.938c.897 1.999.897 1.999 2.063 3.063l.063 7.063-.027 3.91L171 1064c-3.227-6.153-3.136-12.199-3-19z" fill="#f6ecc7"/><path d="M188 553c-4.922 3.886-9.734 5.473-16 6-1.34-.304-2.675-.633-4-1l8.875-3.062 2.551-.893 2.441-.83 2.253-.778C186 552 186 552 188 553z" fill="#f2e5bd"/><path d="M1089 1182h2c-1.335 3.594-2.96 6.755-5 10l-4-1 3.375-4.5 1.898-2.531L1089 1182z" fill="#faf0ca"/><path d="M1116 1182l4 2-6 6-4-2 6-6z" fill="#ab7e1a"/><path d="M1162 1176l2 3-1.531 1.461-1.969 1.914-1.969 1.898c-1.752 1.591-1.752 1.591-1.531 3.727h-5l1.172-1.355c3.012-3.497 5.971-7.019 8.828-10.645z" fill="#aa8226"/><path d="M1335 1169l1 2c1.895.465 1.895.465 4.063.625l3.938.375v1l-16 1 2-1v-2l-2-1c2.427-1.213 4.335-1 7-1z" fill="#f6e9c1"/><path d="M1480 1147l2 1-1 2 2 2-6 4-3-4 6-5z" fill="#f9f0d2"/><path d="M1044 1133c-2.494 2.494-3.614 2.329-7.062 2.563-3.276-.023-3.276-.023-5.937 1.438-2.671.141-5.324.042-8 0v-1l8.25-2.062 2.355-.604 2.285-.557 2.095-.524c2.265-.285 3.851.066 6.015.746z" fill="#f9f1d0"/><path d="M1308 993l-7.062 1.938-1.99.553c-4.306 1.167-8.519 1.963-12.947 2.51 1-2 1-2 2.785-2.816 6.359-2.083 12.583-4.116 19.215-2.184z" fill="#f8eec8"/><path d="M1083.625 1182.875l2.375.125-4 6h-5c2.773-5.942 2.773-5.942 6.625-6.125z" fill="#faf0cb"/><path d="M1355 1157l2 2-5.812 4.938-1.658 1.42c-2.501 2.107-4.396 3.598-7.529 4.643v-2l5.375-4.5c3.94-3.108 3.94-3.108 7.625-6.5z" fill="#ad8d45"/><path d="M186 774c6.115-.097 11.933.23 18 1v2c-6.406.209-11.93.158-18-2v-1z" fill="#f8efcc"/><path d="M1056 1204c-3.11 3.11-6.731 2.851-11 3-2.717-.188-5.308-.559-8-1v-1c6.362-.655 12.604-1.121 19-1z" fill="#f0e2b7"/><path d="M1069 1184l3 2-9 9-3-1 1.715-1.68 2.223-2.195 2.215-2.18c1.904-1.816 1.904-1.816 2.848-3.945z" fill="#b08d3e"/><path d="M1126 1181l2 1-7 9 3-1v2h-8l3-1 2-4 5-6z" fill="#ae8b3d"/><path d="M1438 1150l2 2-12 10-2-1 12-11z" fill="#ac8b40"/><path d="M1334 987c-5.653 3.809-10.226 4.727-17 5 2.65-1.766 5.015-2.97 7.938-4.187l2.59-1.105c2.655-.759 3.914-.639 6.473.293z" fill="#f7edc9"/><path d="M964 895c6.131-.327 10.627-.394 16 3-2.477 1.238-3.657.928-6.375.563-2.958-.391-5.614-.562-8.625-.562l-1-3z" fill="#f3eacd"/><path d="M879 856h1l.402 1.934.535 2.504.527 2.496c.343 2.043.343 2.043 1.535 3.066l.063 5.563-.027 3.066L883 877c-3.469-6.21-4.38-13.967-4-21z" fill="#faf1cc"/><path d="M844 836c2.325 4.65 3.115 7.311 3.063 12.625l-.027 3.602L847 855c-2.351-3.708-2.432-7.486-2.625-11.75l-.117-2.113L844 836z" fill="#fbf3d3"/><path d="M262 680l1 2-18-1v-1c5.724-.937 11.302-1.434 17 0z" fill="#f2e5bc"/><path d="M1255 1190c-1.451 3.825-3.382 5.191-7 7h-2v-2h3v-2l-3-1c5.625-2 5.625-2 9-2z" fill="#f9efc9"/><path d="M1372 1156l2 1-4.687 4.375-2.637 2.461c-2.539 2.054-4.596 3.154-7.676 4.164 3.515-5.044 8.117-8.38 13-12z" fill="#af914d"/><path d="M1434.625 1149.875l3.375.125-5 6h-2v-3l-2-1c2-2 2-2 5.625-2.125z" fill="#fbf3d2"/><path d="M1074.25 1122.813l2.258.041 5.492.146v1l-7.187 1-2.041.289c-3.618.494-7.119.824-10.771.711 3.649-3.658 7.396-3.355 12.25-3.187z" fill="#fbf4d2"/><path d="M857 1092h1l.402 1.934.535 2.504.527 2.496c.343 2.043.343 2.043 1.535 3.066l.063 6.063-.027 3.348L861 1114h-1l-1.5-7.625-.434-2.16c-.797-4.136-1.227-7.979-1.066-12.215z" fill="#f9f0cc"/><path d="M978 1096c-5.914 3.184-12.305 4.343-19 4 4.874-4.874 12.546-4.165 19-4z" fill="#f4e9c1"/><path d="M875 1019h1l.402 1.934.535 2.504.527 2.496c.343 2.043.343 2.043 1.535 3.066l.063 6.063-.027 3.348L879 1041h-1l-1.5-7.625-.434-2.16c-.797-4.136-1.227-7.979-1.066-12.215z" fill="#f9efca"/><path d="M964 1194v3l-6 4v-2h-10c4-2 4-2 7.438-1.937 3.869-.068 5.484-.823 8.563-3.062z" fill="#ae8a38"/><path d="M1097 1184l1 2 3 1c-2.25 2.563-2.25 2.563-5 5l-4-1 5-7z" fill="#ad811f"/><path d="M1381 1157l2 1-4.687 3.875-2.637 2.18c-2.524 1.835-4.739 2.94-7.676 3.945 3.97-4.218 8.308-7.612 13-11z" fill="#aa8c48"/><path d="M1448 1149c-2.578 2.648-4.916 4.944-8 7v-2l-2-1c3.411-3.119 5.316-4.535 10-4z" fill="#f9efc5"/><path d="M774 962h1v13h-2v6h-1c-.248-6.571.676-12.57 2-19z" fill="#f2e5bb"/><path d="M969 897c6.142.585 12.007 1.541 18 3l-1 2c-5.758-1.089-11.392-2.293-17-4v-1z" fill="#b69d64"/><path d="M825 751c.959 2.589 1.055 3.816.25 6.5-1.221 2.441-2.437 4.46-4.25 6.5h-2c1.413-4.827 3.43-8.716 6-13z" fill="#faf3d4"/><path d="M801 642l1 2-3.25 3.938-1.828 2.215c-2.029 1.951-3.176 2.465-5.922 2.848 3.208-3.806 6.407-7.546 10-11z" fill="#fff8de"/><path d="M981 1194v3l-4 4v3c-4 0-4 0-6-1l3.313-3.375 1.863-1.898C978 1196 978 1196 981 1194z" fill="#b28f41"/><path d="M1034 1188c-1.003 2.238-1.845 3.851-3.625 5.563-1.721 1.467-1.721 1.467-1.375 4.438l-4-1c5-9 5-9 9-9z" fill="#fef8d9"/><path d="M1176 1175l2 1-3.75 3.813-2.109 2.145c-1.955 1.866-3.944 3.475-6.141 5.043l-2-2 2.371-1.934 3.066-2.504 3.059-2.496L1176 1175z" fill="#aa883d"/><path d="M1225 1174l6.875-.125 3.867-.07C1239 1174 1239 1174 1241 1176c-3.435 2.29-4.985 2.178-9 2l4-2-11-1v-1z" fill="#f4e6b9"/><path d="M1285 1163c.715 1.672.715 1.672 1 4-1.434 2.578-1.434 2.578-3.437 5.25l-1.996 2.703L1279 1177l-3-1 1.715-2.082 2.223-2.73 2.215-2.707c1.999-2.414 1.999-2.414 2.848-5.48z" fill="#ae8c43"/><path d="M1207 1171c-2.625 2.625-4.488 2.583-8.125 3.125l-3.32.508-2.555.367v-2c4.873-1.591 8.808-2.212 14-2z" fill="#f1dfa0"/><path d="M1251 1155h7v2h11v1l-6.75.063-3.797.035c-2.738-.077-4.872-.27-7.453-1.098v-2z" fill="#f6ecc7"/><path d="M1289 928l-2.082.805-2.73 1.07-2.707 1.055c-2.658 1.059-2.658 1.059-5.48 3.07l-3-2 5.75-2.562 3.234-1.441c2.999-.991 4.15-1.158 7.016.004z" fill="#fbf3d1"/><path d="M689 811c2 2 2 2 2 5l-17-2v-1c5.126-.103 9.95-.036 15 1v-3z" fill="#eda"/><path d="M810 599h2v12l-2 1v-10l-2-1 2-2z" fill="#f7ebc2"/><path d="M101 581h1l-.184 1.801L100 602h-1l-.125-7.687-.051-2.186c-.038-4.176.297-7.376 2.176-11.127z" fill="#fcf8d9"/><path d="M1061 1185l2 2-3.375 3.875-1.898 2.18L1054 1197l-2-2 1.461-1.426 1.914-1.887 1.898-1.863c1.907-1.912 1.907-1.912 3.727-4.824z" fill="#aa8634"/><path d="M1391 1153h5l1 3-9 6-2-1 8-6-3-2z" fill="#af8d41"/><path d="M973 1106c-6.243 2.479-11.283 3.32-18 3 2.962-1.625 5.693-2.517 9-3.187l2.563-.543c2.468-.273 4.096-.034 6.438.73z" fill="#f8efca"/><path d="M1429 1024l-1.934.402-2.504.535-2.496.527c-2.043.343-2.043.343-3.066 1.535l-4.562.063-2.504-.027L1410 1027c3.119-1.744 5.991-2.546 9.5-3.187l2.844-.543c2.567-.261 4.23-.076 6.656.73z" fill="#b28a32"/><path d="M871 1001c2 1 2 1 3.117 3.168.998 3.202 1.081 5.799 1.008 9.145l-.055 3.238L875 1019h-1l-3-18z" fill="#f8efcc"/><path d="M747 720l6 1c-2.127 2.339-4.062 3.807-7 5h-3c1.152-2.468 2.048-4.048 4-6zm1 1l-1 2h2l-1-2z" fill="#af872e"/><path d="M738 609l2 1-1 2 3 1c-6.625 3-6.625 3-10 3 1.393-3.367 2.979-4.986 6-7z" fill="#ae8731"/><path d="M923.625 1199.938l2.477.027L928 1200c-2.363 2.526-3.665 3.888-7 5v-3l-4-1c2.405-1.203 3.95-1.101 6.625-1.062z" fill="#ad8325"/><path d="M1302 1137c-3.522 2.348-5.508 2.377-9.687 2.625l-3.574.227-2.738.148c2.76-1.84 4.297-2.483 7.438-3.187l2.309-.543c2.383-.285 3.985.002 6.254.73z" fill="#fcf5d5"/><path d="M1129 1124l.555 1.953c1.353 2.421 1.353 2.421 4.703 2.656l3.867.141 3.883.172 2.992.078v1h-16l-1-5 1-1z" fill="#b18b36"/><path d="M1296.188 1118.938l3.813.063c-1 1.5-1 1.5-3 3-2.718.273-5.257.135-8 0v-2c2.751-.917 4.359-1.109 7.188-1.062z" fill="#fefcec"/><path d="M782 1047h1v8l-2 2-2 6c-1.572-3.143-.04-5.929.938-9.125l.592-1.996L782 1047z" fill="#f8efcb"/><path d="M802 891c1.184 3.552.695 4.698-.437 8.188l-.871 2.73L800 904l-3-2c1.225-4.053 2.699-7.444 5-11z" fill="#faf0c4"/><path d="M1014 842l6.25.375 3.516.211c2.941.377 4.734.891 7.234 2.414-11.522.369-11.522.369-17-2v-1z" fill="#fcf5d4"/><path d="M1028 1188c-1.38 3.335-2.85 5.186-6 7l-3-1 3.375-3 1.898-1.687C1026 1188 1026 1188 1028 1188z" fill="#fcf2ca"/><path d="M1048 1186l5 1-2.812 3.5-1.582 1.969C1047 1194 1047 1194 1044 1194l5-6-1-2z" fill="#b49246"/><path d="M1326 1161l2 2-9 8-2-1 9-9z" fill="#af904a"/><path d="M1289 1162h5l1 3c-1.434 2.043-1.434 2.043-3.437 4.188l-1.996 2.168L1288 1173c0-3.396.522-4.066 2.5-6.687l1.406-1.887L1293 1163l-4-1z" fill="#b19047"/><path d="M1388 1154l-1.937.313-2.062.688-1 3h-3v-2l-6 1 1-2c4.288-1.299 8.565-1.075 13-1z" fill="#f1e3b6"/><path d="M1339 1049l-4.812 2.563-2.707 1.441c-2.48.996-2.48.996-5.48-.004 4.257-3.469 7.559-5.614 13-4z" fill="#ae8c42"/><path d="M720 583l2 1-7 8-3-1 8-8z" fill="#b48c2f"/><path d="M1109 1183l2 1-6 9-1-2-2-1 7-7z" fill="#b4934b"/><path d="M1147 1178l1 2 2 1-5 4v-2l-4 1 6-6z" fill="#ab801d"/><path d="M1460 1148l-5 5-1-2-3-1c3.435-2.29 4.985-2.178 9-2z" fill="#f9f0cb"/><path d="M886 1122c1.972 2.958 2.369 4.164 2.75 7.563l.297 2.379C889 1134 889 1134 887 1136c-1.206-4.672-1.094-9.215-1-14z" fill="#ebd590"/><path d="M902 1202v3l-5 4-1 2-4-1 10-8z" fill="#ae8c40"/><path d="M944 1200v2c-2.75 2.688-2.75 2.688-6 5-2.203-.355-2.203-.355-4-1l3.313-3 1.863-1.687C941 1200 941 1200 944 1200z" fill="#fbf1c2"/><path d="M1303 1168l2 1-5 7-4-1 7-7z" fill="#fef7da"/><path d="M1319 1160h8l-5 6h-1v-5l-2-1z" fill="#fef9dc"/><path d="M1497 1153l4 2v3h-6l2-5z" fill="#fefdf3"/><path d="M1193 1109c2.313 2.313 2.496 3.479 3.125 6.625l.508 2.477.367 1.898-4-2h2v-2h-2v-7z" fill="#f4e6b9"/><path d="M1284 1079c-1.517 4.55-5.169 6.501-9 9 0-3 0-3 1.461-4.605l1.914-1.582 1.898-1.605C1282 1079 1282 1079 1284 1079z" fill="#b09048"/><path d="M1433 1029l3 1 3 7h-3c-2.108-2.888-3-4.385-3-8z" fill="#f7ebba"/><path d="M888 1206h2v2h2v2h-11v-2l7 1v-3z" fill="#fefdf5"/><path d="M1158 1114h6v2l3 1v1c-3.625.201-5.865-.142-9-2v-2z" fill="#fefcec"/><path d="M1157 1112l4 2h-3v2l4 1c-2 1-2 1-3.945.441l-2.18-.879-2.195-.871-1.68-.691 5-3z" fill="#f5e9c0"/><path d="M1474 1104c3.319 2.821 5.154 6.103 7 10-.895 2.223-.895 2.223-2 4l-2.5-5.875-1.406-3.305C1474 1106 1474 1106 1474 1104z" fill="#f6e2a1"/><path d="M1409 1103l5.375-.187 3.023-.105 2.602.293 2 3c-4.379-.52-8.688-1.057-13-2v-1z" fill="#f5ebc7"/><path d="M715 815l2 1c.414 2.066.414 2.066.625 4.563l.227 2.504L718 825c-2.062-1.625-2.062-1.625-4-4 .25-3.25.25-3.25 1-6z" fill="#faefcd"/><path d="M710 729h1c.353 2.968.542 5.156-1.113 7.734L706 741l-1-2 2.438-5.125 1.434-2.758L710 729z" fill="#f9f1cf"/><path d="M833 527c-1.75 3.875-1.75 3.875-4 5l-2-1v2l-3 1c1.542-4.066 4.432-7 9-7z" fill="#f9f1d1"/><path d="M976 1196l-6 5v-2l-4-1 3.875-1.562 2.18-.879C974 1195 974 1195 976 1196z" fill="#ad8936"/><path d="M1249 1179l1 2 3 2c-3.215 1.607-6.436 1.057-10 1l2.438-1.937c1.838-1.469 1.838-1.469 3.563-3.062z" fill="#fbf3cd"/><path d="M1276 1166l1 4-2 3h-2l-1 3-2-1 6-9z" fill="#faf1cf"/><path d="M1289 1138c-3.035 2.024-4.194 2.321-7.687 2.625l-2.449.227-1.863.148c3.384-3.384 7.436-4.756 12-3z" fill="#b39759"/><path d="M879 1129h1l1.063 4.75.598 2.672c.338 2.565.151 4.149-.66 6.578-2.281-3.421-2.219-4.682-2.125-8.687l.055-3.012.07-2.301z" fill="#f4e8c1"/><path d="M1304 1081l2 1c-3.173 3.536-5.167 5.586-10 6 2.578-2.648 4.916-4.944 8-7z" fill="#f9eecd"/><path d="M809 740c-1.231 3.694-3.208 5.351-6 8l-3-1 3.375-3.5 1.898-1.969C807 740 807 740 809 740z" fill="#f4e8c2"/><path d="M913 1199h-3v2l-5 3-1-4c3.426-1.618 5.381-2.341 9-1z" fill="#f4e9c3"/><path d="M981 1196l3 2c-5.75 5-5.75 5-8 5 1.293-2.884 2.659-4.872 5-7z" fill="#f9eec0"/><path d="M1002 1196l3 1-6 5-3-1 6-5z" fill="#f7e8b6"/><path d="M1132 1178l7 1-5 5-1-3 1-2-2-1z" fill="#b48c32"/><path d="M1154 1176h8l-2 4-1-2h-6l1-2z" fill="#ecdba9"/><path d="M1472 1153l2 1c-2.658 3.987-5.499 5.5-10 7v-2c1.75-1.508 1.75-1.508 4-3.125l2.25-1.633L1472 1153z" fill="#f9f0cc"/><path d="M831 775l2 1c1.158 3.473 1.069 6.361 1 10h-1l-1-6h-3l2-5z" fill="#f5e9be"/><path d="M790 757l3 1-7 6-2-1 6-6z" fill="#f8eecd"/><path d="M702 746h1l.188 4.313.105 2.426c-.355 2.74-1.187 3.553-3.293 5.262l.438-4.312.246-2.426C701 749 701 749 702 746z" fill="#faf2d1"/><path d="M718 719c0 3.344-.475 4.068-2.375 6.688l-1.336 1.887L713 729h-2c1.668-3.941 4.227-6.789 7-10z" fill="#f7ecc6"/><path d="M761 575h5l-1 4h-5l1-4z" fill="#fdf8e2"/><path d="M1033 1187h2l1 3c-2.153 3.23-3.271 4.757-7 6l3.125-6.187c.947-1.627.947-1.627.875-2.812z" fill="#b39245"/><path d="M1047 1187l3 1-5 6-3-2 5-5z" fill="#fcf2c8"/><path d="M1091 1182l3 2-6 7-1-2c.777-1.727.777-1.727 1.938-3.625L1091 1182z" fill="#ab883a"/><path d="M1153 1180l2 1c-4.821 6.295-4.821 6.295-9 7l2.938-3.437 1.652-1.934c.778-.899 1.57-1.788 2.41-2.629z" fill="#ae8d44"/><path d="M1313 1162l4 1-7 6c0-3.517.824-4.371 3-7z" fill="#b3934b"/><path d="M1272 1109c-1.393 3.367-2.979 4.986-6 7l-2-1 2.875-3 1.617-1.687C1270 1109 1270 1109 1272 1109z" fill="#f4e9c3"/><path d="M1192 1113l1 3h2v2c-3.735-.498-5.812-.875-9-3l2.438-.437c2.484-.304 2.484-.304 3.563-1.562z" fill="#fcf7e1"/><path d="M172 1012h1v9h-2l-1 2c.875-7.625.875-7.625 2-11z" fill="#f6ebc6"/><path d="M1316 993c-5.292 4.062-5.292 4.062-8.875 3.75L1305 996c7.286-4.857 7.286-4.857 11-3z" fill="#f4e7bd"/><path d="M802 894c.934 3.01 1.044 3.867 0 7l2 1-4 2c.458-3.469.891-6.674 2-10z" fill="#ad852c"/><path d="M1233 897l2 1-9 5-2-2 4.375-2.062 2.461-1.16L1233 897z" fill="#fbf2d0"/><path d="M835 876l1 2c-.777 1.945-.777 1.945-1.937 4.125l-1.152 2.195L832 886l-3-2 6-8z" fill="#f3dfa2"/><path d="M826 841c3.006 3.006 2.596 5.824 3 10l-2 1v-7h-2l1-4z" fill="#f4e7b7"/><path d="M1245 795c-2 2-2 2-4.164 2.195l-2.461-.07-2.477-.055L1234 797c4-2.069 6.564-3.377 11-2z" fill="#f8f0cd"/><path d="M820 726l1 2-3 6-4-2 6-6z" fill="#f6e6b1"/><path d="M885 1190l1 3c-1.404 2.264-3.197 4.021-5 6l-1-2 5-7z" fill="#b09351"/><path d="M1027 1190l3 1-7 6c0-3 0-3 2-5.187l2-1.812z" fill="#b2934c"/><path d="M1020 1189l2 3-5 5-2-1 5-7z" fill="#b6974f"/><path d="M1140 1178h7l-3 4-3-1-1-3z" fill="#fbf1ce"/><path d="M1449 1159l7 1c-3.135 1.858-5.375 2.201-9 2l2-3z" fill="#fdf9e6"/><path d="M1333 1158h9v3c-3.146.262-4.618.248-7.312-1.5L1333 1158z" fill="#caa856"/><path d="M1400 1153h10l-4 4v-2l-6-1v-1z" fill="#fef8d4"/><path d="M1423.125 1150.875l2.875.125-4 4-4-2c2-2 2-2 5.125-2.125z" fill="#faf1c6"/><path d="M995 1138l-1 3-10 1c3.389-2.259 6.848-4 11-4z" fill="#f7ecc5"/><path d="M1191.563 1126.938l2.438.063 1 3-4 1v-2l-3-1c1-1 1-1 3.563-1.062z" fill="#fefdf3"/><path d="M798 1107h1c.25 6.625.25 6.625-2 10h-2l3-10z" fill="#f8eeca"/><path d="M969 898l11 2v1l-4.375.188-2.461.105L971 901l-2-3z" fill="#fdf7db"/><path d="M242 536c-3.512 2.408-5.727 3.366-10 3 3.181-3.484 5.432-4.418 10-3z" fill="#f8efcd"/><path d="M922 1206v2c-2.709 1.354-5.009 1.065-8 1 1.769-3.538 4.296-3 8-3z" fill="#fbf3c4"/><path d="M968 1194c2.625-.187 2.625-.187 5 0l-1 3h-6l2-3z" fill="#fdf9e2"/><path d="M1073 1184c2.125.375 2.125.375 4 1l-3 5-3-4 2-2z" fill="#fef5d2"/><path d="M1267 1164h8l-2 5-1-3-5-1v-1z" fill="#f3e5ba"/><path d="M1388 1154h7l-4 4-1-2h-2v-2z" fill="#fcf5d0"/><path d="M782 1148h1c.25 5.625.25 5.625-2 9h-2l3-9z" fill="#faf2d2"/><path d="M869 1034l2 1c.594 2.649.742 5.292 1 8l-1-2h-2v-7z" fill="#f6ebc7"/><path d="M793 1027l1 2-3 7h-2c1.059-3.403 2.009-6.014 4-9z" fill="#f9f0ce"/><path d="M805 883l2 3-3 6-2-2 3-7z" fill="#f6e7b4"/><path d="M1284 875c-2 2-2 2-5.625 2.125L1275 877c3.054-3.054 5.047-3.227 9-2z" fill="#f9f1d0"/><path d="M823 869l1 2-3 7h-2c1.059-3.403 2.009-6.014 4-9z" fill="#f9efcc"/><path d="M728 709l1 3-5 4-2-1 6-6z" fill="#fff9de"/><path d="M790 675l2 1c-2.121 3.181-3.631 4.315-7 6l-2-1 7-6z" fill="#f9efca"/><path d="M782 661l1 3-6 5-2-1 7-7z" fill="#fef3d1"/><path d="M787 560l3 1-1 3h-5l3-4z" fill="#fefbe9"/></svg>