<svg xmlns="http://www.w3.org/2000/svg" width="1563" height="1563" xmlns:v="https://vecta.io/nano"><path d="M0 0h1563v1563H0V0z" fill="#fefcf5"/><path d="M540.351 419.869l2.114-.006 6.975-.003 5.066-.009 13.894-.011 14.996-.016 32.777-.024 20.473-.012 56.708-.026h3.664l3.673-.001 7.368-.001 3.692-.001 59.218-.045 60.828-.037 34.141-.025 29.07-.012 14.824-.011 13.589.001 4.898-.01c23.431-.118 43.82 6.873 60.816 23.357 7.535 7.694 13.06 16.985 16.863 27.023l1.071 2.776c4.204 13.01 3.493 26.501 3.437 40.023l.01 11.319-.009 22.118-.01 25.809-.033 46.081-.021 44.617-.001 48.692-.005 5.202-.002 2.585.001 17.949-.021 21.905-.007 11.155c.071 37.176.071 37.176-7.099 50.082l-1.053 1.99C991.873 841.449 975.859 855.359 955 862c-10.415 2.871-20.639 1.671-31.239.781l-17.323-1.312-3.732-.271c-26.078-1.855-52.202-2.893-78.33-3.698l-2.167-.068c-96.695-3.966-96.695-3.966-179.335 40.456-7.884 7.533-15.07 15.629-22.061 23.987l-1.723 2.054c-10.033 12.007-19.682 24.308-28.299 37.377l-1.181 1.791-5.283 8.306c-3.546 5.621-5.78 8.874-12.327 10.597-5.593.829-9.258-.61-13.98-3.434-3.936-3.052-5.462-6.894-7.02-11.566a67.47 67.47 0 0 1-.12-4.271l-.004-2.639.011-2.886v-3.046l.016-9.983.004-6.915.025-18.214.02-18.58L551 864l-1.885.025-8.584.073-2.964.04c-19.59.102-37.243-7.987-51.567-21.137-13.33-13.292-22.365-31.989-22.53-50.941l.029-3.608-.017-3.941.01-10.714-.01-11.599.009-22.678.01-26.445.033-47.206.021-45.738.001-49.884.005-5.326.002-2.646-.001-18.405.021-22.45.007-11.44.024-12.432-.018-3.608c.082-10.99 1.96-21.432 7.156-31.191l1.065-2.051c2.866-5.382 6.063-10.186 10.185-14.699l2.273-2.516c14.855-15.652 34.621-23.594 56.078-23.616z" fill="#af7a00"/><path d="M1050.792 653.866l3.738-.013 4.124.001 4.327-.01 11.778-.012 7.364-.005 25.711-.013 23.929-.026 20.561-.018 12.271-.013 11.563-.002 4.225-.007c22.483-.091 41.557 7.398 57.703 23.209 11.643 11.878 20.024 28.899 20.045 45.698l.012 3.36-.003 3.66.009 3.913.011 10.733.016 11.583.024 25.321.012 15.819.026 43.822v2.832l.001 2.838.001 5.694.001 2.853.045 45.748.037 47 .025 26.376.012 22.463.011 11.451-.004 12.44.024 3.619c-.12 20.469-8.735 37.953-22.642 52.63-15.369 14.766-35.11 21.471-56.187 21.25l-2.506-.014L1171 1098l.034 3.894.225 36.371.118 18.698.097 18.051.054 6.88.039 9.651.054 2.86c-.05 6.414-1.522 10.623-5.622 15.595-4.273 3.875-6.897 5.198-12.625 5.438l-3.039.184c-5.637-1.049-9.64-4.406-13.102-8.927-1.814-2.785-3.541-5.611-5.257-8.457-9.891-15.676-20.913-30.324-32.79-44.55l-1.637-1.969c-28.457-34.003-59.284-54.384-104.11-58.524-31.846-2.766-63.9-2.313-95.815-1.32l-2.178.067c-26.747.827-53.484 1.949-80.178 3.856l-3.672.256-16.901 1.285c-14.73 1.142-27.697.094-41.009-7.026l-1.992-1.036c-19.294-10.397-31.284-27.452-37.785-47.902-1.362-5.05-2.034-9.834-2.057-15.061l-.022-3.36-.008-3.642-.02-3.87-.041-12.658-.012-4.37-.042-20.524-.077-23.65-.048-18.314-.036-10.924-.016-12.186-.039-3.635c.041-6.628.498-10.819 4.509-16.181 4.9-4.532 8.977-6.536 15.621-6.383 5.413.871 9.224 4.11 12.816 8.07 2.317 3.43 2.688 5.215 2.694 9.325l.012 3.215-.002 3.543.011 3.721.016 8.028.041 12.726.019 4.362.01 2.207.087 29.627.069 19.98.027 10.56.048 11.824-.02 3.476c.14 12.299 3.262 23.415 11.55 32.718 7.377 7.13 17.089 12.121 27.499 12.127l2.733.009 2.99-.005 3.186.006 10.603.004 7.588.011 16.36.016 25.867.041 8.852.019 2.235.005 25.18.049 2.325.004 37.288.04 38.294.068 23.613.025 18.104.039h7.421l10.133.028 2.963-.026c8.215.098 14.147 2.403 19.994 8.284l2.226 2.209 2.35 2.393 2.545 2.544 6.829 6.879 7.167 7.199 13.535 13.621 15.425 15.511L1134 1153l.011-2.831.173-26.482.087-13.613.097-13.149.024-5.004c.018-18.173.018-18.173 6.09-24.454 5.101-4.532 9.542-4.629 16.061-4.713l5.193-.1 8.162-.131 7.894-.144 2.431-.025c11.192-.242 22.419-3.879 30.713-11.666 3.455-3.792 5.803-8.11 8.063-12.687l1.074-1.895c1.897-4.314 2.051-8.935 2.06-13.592l.014-3.246-.001-3.532.011-3.779.016-10.362.022-11.184.039-26.996.015-12.723.039-42.307.006-10.971.001-2.754.066-44.169.054-45.376.036-25.465.02-21.686.017-11.056-.003-12.008.033-3.498c-.092-11.663-3.719-21.643-11.521-30.401-10.473-9.329-21.645-11.603-35.341-11.467l-4.222-.007c-3.008-.005-6.016.002-9.024.018l-14.287.008a8491.05 8491.05 0 0 0-35.465.021l-27.615.003c-4.729-.012-9.457 0-14.186.029-2.945.013-5.89.006-8.835-.007a468.96 468.96 0 0 0-6.014.042c-7.315-.058-12.395-.734-18.012-5.641-3.481-3.568-5.299-7.518-5.625-12.5.384-6.357 3.72-10.772 8.313-14.937 3.677-2.485 5.67-2.689 10.104-2.696z" fill="#af7a03"/><path d="M746.008 500.539c6.345 4.653 8.813 11.011 11.68 18.086l1.365 3.297 3.994 9.743 4.329 10.556 10.683 26.092 1.025 2.51L786 588l52.438 4.063 26.5 1.813 2.472.164c6.896.607 12.852 2.747 17.59 7.961 3.066 4.823 3.014 10.518 2 16-2.673 5.831-6.158 9.336-11.062 13.375l-2.027 1.713-14.043 11.545c-4.121 3.402-8.143 6.915-12.173 10.423L817 681l6.785 29.739 4.465 18.835 1.827 7.767 1.211 5.165 1.724 7.334.517 2.223c.739 3.122 1.547 6.163 2.572 9.205 1.762 5.353 1.564 9.853-.726 14.92C832.909 780.662 829.6 783.7 825 786c-10.588 1.723-17.479-2.439-26-8l-4.199-2.641-9.398-5.945-21.953-13.591c-4.868-2.975-9.711-5.963-14.453-9.135l-2.212-1.46-3.89-2.661c-2.846-1.878-4.38-2.643-7.8-2.128-3.955 1.997-7.637 4.265-11.344 6.688l-5.098 3.27-2.758 1.768-15.582 9.65-20.203 12.508-3.333 2.094-6.3 3.977-2.847 1.792-2.498 1.58c-5.332 3.094-11.146 2.911-17.131 2.237-4.666-1.845-8.099-5.416-10.273-9.916-2.693-7.717.004-16.434 1.96-24.021l.826-3.322 5.657-21.69c1.886-7.088 3.493-14.232 5.087-21.39 1.243-5.557 2.621-11.044 4.184-16.521.791-3.032 1.213-6.029 1.559-9.141l-1.602-.664c-3.279-1.827-5.966-4.247-8.773-6.711l-3.762-3.262-1.939-1.689-9.112-7.862-1.762-1.514a509.82 509.82 0 0 0-10.8-8.986c-4.369-3.545-8.546-7.256-12.699-11.051-2.719-2.411-5.525-4.681-8.363-6.949-5.405-4.382-11.269-9.167-12.559-16.391-.188-6.141 1.332-10.264 5.371-14.922 4.411-4.414 8.485-4.947 14.43-5.648l2.794-.363c10.269-1.276 20.577-1.974 30.902-2.614l8.42-.549 5.359-.347 13.326-1.061c4.664-.451 9.274-.535 13.957-.48l2.307.014L688 589l.506-1.593c1.995-6.147 4.322-12.114 6.776-18.09l1.243-3.048 10.772-26.232 6.415-15.872 2.232-5.596 2.457-6.283c2.562-6.281 5.633-9.953 11.6-13.285 6.003-2.001 10.49-1.14 16.008 1.539z" fill="#fefcf2"/><path d="M804.064 930.746l3.79-.018 4.171.011 4.425-.012 12.178-.004 13.127-.014 25.725-.012 20.908-.004 3.003-.002 6.039-.004 56.673-.003 51.86-.025 53.227-.024 29.892-.015 25.45-.001 12.987-.005 11.89.006 4.3-.008c15.171-.079 15.171-.079 22.041 5.699 3.258 3.892 5.03 6.992 5.688 12.063-.724 6.001-2.924 10.617-7.562 14.563-4.035 2.894-5.843 3.189-10.771 3.2l-3.831.015-4.248.002-4.482.013-12.362.022-13.315.028-32.18.052-9.086.012-56.39.06-13.067.009-3.281.002-52.626.088-54 .071-30.331.048-25.829.028a1936.27 1936.27 0 0 0-13.181.022l-12.067.003a357.19 357.19 0 0 0-4.365.018c-13.533.131-13.533.131-19.462-5.63-3.749-4.635-4.596-8.694-4.316-14.641.655-4.881 2.624-7.939 6.254-11.109 4.648-3.415 7.31-4.5 13.126-4.504zM736 563c3.398 3.108 4.745 6.753 6.398 10.965l.96 2.39 3.016 7.583 2 5.002.986 2.465.975 2.435 1.906 4.764.906 2.262 1.62 4.078 2.009 5.021 1.086 2.726c1.911 3.881 4.31 6.307 8.137 8.309 8.666 2.814 18.223 2.592 27.25 3 10.706.489 21.16 1.253 31.75 3-6.425 6.45-13.115 12.516-20.187 18.25l-13.75 11.438-1.936 1.62c-4.247 3.642-8.279 7.321-9.693 12.946.016 9.161 2.553 17.827 4.792 26.644l4.087 17.227.807 3.432.744 3.201.665 2.848C791 727 791 727 791 730c-5.065-1.746-9.447-4.544-14-7.312l-2.621-1.581-14.258-8.755-2.881-1.792-5.523-3.458-2.533-1.583-2.233-1.403c-5.073-2.903-10.291-3.02-15.951-2.116-4.174 1.755-7.907 4.083-11.702 6.526l-8.248 5.169-12.512 7.816-2.862 1.798-5.111 3.259C685.209 730 685.209 730 683 730c.637-6.026 1.793-11.748 3.25-17.625l1.34-5.555 2.133-8.794 2.089-8.776.663-2.702c1.659-7.1 2.889-13.341-.034-20.212-2.558-3.9-5.929-6.766-9.504-9.711l-2.027-1.713-13.992-11.502c-6.074-5.017-11.984-10.229-17.918-15.41 2.522-2.522 3.553-2.321 7.057-2.515l3.197-.193 3.472-.186 7.254-.459 11.455-.67 11.042-.683 3.435-.168c6.795-.463 11.918-1.482 17.088-6.125 1.869-2.279 1.869-2.279 2.945-4.953l1.442-3.186L719 605l.989-2.355 7.886-19.395 2.375-5.906L736 563zm314.672 294.719l2.833-.035 3.087-.007 3.268-.03 10.713-.054 7.451-.035 15.633-.04 20-.116 15.398-.051 7.371-.048 10.332-.017 3.056-.056c7.156.084 11.808 2.003 17.183 6.769 3.303 3.808 4.679 7.857 4.383 12.953-1.274 6.813-4.831 11.149-10.383 15.047-2.855.952-4.647 1.132-7.61 1.147l-2.867.022-3.141.008-3.312.02-10.87.041-3.747.012-17.604.042-20.301.077-17.599.05-7.479.035-10.463.016-3.122.039c-5.967-.043-9.326-.563-13.884-4.509-3.844-4.165-5.737-7.674-6.375-13.312.592-5.822 2.629-10.029 6.875-14.062 3.863-2.511 6.513-3.872 11.172-3.906z" fill="#af7a03"/><path d="M1056.971 784.369l3.245-.022 10.565.024 7.374-.007 15.433.039 19.751.009 15.221.013 7.282-.002 10.187.042 3.02-.02c6.136.084 10.837 1.028 15.951 4.553 2.375 2.5 2.375 2.5 4 5l1.25 1.813c1.738 5.069 1.296 9.589-.875 14.375-2.657 4.804-6.088 8.05-11.375 9.813-1.534.097-3.073.139-4.61.147l-2.867.022-3.141.008-3.312.02-10.87.041-3.747.012-17.604.042-20.301.077-17.599.05-7.479.035-10.463.016-3.122.039c-5.967-.043-9.326-.563-13.884-4.509-4.443-4.813-6.585-9.206-6.371-15.883.826-4.711 3.239-8.378 6.919-11.38 5.775-4.047 10.493-4.45 17.423-4.368zM389.77 323.726c5.006 2.379 8.661 5.136 12.523 9.08l1.738 1.726 5.587 5.623 3.92 3.922 8.164 8.211 10.471 10.511 8.071 8.097 3.863 3.875 5.377 5.421 1.612 1.609c4.485 4.563 6.201 7.554 6.342 13.947-.102 5.949-1.4 9.859-5.438 14.25-4.625 3.497-9.098 4.471-14.894 4.319-9.295-1.407-16.931-11.709-23.25-18.065l-3.778-3.769-7.869-7.885-10.081-10.07-7.78-7.78-3.719-3.711-5.183-5.203-1.544-1.526c-4.809-4.895-7.33-9.406-7.339-16.308.16-5.163.717-8.186 4.438-12 5.565-4.711 11.683-7.182 18.77-4.274z" fill="#af7a04"/><path d="M325.848 471.596l2.634-.021 8.581-.009 5.985-.016 12.528.003 16.039-.038 12.354-.012 5.913-.018 8.271.013 2.456-.029c6.042.079 9.627 1.846 14.036 6.129 3.513 4.406 4.721 7.52 4.637 13.211-.656 5.112-3.08 9.02-6.719 12.566-5.325 3.377-9.853 3.926-16.081 3.931l-2.564.025-8.374.039-5.84.027-12.238.027-15.645.089-12.063.038-5.766.038-8.083.01-2.383.045c-5.867-.077-10.035-1.834-14.524-5.644-3.816-4.973-4.757-10.103-4.516-16.312.864-4.502 3.088-7.697 6.516-10.687 5.082-3.126 9.067-3.436 14.848-3.404zm214.277-208.971c4.52 2.458 7.557 5.739 9.875 10.375.109 2.806.157 5.587.161 8.394l.015 2.632.027 8.647.017 6.002.02 12.6.058 16.134.025 12.405.024 5.947.009 8.33.028 2.475c-.041 5.56-.999 9.821-4.884 14.08-5.396 4.201-9.613 4.939-16.344 4.898-5.427-.934-8.925-4.211-12.156-8.543-2.022-4.847-2.302-9.36-2.306-14.541l-.025-2.535-.039-8.26-.027-5.768-.027-12.079-.089-15.44-.038-11.911-.038-5.691-.01-7.975-.045-2.349c.078-5.869 1.922-9.915 5.644-14.45 6.342-4.946 12.533-6.834 20.125-3.375z" fill="#af7a03"/><path d="M821.75 857.25l4.279.138c37.057 1.208 74.028 3.436 110.971 6.612v1H694l-2 4h-2l-.789 1.738c-1.304 2.436-2.786 4.355-4.586 6.449l-1.773 2.105c-2.025 1.867-3.249 2.07-5.852 2.707l-1 3h-2l-.789 1.738c-1.304 2.436-2.786 4.355-4.586 6.449l-1.773 2.105c-2.025 1.867-3.249 2.07-5.852 2.707l-1 3h-2l-.789 1.738c-1.304 2.436-2.786 4.355-4.586 6.449l-1.773 2.105c-2.025 1.867-3.249 2.07-5.852 2.707l-1 3h-2l-.789 1.738c-1.304 2.436-2.786 4.355-4.586 6.449l-1.773 2.105c-2.025 1.867-3.249 2.07-5.852 2.707l-1 3h-2l-.789 1.738c-1.304 2.436-2.786 4.355-4.586 6.449l-1.773 2.105c-2.025 1.867-3.249 2.07-5.852 2.707l-1 3h-2l-.789 1.738c-1.304 2.436-2.786 4.355-4.586 6.449l-1.773 2.105c-2.025 1.867-3.249 2.07-5.852 2.707l-1 3h-2l-.625 1.688c-1.886 3.172-4.53 4.99-7.375 7.313l-3 4h-2l-1 3-3-2 1.506-1.155c5.902-4.802 9.52-10.096 13.445-16.554 9.751-15.39 20.615-29.758 32.3-43.729l1.607-1.931c52.341-62.521 120.558-60.873 195.893-58.382z" fill="#f3e4bb"/><path d="M1165 815l1 3c-6.797 3.693-12.386 4.569-20.056 4.47l-3.236.007a1258.28 1258.28 0 0 1-10.509-.051l-7.331-.01-15.324-.059-19.655-.067-18.752-.051-3.617-.01-10.11-.051-3.03-.008-2.782-.022-2.412-.013c-2.177-.134-4.092-.535-6.185-1.134v-2l1.779.008 42.892.147 20.743.071 20.016.058 7.638.033 10.694.023 3.193.033c5.629-.024 10.781-.109 15.045-4.373z" fill="#f0e2ba"/><path d="M1134 1078h1v76l-5-5h3l1-71z" fill="#fffbda"/><path d="M494 436c-1.612 4.031-4.462 6.759-7.5 9.75l-1.512 1.535C481.253 451 481.253 451 479 451c1.612-4.031 4.462-6.759 7.5-9.75l1.512-1.535C491.747 436 491.747 436 494 436z" fill="#ad7f19"/><path d="M788 658l2 1-1.715 2.117-2.223 2.758-2.215 2.742c-2.451 3.161-3.018 5.089-3.41 9.008l-.254 2.477L780 680h-1c-.625-9.751-.625-9.751 1.688-14.375 2.342-2.658 4.737-5.192 7.313-7.625z" fill="#fcf4d3"/><path d="M590 601c1.043 2.713 1.057 3.84.063 6.625-1.419 4.508-1.229 8.688-1.062 13.375-3.121-3.667-3.503-5.974-3.371-10.672.597-3.742 2.252-6.216 4.371-9.328z" fill="#f6ebc8"/><path d="M1008 804h1c.878 7.73-2.604 14.207-6 21h-2l7-21z" fill="#f9f0ce"/><path d="M690 697h1c-.836 7.843-1.685 15.437-4 23h-2c.645-7.907 2.87-15.391 5-23z" fill="#b0872c"/><path d="M1171 873h1c.304 7.593-.942 12.268-6 18l-3-1 2.375-2.687c3.688-4.448 4.83-8.615 5.625-14.312z" fill="#fbf3d2"/><path d="M1244 1066l1 3c-1.293 2.008-1.293 2.008-3.187 4.125l-1.855 2.133c-2.046 1.821-3.283 2.351-5.957 2.742l1.172-1.355c3.012-3.497 5.971-7.019 8.828-10.645z" fill="#f9efcd"/><path d="M827 728c3.051 5.768 4.327 11.459 4 18l-2-1c-.374-2.327-.708-4.661-1-7l-1-1c-.072-1.519-.084-3.042-.062-4.562l.027-2.504L827 728z" fill="#f4e9c1"/><path d="M1000 825l1 4h-2l-.75 2.875C997 835 997 835 994.875 836.375L993 837v2l-2-1 9-13z" fill="#f7eeca"/><path d="M1170 1202c.688 1.688.688 1.688 1 4-1.845 4.1-4.405 6.376-8 9l-2-2 2.813-2.125c3.088-2.548 4.632-5.159 6.188-8.875z" fill="#f8edca"/><path d="M690 582h1c.364 5.455.364 5.455-1.125 7.688-2.709 1.896-4.799 1.605-8.062 1.5l-3.293-.082L676 591v-1l11-1 3-7z" fill="#fbf6dc"/><path d="M418 482c2 2 2 2 2.266 4.172-.03 5.005-.29 9.137-2.266 13.828h-3l1.5-2.812c2.159-4.927 1.758-9.91 1.5-15.187z" fill="#fbf5d1"/><path d="M736 563l3 3v2l-3 1c-1.709 3-1.709 3-3 6-1-2-1-2-.223-4.383l1.16-2.742 1.152-2.758L736 563z" fill="#b08931"/><path d="M794 934c-1.528 3.438-3.502 6.19-6 9h-2c1.31-3.93 3.25-9 8-9z" fill="#af8424"/><path d="M740 498c-3.51 1.966-7.096 3.06-11 4l-2-1c4.554-2.666 7.739-3.316 13-3z" fill="#f2e5bc"/><path d="M721 890c-1.583 4.274-4.506 6.265-8 9 1.31-3.93 3.25-9 8-9z" fill="#ae8425"/><path d="M824 674c0 3 0 3-1.531 4.605l-1.969 1.582-1.969 1.605L817 683c0-3 0-3 1.531-4.605l1.969-1.582 1.969-1.605L824 674z" fill="#ad8223"/><path d="M1040 861l2 1-2.375 3.5-1.336 1.969L1037 869h-2c1.186-3.375 2.276-5.647 5-8z" fill="#af8527"/><path d="M646 727h1l.188 4.313.105 2.426c-.355 2.74-1.187 3.553-3.293 5.262 1-8.571 1-8.571 2-12z" fill="#f4e8c0"/><path d="M654 695h1v9h-2l-1 2c.875-7.625.875-7.625 2-11z" fill="#f6ecc8"/><path d="M1043 656c-1.285 2.867-2.571 4.976-5 7h-2c3.138-7 3.138-7 7-7z" fill="#ac7f1b"/><path d="M311 475l2 1-6 7c0-3.908 1.506-5.116 4-8z" fill="#b28a2f"/></svg>