<svg xmlns="http://www.w3.org/2000/svg" width="1563" height="1563" xmlns:v="https://vecta.io/nano"><path d="M0 0h1563v1563H0V0z" fill="#fefcf5"/><path d="M825.183 322.131l13.442 5.994 5.947 2.652 12.319 5.497 25.826 11.49L896.75 354l5.625 2.5 239.062 106.25 5.631 2.502 13.976 6.217 26.342 11.639 12.433 5.454 5.922 2.582 8.216 3.597 2.424 1.039c8.669 3.851 14.447 7.771 18.595 16.481 1.625 4.347 1.712 8.353 1.651 12.953l.021 2.964-.019 9.752.022 7.025-.014 19.022-.004 17.908-.038 35.485-.021 34.387.003 37.502-.004 19.831-.032 18.643v6.834l-.029 9.343.025 2.718c-.093 7.118-1.871 13.193-6.504 18.71l-1.973 1.598-1.965 1.652c-6.295 4.232-12.739 4.105-20.098 3.41-5.981-1.529-9.266-4.975-12.773-9.902-2.971-5.082-3.512-9.433-3.467-15.254l-.005-2.475.019-8.204-.001-5.884.025-15.972.016-16.692.043-31.608.043-35.985L1190 556l-12.057 5.304-3.433 1.51-22.322 9.873-6.805 3.027-3.589 1.597-18.949 8.423-11.529 5.124-4.671 2.076-2.331 1.036L879.25 694l-4.504 2.002-11.192 4.972-20.945 9.334-9.812 4.387-4.644 2.082c-6.661 2.994-13.328 5.988-20.119 8.677l-2.328.927c-7.478 1.713-13.306.499-20.149-2.685l-2.388-1.062-7.733-3.509-5.49-2.461-14.185-6.411-12.915-5.824-14.801-6.667-38.726-17.158-34.667-15.445-33.591-14.911L580 632l-40.5-18-40.5-18-45.908-20.373L409 556v455l9 3 8.625 3.816 2.447 1.116 5.21 2.383 14.117 6.434 2.931 1.332 29.295 12.98L521 1060l40.5 18 42.99 19.125L642.5 1114l42.99 19.125 40.556 17.988 46.964 20.951 6.765 3.035 8.298 3.816 3.759 1.725 3.261 1.532c3.508.998 4.753.534 7.907-1.173 8.707-4.566 16.014-7.886 26-6 6.918 2.69 11.289 6.656 15 13 2.017 6.051 1.664 12.749-.125 18.813-5.169 8.788-11.547 12.727-20.431 17.124l-5.93 3.073c-8.736 4.487-16.757 7.431-26.55 4.349-5.744-2.071-11.247-4.655-16.776-7.234l-5.436-2.461-11.223-5.124-15.666-7.11-2.475-1.112-4.926-2.211-7.436-3.352L691.5 1187l-42.99-19.125L610.5 1151l-42.99-19.125L529.5 1115l-42.99-19.125L448.5 1079l-42.25-18.75-2.522-1.135L388 1052l-1.979-.897-5.408-2.466-3.014-1.376c-6.593-3.198-10.456-6.613-13.599-13.26-1.244-4.146-1.142-8.234-1.134-12.528l-.007-2.647-.006-8.841-.011-6.378-.016-17.576-.022-18.937-.037-43.59-.015-21.537-.04-73.713-.001-4.628-.001-2.318-.004-11.627-.001-2.331-.064-74.833-.057-79.104-.001-8.682v-2.159l-.038-34.417-.016-34.586-.017-18.741-.001-17.15-.014-6.21.01-8.433-.031-2.441c.08-6.536 2.13-11.48 6.111-16.648 6.508-5.779 14.319-8.829 22.228-12.192l4.762-2.071 10.151-4.397 23.938-10.52 8.184-3.616 40.273-17.932 43.749-19.492L534.742 428l30.148-13.367 57.247-25.426 43.195-19.246 15.413-6.851 51.954-23.016 37.946-16.911L780 319l1.832-.814 5.684-2.495 3.435-1.506c11.692-4.546 23.534 3.239 34.233 7.946z" fill="#af7a02"/><path d="M1049.688 772.625l2.556.001c15.866.039 31.147 1.379 46.757 4.374l2.746.519c19.936 3.948 39.599 11.806 57.428 21.492l5.681 2.993c15.535 8.23 29.427 18.909 42.145 30.996l4.25 3.688c7.416 6.483 13.624 13.602 19.75 21.313l2.34 2.859c23.991 30.018 38.778 65.52 45.66 103.141l.562 2.752c2.029 11.04 1.835 22.188 1.813 33.373l-.003 3.238c-.069 25.379-3.248 48.504-11.372 72.637l-.89 2.676c-7.193 21.234-17.624 41.41-31.11 59.324l-1.302 1.764c-27.768 37.501-65.817 64.75-109.698 80.236l-2.519.898c-23.542 8.27-48.228 11.549-73.106 11.54l-2.542.002c-60.63-.138-117.805-25.808-160.77-68.19-32.425-33.377-54.286-75.729-62.562-121.5l-.376-2.058c-10.178-56.695 2.595-118.321 35.313-165.942L866 867l1.221-1.701C880.883 846.355 898.059 829.629 917 816l1.676-1.209c26.086-18.583 55.658-31.17 86.886-37.979l2.142-.47c13.955-2.874 27.779-3.75 41.983-3.717z" fill="#fefcf4"/><path d="M1049.688 772.625l2.556.001c15.866.039 31.147 1.379 46.757 4.374l2.746.519c19.936 3.948 39.599 11.806 57.428 21.492l5.681 2.993c15.535 8.23 29.427 18.909 42.145 30.996l4.25 3.688c7.416 6.483 13.624 13.602 19.75 21.313l2.34 2.859c23.991 30.018 38.778 65.52 45.66 103.141l.562 2.752c2.029 11.04 1.835 22.188 1.813 33.373l-.003 3.238c-.069 25.379-3.248 48.504-11.372 72.637l-.89 2.676c-7.193 21.234-17.624 41.41-31.11 59.324l-1.302 1.764c-27.768 37.501-65.817 64.75-109.698 80.236l-2.519.898c-23.542 8.27-48.228 11.549-73.106 11.54l-2.542.002c-60.63-.138-117.805-25.808-160.77-68.19-32.425-33.377-54.286-75.729-62.562-121.5l-.376-2.058c-10.178-56.695 2.595-118.321 35.313-165.942L866 867l1.221-1.701C880.883 846.355 898.059 829.629 917 816l1.676-1.209c26.086-18.583 55.658-31.17 86.886-37.979l2.142-.47c13.955-2.874 27.779-3.75 41.983-3.717zM1014 822l-2.558.586C977.925 830.386 949.27 847 924 870l-2.711 2.453c-7.746 7.37-14.047 15.904-20.289 24.547l-1.262 1.732c-27.092 37.772-36.987 86.827-29.84 132.373 3.121 17.673 8.329 34.722 16.102 50.895l1.038 2.18c8.441 17.461 19.884 32.577 32.962 46.82l2.328 2.547c25.674 26.815 61.571 43.794 97.672 50.453l2.951.564c9.004 1.571 17.879 1.794 26.986 1.748l2.326-.007c50.377-.226 95.904-19.955 131.736-55.306 25.111-25.37 43.133-59.762 49-95l.406-2.279c8.322-47.601-2.08-96.349-29.718-136.116-2.156-2.937-4.384-5.783-6.687-8.605l-1.28-1.583c-26.918-33.161-63.805-56.379-105.72-65.417l-1.98-.449c-23.085-5.029-51.037-5.136-74.02.449z" fill="#af7a02"/><path d="M1002.645 451.309l3.425 1.485 3.743 1.644 3.984 1.738 37.488 16.751 36.904 16.449 2.647 1.167 2.65 1.168 5.359 2.364 2.703 1.192 33.641 14.921 3.042 1.352L1155 519v2l-61.062 27.25L1058.5 564l-35.437 15.75-41.375 18.375-83.32 37.085-51.891 23.052-2.538 1.136-14.721 6.596-4.559 2.03-11.079 5.079-2.156 1.006-3.964 1.907c-5.467 2.515-9.986 2.204-15.495.269-2.198-.907-4.343-1.89-6.492-2.906l-2.451-1.125-5.228-2.419-14.157-6.515-2.941-1.351-29.321-13.032-43.297-19.247L637 607c2.607-2.061 5.085-3.633 8.125-4.97l2.449-1.087 2.641-1.154 2.772-1.226 8.951-3.938 6.183-2.73 12.272-5.417L701.625 577l36.667-16.353 11.961-5.323 45.418-20.07 45.808-20.374 41.191-18.27 35.272-15.713 33.161-14.685 20.182-9.016 4.025-1.847 7.567-3.526 3.416-1.568 2.985-1.396c4.976-1.568 8.759.445 13.366 2.451zm-189.7-84.539l2.626 1.176 8.554 3.867 6.021 2.705 12.546 5.645 26.956 12.01 33.129 14.761 2.022.908 8.951 4.028L937 422c-2.992 2.417-5.956 4.019-9.469 5.574l-3.36 1.497-3.671 1.617-3.886 1.726-8.316 3.685-12.712 5.648-51.237 22.702-58.692 26.036-25.347 11.267L746.25 508l-5.625 2.5-2.812 1.25-8.437 3.75-2.812 1.25-5.627 2.501-14.025 6.234-25.758 11.445-14.652 6.508-2.88 1.279-30.337 13.537-10.174 4.555-13.854 6.273-9.395 4.253-4.541 2.076-6.315 2.863-1.88.885c-4.169 1.836-6.76 2.103-11.123.842-2.683-1.073-5.278-2.188-7.895-3.402l-2.327-1.058-4.982-2.279-13.492-6.144-2.823-1.283-29.669-13.146L444 521v-2l46.313-20.937 2.685-1.175 2.688-1.176 30.126-13.337 31.75-14.187 2.296-1.02 9.243-4.104 15.679-6.97 46.371-20.552 46.25-20.581 29.868-13.305 18.886-8.392 6.836-3.038 21.361-9.5 9.693-4.314 4.57-2.036 10.46-4.634 7.822-3.568 3.702-1.696 3.237-1.521c6.975-2.108 12.833.941 19.107 3.814z" fill="#fefcf4"/><path d="M1156.219 936.672c5.78 4.309 10.019 10.21 11.098 17.453.394 7.328-1.922 13.002-6.597 18.612-2.96 3.211-6.066 6.275-9.17 9.345l-3.544 3.566-9.614 9.6-10.076 10.073-16.93 16.89-19.539 19.524-18.824 18.816-7.996 7.997-9.433 9.402-3.45 3.45-4.735 4.705-2.669 2.66c-4.897 3.992-9.812 5.671-16.177 5.734l-3.184.094c-7.345-1.291-12.824-6.593-17.931-11.742l-1.821-1.801-5.865-5.856-4.114-4.098-8.575-8.579-10.989-10.951-8.475-8.463-4.054-4.035-5.65-5.663-1.686-1.657c-5.213-5.313-7.647-10.584-7.656-18.187.163-5.681.775-10.097 4.438-14.562 6.353-5.82 11.566-8.463 20.199-8.234 15.649 1.31 28.058 19.372 38.426 29.797l4.777 4.791L1028 1037c3.32-1.447 5.491-3.25 8.034-5.813l2.404-2.409 2.61-2.646 4.211-4.231 4.513-4.552 9.434-9.494 23.44-23.589 18.206-18.318 9.356-9.429 7.226-7.261 2.586-2.628c9.82-9.805 22.367-18.006 36.199-9.957z" fill="#af7a01"/><path d="M409 556c9 3 9 3 11 5-3.031-.589-6.002-1.25-9-2v452h-2V556z" fill="#fefce3"/><path d="M1121 946l1 2c-4.988 5.848-10.218 11.391-15.637 16.84l-2.43 2.447-5.05 5.07-7.721 7.794-4.924 4.939-2.323 2.361-2.175 2.166-1.901 1.912c-1.968 1.575-3.374 2.068-5.839 2.471 4.877-5.88 10.139-11.269 15.555-16.652l2.732-2.728 7.131-7.107 7.301-7.281L1121 946z" fill="#b89036"/><path d="M1279 1034h1l-1 19h-2v8h-2l.25 3.25c-.291 4.369-1.113 4.959-4.25 7.75l.77-3.227c4.192-17.274 4.192-17.274 7.23-34.773z" fill="#f7ecc6"/><path d="M898 833c-1.358 3.043-2.885 5.123-5.258 7.453l-1.895 1.875-1.973 1.922-1.996 1.969L882 851l-2-1c15.085-17 15.085-17 18-17z" fill="#b08524"/><g fill="#b99239"><use href="#B"/><use href="#B" x="16" y="-16"/></g><path d="M1070 773c19.005-.554 19.005-.554 27 3-3.358 1.081-5.946.924-9.422.441l-3.105-.42-3.223-.459-3.27-.447L1070 774v-1z" fill="#f7ecc6"/><path d="M1041 1026l1 2-3.312 3.813-1.863 2.145L1035 1036l-1.48 1.824L1032 1039c-2.187-.312-2.187-.312-4-1l1.574-1.355c3.953-3.427 7.784-6.889 11.426-10.645z" fill="#ba9339"/><path d="M878 942c1.93 5.981-.137 12.075-2.625 17.625L874 962c-.978-3.056-1.008-4.853-.004-7.891l.693-2.148.748-2.211.736-2.258L878 942z" fill="#f5eac3"/><path d="M1087 1230v1c-6.07 2.158-11.594 2.209-18 2l1-2c5.51-1.278 11.377-1.102 17-1z" fill="#f7eeca"/><path d="M1106 1227c-3.021 3.021-6.564 2.467-10.625 2.625l-2.43.117-5.945.258v-1l7.25-1.562 2.066-.459c3.501-.731 6.287-1.301 9.684.021z" fill="#f5eac3"/><path d="M870 1025c2.8 4.199 3.116 6.097 3.063 11.125l-.027 3.32L873 1042h-1c-2.296-11.522-2.296-11.522-2-17z" fill="#f9f0ce"/><path d="M1132 1219c-4.909 3.927-7.739 4.432-14 4 2.626-1.751 4.618-2.693 7.563-3.687l2.379-.824C1130 1218 1130 1218 1132 1219z" fill="#f7ecc8"/><path d="M904 893l1 2-1.437 1.75c-1.66 2.084-1.66 2.084-2 4.25-.782 2.779-2.457 4.098-4.562 6l-2-1 9-13z" fill="#f7ebc5"/><path d="M641 605v2l1.75.438L645 608l2.188.375L649 609l1 3c-9.595-2.891-9.595-2.891-13-6 2-1 2-1 4-1z" fill="#f8edc5"/><path d="M795 311l4.25-.25 2.391-.141C804 311 804 311 808 315l-14-2 1-2z" fill="#fbf5d9"/><path d="M374 501c-1.382 3.21-2.924 5.049-5.625 7.25l-1.914 1.578L365 511c1.317-4.189 4.025-10 9-10z" fill="#ae8322"/><path d="M1088.75 1180.813l2.984.082 2.266.105c-3.266 1.913-5.994 2.357-9.75 2.625l-2.984.227-2.266.148c3.273-2.969 5.381-3.344 9.75-3.187z" fill="#f6ecc6"/><path d="M1232 1145l1 3-3 1c-1.219 2.504-1.219 2.504-2 5l-3-1 7-8z" fill="#fcf2d2"/><path d="M1270 1073h1c.391 5.957.391 5.957 0 8l-4 3 3-11z" fill="#f5eac4"/><path d="M450 517v2h-2v2h2v2l-6-2v-2c3.75-2 3.75-2 6-2z" fill="#fdf5d2"/><path d="M718 399c-3.797 2.826-6.186 4.566-11 4 7.225-5.887 7.225-5.887 11-4z" fill="#faf1ce"/><path d="M821 525v2l-9 4-2-2 4.375-2 2.461-1.125C819 525 819 525 821 525z" fill="#fbf1cf"/><path d="M918 481l2 1-9 5-2-2 4.375-2.062 2.461-1.16L918 481z" fill="#f8edc7"/><defs ><path id="B" d="M1057 1010l1 2c-4.329 5.184-8.766 9.727-14 14l-2-1 15-15z"/></defs></svg>