<svg xmlns="http://www.w3.org/2000/svg" width="1563" height="1563" xmlns:v="https://vecta.io/nano"><path d="M0 0h1563v1563H0V0z" fill="#fefcf5"/><path d="M316 838h931v420h68c8.27 3.675 11.605 5.182 15 13 1.03 6.375.083 10.989-3.516 16.309-2.778 3.165-4.509 4.581-8.819 5.068l-4.074.002-2.284.014c-2.545.011-5.089.001-7.634-.009l-5.529.015c-5.099.013-10.197.008-15.296 0-5.534-.006-11.068.006-16.602.015l-29.131.012c-13.765-.006-27.529.002-41.294.015l-81.627.03-11.285-.001h-2.264c-16.545-.001-33.091.004-49.636.01l-11.328.004-4.546.002-2.276.001-4.558.002-129.371.019h-2.421l-26.725-.003-7.315-.001h-4.881c-51.452-.006-102.905.009-154.357.041l-38.894.024-2.419.001-73.781.025h-2.339c-16.943.001-33.887.001-50.83 0l-18.187-.001h-4.525c-24.052-.002-48.104.011-72.157.031l-72.656.005c-15.033-.011-30.067-.009-45.1.015a8353.54 8353.54 0 0 1-28.739-.008c-5.467-.01-10.933-.012-16.4.007a1788.77 1788.77 0 0 1-14.902-.011 542.7 542.7 0 0 0-5.374.013c-2.424.017-4.847.003-7.271-.019l-2.109.037c-5.542-.103-7.796-1.871-11.551-5.661-2.993-5.187-4.071-10.118-3-16 2.324-5.622 5.627-9.08 11-12 22.771-7.59 47.998-1 72-1V838z" fill="#af7a01"/><path d="M532.159 229.807l3.925-.049 4.267-.032 2.171-.016 11.387-.061 9.398-.082 11.367-.081 4.318-.046c13.965-.22 13.965-.22 19.504 4.038 5.088 5.149 6.604 11.536 8.343 18.346l.754 2.853 2.344 9.01 1.553 5.9 7.389 28.744.652 2.567C621 306.765 621 306.765 621 309l2.322-.005 136.281-.2 16.365-.015 3.291-.003 52.747-.086 54.125-.068 33.396-.055 22.903-.022 13.213-.023 12.107-.007 4.369-.016c11.534-.094 20.473 1.407 29.06 9.507 6.674 7.304 10.428 14.674 10.188 24.664-1.441 13.061-6.832 25.892-11.004 38.259-2.167 6.432-4.265 12.869-6.175 19.382-3.443 11.74-7.176 23.389-10.874 35.05l-9.274 29.788c-7.483 24.441-7.483 24.441-13.04 33.849l2.734.297c5.015 1.08 7.83 4.031 11.266 7.703 2.652 4.2 2.766 9.167 2 14-2.137 5.556-5.488 8.854-10.505 11.914-4.882 2.125-9.98 1.754-15.221 1.692l-3.856.015c-3.516.013-7.032-.005-10.548-.029l-11.395-.004a4448.05 4448.05 0 0 1-19.735-.026l-28.573-.022c-15.471.015-30.942.01-46.412-.009l-2.804-.003-22.518-.03-19.666-.026-2.797-.003-46.227-.003c-9.496.008-18.992-.001-28.488-.034l-19.533-.014c-3.753.005-7.505.003-11.257-.022-4.077-.027-8.153-.015-12.23.001l-3.556-.043c-10.055.094-19.882 2.835-27.275 10.012-5.37 6.267-6.057 12.108-5.777 20.297.847 7.547 4.256 11.722 9.789 16.699 8.47 5.373 16.372 6.32 26.273 6.266l3.588.098c7.499.054 7.499.054 13.768-3.617L685 581c2.477-1.426 2.477-1.426 4.625-2.312l2.164-.926c9.886-3.406 22.127-3.1 31.73.953 4.357 2.258 8.982 4.786 12.48 8.285a77.24 77.24 0 0 0 4.736.161l3.105.03 3.436.018 3.597.03 11.848.07 2.036.01 19.02.074 24.317.133 17.101.079 10.209.06 11.411.032 3.393.061c7.501-.07 11.296-1.748 16.79-6.758 10.327-6.254 22.12-6.818 33.691-4.148 12.143 4.215 20.518 11.72 26.309 23.148 2.689 5.773 3.55 10.902 3.5 17.25l-.015 2.519c-.324 11.523-5.158 20.67-13.071 28.876-9.35 8.67-20.84 11.923-33.363 11.668-10.95-1.122-20.914-7.328-28.414-15.195-5.045-6.527-7.477-13.001-8.637-21.117h-99l-1 7c-4.046 11.069-10.624 18.975-21.062 24.438-11.69 5.322-22.764 6.456-35.047 1.891C679.21 651.961 671.849 643.765 667 632c-.832-2.667-1.441-5.258-2-8l-2.754.141c-18.071.519-36.084-5.06-49.684-17.328-11.945-11.489-20.403-26.283-21.118-43.113-.058-17.845 6.313-32.839 18.556-45.699 6.641-6.322 16.335-15 26-15l-3.198-12.421-1.082-4.203L624 457l-2-7.5-1-3.75-3-11.25-.951-3.566-1.926-7.23-7.868-29.314-2.323-8.61L600 367.5l-5.724-21.217-2.266-8.399L584 308l-1.249-4.681-2.789-10.482-1.187-4.455-1.753-6.592-.527-1.97c-1.3-4.911-2.423-9.853-3.496-14.819l-1.706.027-17.618.193-6.57.082-9.458.089-2.955.063c-6.931.002-10.319-1.175-15.338-6.051-4.71-5.907-5.116-11.028-4.355-18.402 3.733-7.604 8.915-11.1 17.159-11.193z" fill="#af7a02"/><path d="M402 468h189c4 14 4 14 3 18a113.66 113.66 0 0 1-5.937 5.375C572.713 505.022 563.301 523.052 559 543l-.533 2.37c-4.22 23.748 1.68 48.899 14.969 68.814C586.639 632.956 605.373 646.472 627 654l6.688 1c8.262 1.664 11.449 7.815 16.039 14.288 9.917 13.335 27.178 20.937 42.965 24.283 21.244 2.759 42.703-.572 60.009-13.878C759.94 673.69 766.775 666.837 772 659c2.123-.428 2.123-.428 4.782-.499l3.015-.097 3.273-.048 3.364-.059 7.066-.072 10.765-.25 6.867-.057 3.236-.128c4.623.041 7.479.169 10.994 3.345 2.032 2.543 3.821 5.166 5.637 7.865 11.689 13.247 29.394 23.894 47.314 25.164 24.865 1.145 44.592-4.431 63.666-20.871 14.316-13.494 22.743-33.838 23.49-53.369.233-19.428-6.961-34.43-16.471-50.924l3.918-.078c16.98-.488 31.016-3.285 43.895-15.234 6.622-7.113 10.224-15.553 13.188-24.687l1-3c1.068-11.986.896-24.154-5.641-34.629-1.935-3.376-1.304-5.781-.359-9.371 3.544-12.544 3.544-12.544 5-14 1.949-.097 3.901-.122 5.853-.12l3.846-.004 4.276.011h4.536l12.189.013 11.422.007 33.442.032L1161 468v234H402V468z" fill="#af7a01"/><path d="M981.153 913.606l2.149-.018 7.111-.007 5.106-.026 13.86-.023 11.578-.017 27.322-.015 28.164-.053 24.197-.038 14.444-.028h13.59l4.978-.016c16.283-.131 16.283-.131 22.35 5.636 4.117 4.434 5.125 7.591 5.123 13.554l.006 3.523-.009 3.888.003 4.116-.007 11.336-.002 12.215-.008 21.171-.012 30.61-.018 49.66-.021 48.247-.001 3.033-.006 23.485L1161 1259H961l-.146-117.367-.018-23.722-.002-3.003-.064-48.023-.051-49.271-.041-30.412-.017-20.844-.017-12.032-.005-11.015-.025-5.874c.039-7.567.612-12.297 5.762-18.125 4.938-4.35 8.139-5.687 14.778-5.707z" fill="#fefcf5"/><path d="M701.875 913.846l2.131-.013 7.088-.026 5.076-.025 16.685-.056 5.745-.016 23.9-.052 34.244-.106 24.082-.064 14.38-.048 13.536-.025 4.958-.026c16.251-.163 16.251-.163 22.299 5.609 3.908 4.309 5.125 6.68 5.123 12.431l.006 3.517-.009 3.897.003 4.113-.007 11.342-.002 12.217-.008 21.179-.012 30.622-.018 49.678-.021 48.268-.001 3.034-.006 23.491L881 1258H682l-.195-117.723-.024-23.793-.003-3.012-.086-48.168-.068-49.42-.055-30.504-.022-20.907-.023-12.069-.007-11.048-.033-5.892c.053-7.742.691-11.526 6.114-17.108 4.939-3.938 8.051-4.482 14.277-4.509z" fill="#fefcf4"/><path d="M431.586 913.385l5.053-.017 13.673.026 14.332.012 24.061.052 27.794.039 26.773.024 11.379.009 13.403.039 4.911.006 6.718.03 3.793.011c7.085.77 11.689 3.365 16.157 8.874 2.758 5.057 2.301 10.487 2.21 16.113l.018 4.141-.047 11.336-.015 12.241-.058 21.194-.084 30.642-.128 49.718-.144 48.29-.006 3.038-.042 23.526L601 1258H402l-.244-117.27-.031-23.709-.004-3.002-.107-47.98-.085-49.237-.069-30.384-.028-20.833-.029-12.021-.008-11.011-.041-5.858c.061-7.169.779-12.231 5.645-17.696 6.898-6.665 15.613-5.694 24.586-5.615z" fill="#fefcf5"/><path d="M280.257 736.748l2.16-.009 7.181.006 5.217-.01 14.401.001 15.643-.009 27.438-.006 40.801-.009 74.98-.015 10.627.001h2.132l46.758-.005 10.674-.002 4.284-.001h2.145l4.295-.001 121.885-.009h2.28l25.174.003h2.296l9.192.001 145.395-.021 36.636-.014 2.279-.001 69.508-.014h2.204l47.893.001 17.136.001h4.263l67.965-.017h70.343l40.574-.009 27.075.006 15.444-.004 14.042.007 5.056-.008c18.297-.08 18.297-.08 24.424 5.14l1.379 1.809 1.434 1.816c2.708 3.888 2.327 7.704 2.367 12.285l.024 2.624.032 5.513.105 8.375.025 5.363.053 2.507c-.021 5.775-1.241 10.127-4.479 14.954-4.832 4.597-8.401 5.125-14.929 5.131l-2.163.006-7.246.003-5.242.009-14.514.011-15.749.017-31.285.026-37.453.033-96.985.07-21.39.012-159.119.075-36.896.012-4.632.002-148.773.104-106.884.083-2.22.001-48.237.012-19.408.003h-2.146l-68.459.059-70.86.033c-13.625-.007-27.249.003-40.874.037l-27.276.002c-5.186-.01-10.372-.01-15.559.016a1343.24 1343.24 0 0 1-14.146-.007c-1.698-.005-3.396.001-5.094.018-15.28.141-15.28.141-21.118-5.256-4.625-5.187-4.802-9.242-4.78-15.974l-.016-2.76.003-5.767-.052-8.795.002-5.615-.034-2.643c.062-5.482.898-8.597 4.53-12.955 5.486-5.197 10.846-6.25 18.257-6.252z" fill="#af7a02"/><path d="M373.036 366.759l2.473-.005 8.213.019 5.883-.001 15.984.025 16.7.016 31.63.043 36.007.043L564 367l2.401 8.608.682 2.442c1.734 6.227 3.333 12.479 4.855 18.762a601.95 601.95 0 0 0 7.234 26.765l.727 2.477.646 2.171C581 430 581 430 581 432l-84.465.259-39.219.118-34.183.093-18.1.058-17.039.037-6.25.03-8.544.005-2.488.044c-5.938-.077-10.185-1.744-14.712-5.645-4.006-5.439-4.597-10.716-4.531-17.32l-.012-2.613.021-5.43-.025-8.281.016-5.301-.025-2.481c.087-5.323 1.06-8.333 4.556-12.573 5.61-5.049 9.549-6.298 17.036-6.241zM1041 367l60.996-.259 28.323-.118 24.69-.093 13.069-.058 12.312-.037 4.508-.03c8.057-.098 14.875-.144 21.102 5.596 4.767 5.255 5.177 8.738 5.238 15.664l.024 2.624.032 5.513.105 8.375.025 5.363.053 2.507c-.021 5.727-1.159 10.212-4.479 14.954-5.393 4.292-9.267 5.125-16.042 5.12l-2.186.003c-2.423.002-4.846-.004-7.269-.009h-5.203c-4.715 0-9.429-.006-14.144-.013l-14.774-.008-27.985-.021-31.857-.022L1022 432c1.059-8.799 1.059-8.799 2.234-12.41l.732-2.285.783-2.368.814-2.524 3.732-11.246c2.841-8.366 5.363-16.778 7.736-25.289l.732-2.618.649-2.345C1040 369 1040 369 1041 367z" fill="#af7a01"/><path d="M521 1030c5.497 2.457 9.351 5.532 12 11 .504 2.797.504 2.797.563 5.75l.129 2.922c-2.148 10.34-11.865 17.898-19.095 25.013l-5.878 5.831c-5.471 5.436-10.945 10.79-16.822 15.789-5.128 4.585-9.807 9.699-14.562 14.665-5.603 5.719-9.642 9.434-17.771 10.469-5.235-.643-9.475-2.216-13.145-6.121-3.541-4.745-4.964-9.124-4.795-15.152 1.677-9.626 12.58-17.751 19.208-24.277l6.095-6.048c5.59-5.556 11.173-11.051 17.182-16.157 5.201-4.626 9.961-9.761 14.822-14.739l2.586-2.619 2.321-2.372c5.137-4.636 10.47-4.991 17.163-3.952z" fill="#af7a03"/><path d="M551.355 1081.875c4.681 2.67 8.028 5.911 9.645 11.125 1.093 6.967-.318 11.993-4 18-2.334 2.855-4.906 5.422-7.539 8l-2.188 2.185-4.564 4.517-6.998 6.958-4.437 4.402-2.118 2.111-1.962 1.924-1.726 1.703C524 1144 524 1144 522 1144v2c-1.467 1.437-1.467 1.437-3.496 3.109-2.991 2.541-5.811 5.146-8.539 7.969l-2.014 2.078-4.039 4.234c-5.02 5.151-9.034 8.116-16.35 9.047-5.548-.681-9.492-2.279-13.402-6.355-3.45-4.587-5.226-8.694-4.686-14.489 1.891-9.324 11.13-16.595 17.647-22.996l5.226-5.179c9.019-8.955 9.019-8.955 13.707-12.953 6.319-5.397 12.017-11.513 17.829-17.445l4.757-4.821 1.452-1.493c6.018-6.062 13.006-7.899 21.263-4.831z" fill="#af7b04"/><path d="M829 1081c5.232 2.519 9.385 6.771 12 12 .238 2.391.238 2.391.313 5.25l.113 2.828c-.914 6.272-5.867 10.658-10.201 14.971l-1.716 1.732-5.595 5.605-3.908 3.921-8.186 8.188-10.457 10.491-8.071 8.084-3.854 3.869-5.405 5.399-1.587 1.611c-4.229 4.169-8.711 7.46-14.821 7.551-6.438-.228-10.748-3.526-15.062-8.062-2.228-3.476-2.737-6.659-2.875-10.75l-.113-2.176c1.075-6.341 5.575-11.102 10.001-15.475l1.652-1.668 5.385-5.38 3.766-3.775 7.891-7.875 10.066-10.077 7.781-7.78 3.709-3.716 5.21-5.19 1.52-1.538c6.732-6.614 12.982-9.44 22.444-8.037z" fill="#af7a03"/><path d="M801 1030c5.232 2.519 9.385 6.771 12 12 .238 2.391.238 2.391.313 5.25l.113 2.828c-.914 6.272-5.867 10.658-10.201 14.971l-1.716 1.732-5.595 5.605-3.908 3.921-8.186 8.188-10.457 10.491-8.071 8.084-3.854 3.869-5.405 5.399-1.587 1.611c-4.229 4.169-8.711 7.46-14.821 7.551-5.162-.192-8.766-2.147-12.625-5.5-3.333-4.273-5.133-7.831-5.312-13.25l-.113-2.203c1.063-6.361 5.562-11.124 10.001-15.51l1.652-1.668 5.385-5.38 3.766-3.775 7.891-7.875 10.066-10.077 7.781-7.78 3.709-3.716 5.21-5.19 1.52-1.538c6.732-6.614 12.982-9.44 22.444-8.037zm309.246 51.844c5.114 2.862 8.608 6.683 10.754 12.156 1.02 4.783.458 8.092-1.745 12.462-4.359 6.645-10.356 12.069-15.966 17.647l-3.762 3.771-7.873 7.857-10.043 10.054-7.768 7.767-3.7 3.708-5.196 5.175-1.515 1.533c-3.947 3.878-8.337 7.343-13.839 8.557-6.282-.094-10.598-1.559-15.102-6.027-3.642-4.173-4.662-7.385-4.805-12.816l-.113-2.801c.916-6.207 5.816-10.572 10.109-14.844l1.687-1.702 5.497-5.508 3.841-3.854 8.044-8.046 10.275-10.31 7.932-7.945 3.787-3.802 5.312-5.306 1.559-1.582c6.434-6.342 13.851-9.441 22.629-6.144zM1081 1030c5.881 2.76 9.586 7.064 12 13 1.083 5.712.094 9.676-3.121 14.567-4.357 5.641-9.578 10.559-14.625 15.577l-3.769 3.778-7.885 7.869-10.07 10.081-7.78 7.78-3.711 3.719-5.203 5.183-1.526 1.544c-4.895 4.809-9.406 7.33-16.308 7.339-5.138-.14-8.123-.851-12-4.437-3.919-4.343-5.16-7.51-5.312-13.312l-.113-2.801c.916-6.207 5.816-10.572 10.109-14.844l1.687-1.702 5.497-5.508 3.841-3.854 8.044-8.046 10.275-10.31 7.932-7.945 3.787-3.802 5.312-5.306 1.559-1.582c6.361-6.27 12.6-8.507 21.383-6.987z" fill="#af7a02"/><path d="M638 344h70v27h-65c-5-23-5-23-5-27z" fill="#fefcf5"/><path d="M909 344h65c-2.036 9.163-5.032 18.095-8 27h-57v-27z" fill="#fefcf3"/><path d="M652 407h56v28h-50c-1.222-3.666-2.288-6.923-3.07-10.637l-.527-2.498-.527-2.553-.551-2.588C652 410.387 652 410.387 652 407z" fill="#fdfaef"/><path d="M1159 924c2.268 3.402 2.249 4.564 2.246 8.554l.012 3.523-.018 3.888.005 4.116-.014 11.336-.004 12.215-.016 21.171-.024 30.61-.037 49.66-.041 48.247-.002 3.033-.012 23.485L1161 1259H961l-.098-117.514-.012-23.74-.002-3.006-.043-48.087-.034-49.322-.028-30.453-.011-20.861-.011-12.049-.003-11.02-.016-5.899.012-3.512-.002-3.044C961 928 961 928 963 925v332h197l-1-333z" fill="#f0e2b2"/><path d="M743 470h48v29h-48v-29z" fill="#fefcf5"/><path d="M826 470h47v29h-47v-29z" fill="#fefaee"/><path d="M826 407h47v28h-47v-28z" fill="#fdfbef"/><path d="M826 344h47v27h-47v-27z" fill="#fefcf1"/><path d="M744 407h46v27h-46v-27z" fill="#fefcf3"/><path d="M744 344h46v27h-46v-27z" fill="#fefcf2"/><path d="M908 406h47l-2.375 9.469-.797 2.48-1.656 5.102-.797 2.48-.727 2.236c-.69 2.374-1.164 4.808-1.648 7.232h-39v-29z" fill="#fefcf5"/><path d="M666 470h42v29h-36l-3-13.375-.949-4.216-.738-3.307-.762-3.396C666 472 666 472 666 470z" fill="#fefaee"/><path d="M404 923h1v5l-1 1-.139 5.246-.017 3.468-.003 3.859-.015 4.061-.027 11.212-.035 12.072-.056 20.932-.08 30.265-.131 49.097-.125 47.706-.008 2.998-.065 23.213L403 1257h197l-1-334c2 2 2 2 2.248 4.384l-.002 3.063.012 3.527-.018 3.909.005 4.126-.014 11.377-.004 12.254-.016 21.243-.024 30.714-.037 49.828-.041 48.413-.002 3.043-.012 23.561L601 1258H402l-.098-117.465-.012-23.734-.002-3.005-.043-48.065-.034-49.305-.028-30.439-.011-20.855-.011-12.044-.003-11.018-.016-5.89.012-3.518-.002-3.042c.254-2.682.876-4.325 2.248-6.619z" fill="#fefbdd"/><path d="M908 470h27c-3.763 11.29-8.12 17.986-18.508 23.844-2.739 1.271-5.627 2.201-8.492 3.156v-27z" fill="#fcf8e8"/><path d="M743 470h48v29h-48v-29zm2 1v26h44v-26h-44z" fill="#f1e2b4"/><path d="M908 406h47c-.697 3.483-1.424 6.497-2.562 9.813l-.816 2.395L951 420c-1.072-3.652-.764-6.264 0-10h2v-2h-43v25h35v-3h2v5h-39v-29z" fill="#ebdcae"/><path d="M1092 1084l2 1c-5.464 6.6-11.529 12.534-17.68 18.48l-9.033 8.833-11.449 11.15-9.303 9.092-3.537 3.42c-6.635 6.324-11.21 11.243-11.974 20.846L1031 1159h-1l-.25-5.125-.141-2.883c.825-6.322 5.798-10.686 10.169-14.998l1.716-1.717 5.584-5.551 3.884-3.875 10.199-10.15 10.417-10.377L1092 1084z" fill="#ad7f1a"/><path d="M980.806 913.739l2.145-.012 7.153-.002 5.114-.015 13.922-.011 11.615-.009 27.406-.005 28.278-.028 24.265-.02 14.498-.015 13.641.002 5.004-.009 6.838.01 3.864-.001c3.753.408 6.207 1.491 9.45 3.375-3.29 1.097-4.713.8-8 0v-2l-174 1c2.859-2.859 4.799-2.254 8.806-2.261z" fill="#fdebc0"/><path d="M638 344h70v27h-65l-2-10c2.55 1.275 2.931 2.403 4 5v3l62 1v-25h-68l-1 3v-4z" fill="#fefad8"/><path d="M1064 1033l2 1c-5.481 6.559-11.464 12.585-17.525 18.6l-5.245 5.221-11.105 11.054-12.937 12.881-5.174 5.142-3.147 3.137-2.782 2.767c-2.116 2.017-2.116 2.017-3.085 4.199h-2c1.437-4.72 4.202-7.61 7.643-10.984l1.745-1.746 5.714-5.665 3.96-3.947 10.426-10.352 10.638-10.578L1064 1033z" fill="#ac7f19"/><path d="M785 1034c-1.601 3.964-4.355 6.637-7.336 9.595l-1.646 1.657-5.393 5.389-3.744 3.749-7.848 7.837-10.068 10.075-7.731 7.731-3.713 3.718-5.185 5.172-1.555 1.568C727.229 1094 727.229 1094 725 1094c1.601-3.964 4.355-6.637 7.336-9.595l1.646-1.657 5.393-5.389 3.744-3.749 7.848-7.837 10.068-10.075 7.731-7.731 3.713-3.718 5.185-5.172 1.555-1.568c3.552-3.509 3.552-3.509 5.78-3.509z" fill="#b08422"/><path d="M1041 367h157v1l-2.286.013-55.138.327-26.665.158-23.248.14-12.303.072-11.595.071-4.241.023c-7.253.031-14.334.22-21.524 1.197l-1 4-1-2 2-5z" fill="#b18d3e"/><path d="M793 1103c0 3.63-.659 4.105-3.038 6.715l-1.945 2.14a451.43 451.43 0 0 1-9.411 9.708l-2.041 2.051-4.228 4.235-6.484 6.523-4.123 4.129-1.957 1.979-1.812 1.802-1.591 1.596C755 1145 755 1145 753 1145c1.433-3.272 3.188-5.432 5.715-7.942l2.305-2.305 2.488-2.456 2.547-2.539 8.07-8.008 5.465-5.437L793 1103z" fill="#af8422"/><path d="M481 1057c0 3 0 3-1.329 4.689l-1.884 1.864-2.123 2.123-2.32 2.273-2.354 2.341-7.49 7.397-5.059 5.018L446 1095l-2-1c6.47-7.384 13.243-14.399 20.195-21.326l5.094-5.1 3.266-3.262 1.525-1.531c2.221-2.207 4.303-4.037 6.921-5.782z" fill="#b48a2c"/><path d="M909 344h65c-2 9-2 9-4 12l1-11h-62v-1z" fill="#fffcd8"/><path d="M361 370c-1.453 3.391-3.413 5.413-6 8-1.288 3.863-1.234 7.575-1.316 11.605l-.063 2.543-.183 8.039-.131 5.451L353 419h-1l-.22-16.76-.082-5.697-.089-8.207-.063-2.558c-.002-6.411 1.854-9.779 6.078-14.653C359 370 359 370 361 370z" fill="#a67b1b"/><path d="M965 608h1c.676 13.422-.541 25.257-5 38l-2 2 .938-4.812.527-2.707C961 638 961 638 962 635a241.26 241.26 0 0 0 .563-7.187l.254-3.855L963 621h2v-13z" fill="#f3e7c0"/><path d="M1008 496c4.222 6.333 4.316 12.614 4.25 20l.023 2.617c-.016 5.18-.594 9.479-2.273 14.383h-1v-9h2v-16h-2l-1-12z" fill="#fcf6d5"/><path d="M640 582l5.875 1.438 3.305.809C652 585 652 585 654 586l5.445.316 3.262.127 3.418.119 3.441.131L678 587v1l-12.875.25-3.648.102c-7.482.081-13.921-.461-20.477-4.352l-1-2z" fill="#faf3d2"/><path d="M1211 383h1l.11 15.479.041 5.261.044 7.581.031 2.359c.001 4.505-.52 8.075-2.227 12.321l-3-1 1.468-2.471c1.825-4.204 2.006-7.469 2.044-11.99l.054-2.396.121-7.518.104-5.121L1211 383z" fill="#f8e2a9"/><path d="M689 656l1.984.656c9.813 2.994 18.946 2.893 29.016 1.344l-2 1v2l-10.562.188-3.002.076c-5.967.059-10.151-.44-15.436-3.264v-2z" fill="#fef9db"/><path d="M769 1098l1 2c-4.329 5.184-8.766 9.727-14 14l-2-1 15-15z" fill="#fdf3d6"/><path d="M801 1066c0 3.151-.279 4.418-2 7l-4 1-2 4-5 4-2-1 15-15z" fill="#f3e8c1"/><path d="M489 1127c0 3.461-.352 3.745-2.625 6.137l-1.641 1.748-1.734 1.803-1.734 1.838L477 1143l-3-1 15-15z" fill="#b58d31"/><path d="M1044 1103l1 2c-7.298 8.446-7.298 8.446-11 12l-3-1 13-13z" fill="#fff9e0"/><path d="M949 569h20c-3.737 2.491-5.745 2.207-10.187 2.125l-3.855-.055L952 571l-1 2-2-4z" fill="#b48f3b"/><path d="M974 462c1.675 5.085.302 9.941-1 15-1.625 3.188-1.625 3.188-3 5-.978-3.056-1.008-4.853-.004-7.891l.693-2.148.748-2.211.736-2.258L974 462z" fill="#f4e9c3"/><path d="M1057 1090l1 2-3.25 3.813-1.828 2.145c-1.846 1.962-3.721 3.5-5.922 5.043l-2-1 12-12z" fill="#fff6d9"/><path d="M563 526c1.591 3.979.262 7.135-1 11l-1.625 5.438L559 547c-1.644-4.059-.284-7.618.875-11.625l.566-2.062c1.382-4.959 1.382-4.959 2.559-7.312z" fill="#f8eec9"/><path d="M1029 1147l2 1-.035 2.23-.027 2.957-.035 2.918c.093 2.75.477 5.219 1.098 7.895-2.844-2.39-3.6-4.322-4.312-7.937l-.551-2.59c-.155-2.8.405-4.119 1.863-6.473z" fill="#f7edcb"/><path d="M912 689h5c-5.319 4.876-12.142 5.286-19 5l1.938-.937c1.999-.897 1.999-.897 3.063-2.062 1.519-.072 3.042-.084 4.563-.062l2.504.027L912 691v-2z" fill="#f9f1ce"/><path d="M574 272c2.177 2.177 2.419 3.005 3.07 5.914l.527 2.305.527 2.406.551 2.43L580 291h-2l-.937-3.437c-.692-3.35-.692-3.35-2.062-4.562l-.562-5.562-.254-3.066L574 272z" fill="#f2e6bc"/><path d="M496 1091l3 1c-3.494 3.596-7.111 6.835-11 10l-2-1 10-10z" fill="#f0e4bd"/><path d="M813 1042l2 1 .125 5.313.07 2.988C815 1054 815 1054 813 1057h-2l2-15z" fill="#fef9dc"/><path d="M785 1161c0 4.099-1.695 5.565-4.332 8.547C779 1171 779 1171 776.125 1171.438L774 1171l2.125-1.625c3.179-2.626 5.994-5.427 8.875-8.375z" fill="#fcf3d4"/><path d="M597 356c1.965 3.452 2.775 6.885 3.625 10.75l.789 3.547L602 373h-2l-.937-3.437c-.692-3.35-.692-3.35-2.062-4.562-.072-1.519-.084-3.042-.062-4.562l.027-2.504L597 356z" fill="#f1e4b9"/><path d="M990 411h1v8l-2 2c-.648 2.571-.648 2.571-1 5h-2l1.438-5.812.809-3.27L990 411z" fill="#f5e9c3"/><path d="M1004 366h1v8l-2 2c-.648 2.571-.648 2.571-1 5h-2l1.438-5.812.809-3.27L1004 366z" fill="#f5eac3"/><path d="M361 370c-1.453 3.391-3.413 5.413-6 8l-1 3h-2c1.159-4.531 3.483-11 9-11z" fill="#b08526"/><path d="M485 1102l1 3-1.875.75c-2.275 1.074-2.275 1.074-3.125 3.313l-1 1.938-4 1 2.813-3.312 1.582-1.863L485 1102z" fill="#f3e7bf"/><path d="M804 1092l1 2c-2.681 3.574-5.426 6.319-9 9l-2-1 10-10z" fill="#b79037"/><path d="M929 627c1.135 3.352.873 5.357-.25 8.688l-.766 2.387C927 640 927 640 924 641c1.535-4.722 3.239-9.359 5-14z" fill="#f8efcb"/><path d="M1057 1168l2 1c-2.278 2.808-3.362 3.917-7.016 4.391l-3.234-.141-3.266-.109L1043 1173v-1l1.793-.113c4.909-.408 8.034-1.105 12.207-3.887z" fill="#fdf8db"/><path d="M785 1034c-1.443 3.366-3.333 5.51-6 8l-3-1 3.375-3.5 1.898-1.969C783 1034 783 1034 785 1034z" fill="#b68d32"/><path d="M680 690l12 1v2l2 1c-4.969-.514-9.29-1.234-14-3v-1z" fill="#f6ebc5"/><path d="M1008 496c2.558 3.837 4.345 7.757 3.625 12.438L1011 510v-2h-2l-1-12z" fill="#f5e8c2"/><path d="M404 923h1v5l-1 1-.562 5.563-.254 3.066L403 940h-1l-.125-6.25-.07-3.516c.185-3.062.587-4.676 2.195-7.234z" fill="#fcf5d0"/><path d="M668 476c2.624 3.002 3.363 4.771 3.188 8.75l-.082 2.422L671 489c-2.108-3.162-2.338-4.507-2.625-8.187l-.227-2.73L668 476z" fill="#f8f0cd"/><path d="M742 640l1 2c-1.762 3.617-3.643 5.801-7 8l-2-1 8-9z" fill="#f6eac2"/><path d="M747 629c.955 2.17 1.144 3.563.398 5.824L745 640h-2l1.438-4.375.809-2.461C746 631 746 631 747 629z" fill="#f9f0cd"/><path d="M769 1098l1 2c-2.478 3.452-3.796 5.232-8 6l2.938-3.437 1.652-1.934L769 1098z" fill="#faefcb"/><use href="#B" fill="#ae8220"/><path d="M613 515l2 1-5 6-3-1 6-6z" fill="#b38a2d"/><path d="M973 344c1.16 3.479.775 4.342-.437 7.688l-.871 2.449L971 356c-1.155-3.934-.836-6.973 0-11l2-1z" fill="#fcf4d2"/><use href="#B" x="257" y="-508" fill="#af8524"/><path d="M720 659h-2v2h-7c1-2 1-2 2.813-2.687 2.376-.339 3.921-.041 6.188.688z" fill="#f8efcc"/><path d="M1211 416c1.102 4.408.587 5.892-1 10l-3-1 4-9z" fill="#f8eeca"/><defs ><path id="B" d="M267 740c-1.285 2.867-2.571 4.976-5 7h-2c3.138-7 3.138-7 7-7z"/></defs></svg>